SplineFontDB: 3.2
FontName: Base36
FullName: Base36
FamilyName: Base36
Weight: Regular
Copyright: Copyright (c) 2022, brend
UComments: "2022-1-30: Created with FontForge (http://fontforge.org)"
Version: 001.000
ItalicAngle: 0
UnderlinePosition: -598
UnderlineWidth: 307
Ascent: 1638
Descent: 410
InvalidEm: 0
LayerCount: 2
Layer: 0 0 "Back" 1
Layer: 1 0 "Fore" 0
XUID: [1021 134 53963834 19303]
FSType: 0
OS2Version: 0
OS2_WeightWidthSlopeOnly: 0
OS2_UseTypoMetrics: 1
CreationTime: 1643523816
ModificationTime: 1645476927
PfmFamily: 81
TTFWeight: 400
TTFWidth: 5
LineGap: 377
VLineGap: 0
OS2TypoAscent: 0
OS2TypoAOffset: 1
OS2TypoDescent: 0
OS2TypoDOffset: 1
OS2TypoLinegap: 377
OS2WinAscent: 0
OS2WinAOffset: 1
OS2WinDescent: 0
OS2WinDOffset: 1
HheadAscent: 0
HheadAOffset: 1
HheadDescent: 0
HheadDOffset: 1
OS2FamilyClass: 3072
OS2Vendor: 'PfEd'
Lookup: 258 0 0 "'kern' Horizontal Kerning in Latin lookup" { "'kern' Horizontal Kerning in Latin lookup" [307,0,6] } ['kern' ('DFLT' <'dflt' > 'latn' <'dflt' > ) ]
MarkAttachClasses: 1
DEI: 91125
KernClass2: 5 6 "'kern' Horizontal Kerning in Latin lookup"
 24 exclam ampersand D J P V
 19 asterisk at E K Q W
 16 dollar A G M S Y
 17 percent B H N T Z
 11 U V W X Y Z
 11 O P Q R S T
 11 C D E F G H
 44 ampersand parenleft asterisk A B asciicircum
 12 comma period
 0 {} 0 {} 0 {} 0 {} 0 {} 0 {} 0 {} -450 {} -450 {} 0 {} 0 {} 0 {} 0 {} -450 {} 0 {} 0 {} 0 {} 0 {} 0 {} 0 {} 0 {} 0 {} -450 {} -450 {} 0 {} 0 {} 0 {} -450 {} -450 {} -450 {}
Encoding: ISO8859-1
UnicodeInterp: none
NameList: AGL For New Fonts
DisplaySize: -48
AntiAlias: 1
FitToEm: 0
WinInfo: 0 38 14
BeginPrivate: 0
EndPrivate
BeginChars: 256 191

StartChar: exclam
Encoding: 33 33 1
Width: 1500
Flags: HW
LayerCount: 2
Fore
SplineSet
233.671875 1361.75 m 1
 235.421875 164.25 l 1
 313.526367188 197.916992188 396.942382812 221.583007812 485.671875 235.25 c 0
 592.276367188 250.916992188 708.359375 258.916992188 833.921875 259.25 c 0
 960.359375 258.916992188 1076.44238281 250.916992188 1182.171875 235.25 c 0
 1271.18164062 222.060546875 1354.52636719 197.916992188 1432.421875 164.25 c 1
 1432.421875 0 l 1
 1354.52636719 33.6669921875 1271.18164062 57.810546875 1182.171875 71 c 0
 1076.44238281 86.6669921875 960.359375 94.6669921875 833.921875 95 c 0
 708.359375 94.6669921875 592.276367188 86.6669921875 485.671875 71 c 0
 396.942382812 57.3330078125 313.526367188 33.6669921875 235.421875 0 c 1
 69.328125 -0.25 l 1
 67.578125 1361.5 l 1
 233.671875 1361.75 l 1
EndSplineSet
EndChar

StartChar: quotedbl
Encoding: 34 34 2
Width: 727
Flags: HW
LayerCount: 2
Fore
SplineSet
144 947 m 1
 94 1226 l 1
 94 1466 l 1
 299 1466 l 1
 299 1226 l 1
 254 947 l 1
 144 947 l 1
475 947 m 1
 426 1226 l 1
 426 1466 l 1
 631 1466 l 1
 631 1226 l 1
 583 947 l 1
 475 947 l 1
EndSplineSet
Validated: 1
EndChar

StartChar: numbersign
Encoding: 35 35 3
Width: 1500
Flags: HW
LayerCount: 2
Fore
SplineSet
233.671875 164 m 1
 311.776367188 197.666992188 395.192382812 221.333007812 483.921875 235 c 0
 590.526367188 250.666992188 706.609375 258.666992188 832.171875 259 c 0
 958.609375 258.666992188 1074.69238281 250.666992188 1180.421875 235 c 0
 1269.43164062 221.810546875 1352.77636719 197.666992188 1430.671875 164 c 1
 1430.671875 -0.25 l 1
 1352.77636719 33.4169921875 1269.43164062 57.560546875 1180.421875 70.75 c 0
 1074.69238281 86.4169921875 958.609375 94.4169921875 832.171875 94.75 c 0
 706.609375 94.4169921875 590.526367188 86.4169921875 483.921875 70.75 c 0
 395.192382812 57.0830078125 311.776367188 33.4169921875 233.671875 -0.25 c 1
 67.578125 0 l 1
 69.328125 1361.75 l 1
 235.421875 1361.5 l 1
 313.526041667 1327.83333333 396.942708333 1304.16666667 485.671875 1290.5 c 0
 592.276041667 1274.83333333 708.359375 1266.83333333 833.921875 1266.5 c 0
 960.359375 1266.83333333 1076.44270833 1274.83333333 1182.171875 1290.5 c 0
 1271.18143456 1303.68919976 1354.52604167 1327.83333333 1432.421875 1361.5 c 1
 1432.421875 1197.25 l 1
 1354.52636719 1163.58300781 1271.18164062 1139.43945312 1182.171875 1126.25 c 0
 1076.44238281 1110.58300781 960.359375 1102.58300781 833.921875 1102.25 c 0
 708.359375 1102.58300781 592.276367188 1110.58300781 485.671875 1126.25 c 0
 396.942382812 1139.91699219 313.526367188 1163.58300781 235.421875 1197.25 c 1
 233.671875 762.75 l 1
 1430.671875 762.75 l 1
 1430.671875 598.5 l 1
 231.921875 598.5 l 1
 233.671875 164 l 1
EndSplineSet
EndChar

StartChar: dollar
Encoding: 36 36 4
Width: 1500
Flags: HW
LayerCount: 2
Fore
SplineSet
233.671875 -0.25 m 1
 67.578125 0 l 1
 69.328125 1361.75 l 1
 235.421875 1361.5 l 1
 313.526041667 1327.83333333 396.942708333 1304.16666667 485.671875 1290.5 c 0
 592.276041667 1274.83333333 708.359375 1266.83333333 833.921875 1266.5 c 0
 960.359375 1266.83333333 1076.44270833 1274.83333333 1182.171875 1290.5 c 0
 1271.18143456 1303.68919976 1354.52604167 1327.83333333 1432.421875 1361.5 c 1
 1432.421875 1197.25 l 1
 1354.52636719 1163.58300781 1271.18164062 1139.43945312 1182.171875 1126.25 c 0
 1076.44238281 1110.58300781 960.359375 1102.58300781 833.921875 1102.25 c 0
 708.359375 1102.58300781 592.276367188 1110.58300781 485.671875 1126.25 c 0
 396.942382812 1139.91699219 313.526367188 1163.58300781 235.421875 1197.25 c 1
 233.671875 762.75 l 1
 1430.671875 762.75 l 1
 1430.671875 598.5 l 1
 231.921875 598.5 l 1
 233.671875 -0.25 l 1
EndSplineSet
EndChar

StartChar: percent
Encoding: 37 37 5
Width: 1500
Flags: HW
LayerCount: 2
Fore
SplineSet
233.671875 -0.25 m 1
 67.578125 0 l 1
 69.328125 1361.75 l 1
 235.421875 1361.5 l 1
 313.526041667 1327.83333333 396.942708333 1304.16666667 485.671875 1290.5 c 0
 592.276041667 1274.83333333 708.359375 1266.83333333 833.921875 1266.5 c 0
 960.359375 1266.83333333 1076.44270833 1274.83333333 1182.171875 1290.5 c 0
 1271.18143456 1303.68919976 1354.52604167 1327.83333333 1432.421875 1361.5 c 1
 1432.421875 1197.25 l 1
 1354.52636719 1163.58300781 1271.18164062 1139.43945312 1182.171875 1126.25 c 0
 1076.44238281 1110.58300781 960.359375 1102.58300781 833.921875 1102.25 c 0
 708.359375 1102.58300781 592.276367188 1110.58300781 485.671875 1126.25 c 0
 396.942382812 1139.91699219 313.526367188 1163.58300781 235.421875 1197.25 c 1
 233.671875 -0.25 l 1
EndSplineSet
EndChar

StartChar: ampersand
Encoding: 38 38 6
Width: 1500
Flags: W
HStem: 0 21G<60.0371 80.0247 655.425 843.642 1419.04 1439.06> 95 164.25<136.375 598.978 900.074 1362.68>
VStem: 675.638 147.825<164.25 1361.75>
LayerCount: 2
Fore
SplineSet
824.362304688 1361.75 m 1
 823.462890625 164.25 l 0
 863.820963542 198.083333333 906.720703125 221.75 952.162109375 235.25 c 0
 1006.72070312 251.083333333 1066.42089844 259.083333333 1131.26269531 259.25 c 0
 1195.75423177 259.083333333 1255.45410156 251.083333333 1310.36230469 235.25 c 0
 1356.12076823 221.75 1399.02083333 198.083333333 1439.0625 164.25 c 1
 1439.0625 0 l 1
 1399.02083333 34 1356.12076823 57.6666666667 1310.36230469 71 c 0
 1255.45410156 87 1195.75423177 95 1131.26269531 95 c 0
 1066.42089844 95 1006.72070312 87 952.162109375 71 c 0
 906.720703125 57.6666666667 863.820963542 34 823.462890625 0 c 1
 675.637695312 0 l 1
 635.212565104 34 592.3125 57.6666666667 546.9375 71 c 0
 492.3125 87 432.612630208 95 367.837890625 95 c 0
 303.279296875 95 243.579101563 87 188.737304688 71 c 0
 142.912434896 57.6666666667 100.012369792 34 60.037109375 0 c 1
 60.037109375 164.25 l 1
 100.012369792 198.083333333 142.912434896 221.75 188.737304688 235.25 c 0
 243.579101563 251.083333333 303.279296875 259.083333333 367.837890625 259.25 c 0
 432.612630208 259.083333333 492.3125 251.083333333 546.9375 235.25 c 0
 592.3125 221.75 635.212565104 198.083333333 675.637695312 164.25 c 0
 676.537109375 1361.75 l 1
 824.362304688 1361.75 l 1
EndSplineSet
Validated: 1
EndChar

StartChar: quotesingle
Encoding: 39 39 7
Width: 391
Flags: HW
LayerCount: 2
Fore
SplineSet
136 947 m 1
 90 1221 l 1
 90 1466 l 1
 295 1466 l 1
 295 1221 l 1
 247 947 l 1
 136 947 l 1
EndSplineSet
Validated: 1
EndChar

StartChar: parenleft
Encoding: 40 40 8
Width: 1500
Flags: HW
LayerCount: 2
Fore
SplineSet
676.537109375 1361.75 m 1
 824.362304688 1361.75 l 1
 864.787434896 1327.91666667 907.6875 1304.25 953.0625 1290.75 c 0
 1007.6875 1274.91666667 1067.38736979 1266.91666667 1132.16210938 1266.75 c 0
 1196.72070313 1266.91666667 1256.42089844 1274.91666667 1311.26269531 1290.75 c 0
 1357.0875651 1304.25 1399.98763021 1327.91666667 1439.96289062 1361.75 c 1
 1439.96289062 1197.5 l 1
 1399.98763021 1163.83333333 1357.0875651 1140.16666667 1311.26269531 1126.5 c 0
 1256.42089844 1110.83333333 1196.72070313 1102.83333333 1132.16210938 1102.5 c 0
 1064.72070313 1102.83333333 1005.02083333 1110.83333333 953.0625 1126.5 c 0
 907.6875 1140.16666667 864.787434896 1163.83333333 824.362304688 1197.5 c 0
 823.462890625 763 l 1
 1439.0625 763 l 1
 1439.0625 598.75 l 1
 822.5625 598.75 l 1
 823.462890625 164.25 l 0
 863.820963542 198.083333333 906.720703125 221.75 952.162109375 235.25 c 0
 1006.72070312 251.083333333 1066.42089844 259.083333333 1131.26269531 259.25 c 0
 1195.75423177 259.083333333 1255.45410156 251.083333333 1310.36230469 235.25 c 0
 1356.12076823 221.75 1399.02083333 198.083333333 1439.0625 164.25 c 1
 1439.0625 0 l 1
 1399.02083333 34 1356.12076823 57.6666666667 1310.36230469 71 c 0
 1255.45410156 87 1195.75423177 95 1131.26269531 95 c 0
 1066.42089844 95 1006.72070312 87 952.162109375 71 c 0
 906.720703125 57.6666666667 863.820963542 34 823.462890625 0 c 1
 675.637695312 0 l 1
 635.212565104 34 592.3125 57.6666666667 546.9375 71 c 0
 492.3125 87 432.612630208 95 367.837890625 95 c 0
 303.279296875 95 243.579101563 87 188.737304688 71 c 0
 142.912434896 57.6666666667 100.012369792 34 60.037109375 0 c 1
 60.037109375 164.25 l 1
 100.012369792 198.083333333 142.912434896 221.75 188.737304688 235.25 c 0
 243.579101563 251.083333333 303.279296875 259.083333333 367.837890625 259.25 c 0
 432.612630208 259.083333333 492.3125 251.083333333 546.9375 235.25 c 0
 592.3125 221.75 635.212565104 198.083333333 675.637695312 164.25 c 0
 676.537109375 1361.75 l 1
EndSplineSet
Validated: 1
EndChar

StartChar: parenright
Encoding: 41 41 9
Width: 1500
Flags: HW
HStem: -0.25 21G<67.5781 273.115 1391.78 1430.67> 94.75 164.25<382.932 1282.2>
VStem: 67.5781 166.094<164 1361.5>
LayerCount: 2
Fore
SplineSet
749 278 m 128
 845 278 1089.578125 254 1264.578125 164 c 9
 1266.328125 1197.75 l 1
 1091.328125 1107.75 847 1083.75 751 1083.75 c 128
 655 1083.75 410.421875 1107.75 235.421875 1197.75 c 1
 233.671875 164 l 1
 408.671875 254 653 278 749 278 c 128
749 113.75 m 128
 653 113.75 409 90 234 0 c 0
 67.578125 0 l 1
 69.328125 1361.75 l 1
 236 1361.75 l 0
 411 1271.75 655 1248 751 1248 c 128
 847 1248 1091 1271.75 1266 1361.75 c 0
 1432.421875 1361.75 l 1
 1430.671875 0 l 1
 1264 0 l 0
 1089 90 845 113.75 749 113.75 c 128
EndSplineSet
EndChar

StartChar: asterisk
Encoding: 42 42 10
Width: 1500
Flags: W
HStem: 0 21G<60.0371 80.0247 655.425 843.642 1419.04 1439.06> 95 164.25<136.375 598.978 900.074 1362.68> 598.75 164.25<823.463 1439.06>
VStem: 675.638 147.825<164.25 598.75 763 1361.75>
LayerCount: 2
Fore
SplineSet
824.362304688 1361.75 m 9
 823.462890625 763 l 17
 1439.0625 763 l 1
 1439.0625 598.75 l 1
 822.5625 598.75 l 1
 823.462890625 164.25 l 0
 863.820963542 198.083333333 906.720703125 221.75 952.162109375 235.25 c 0
 1006.72070312 251.083333333 1066.42089844 259.083333333 1131.26269531 259.25 c 0
 1195.75423177 259.083333333 1255.45410156 251.083333333 1310.36230469 235.25 c 0
 1356.12076823 221.75 1399.02083333 198.083333333 1439.0625 164.25 c 1
 1439.0625 0 l 1
 1399.02083333 34 1356.12076823 57.6666666667 1310.36230469 71 c 0
 1255.45410156 87 1195.75423177 95 1131.26269531 95 c 0
 1066.42089844 95 1006.72070312 87 952.162109375 71 c 0
 906.720703125 57.6666666667 863.820963542 34 823.462890625 0 c 1
 675.637695312 0 l 1
 635.212565104 34 592.3125 57.6666666667 546.9375 71 c 0
 492.3125 87 432.612630208 95 367.837890625 95 c 0
 303.279296875 95 243.579101563 87 188.737304688 71 c 0
 142.912434896 57.6666666667 100.012369792 34 60.037109375 0 c 1
 60.037109375 164.25 l 1
 100.012369792 198.083333333 142.912434896 221.75 188.737304688 235.25 c 0
 243.579101563 251.083333333 303.279296875 259.083333333 367.837890625 259.25 c 0
 432.612630208 259.083333333 492.3125 251.083333333 546.9375 235.25 c 0
 592.3125 221.75 635.212565104 198.083333333 675.637695312 164.25 c 0
 676.537109375 1361.75 l 1
 824.362304688 1361.75 l 9
EndSplineSet
Validated: 1
EndChar

StartChar: plus
Encoding: 43 43 11
Width: 1196
Flags: HW
LayerCount: 2
Fore
SplineSet
513 237 m 1
 513 639 l 1
 114 639 l 1
 114 807 l 1
 513 807 l 1
 513 1206 l 1
 683 1206 l 1
 683 807 l 1
 1082 807 l 1
 1082 639 l 1
 683 639 l 1
 683 237 l 1
 513 237 l 1
EndSplineSet
Validated: 1
EndChar

StartChar: comma
Encoding: 44 44 12
Width: 569
Flags: W
HStem: 0 205<182 284>
VStem: 182 205<0 205> 284 103<-159.719 0>
LayerCount: 2
Fore
SplineSet
182 0 m 1xc0
 182 205 l 1
 387 205 l 1
 387 0 l 2xc0
 387 -75.3333333333 373.666666667 -136.166666667 347 -182.5 c 0
 320.333333333 -228.833333333 278 -264.666666667 220 -290 c 1
 170 -213 l 1
 208 -196.333333333 236 -171.833333333 254 -139.5 c 0
 272 -107.166666667 282 -60.6666666667 284 0 c 1xa0
 182 0 l 1xc0
EndSplineSet
Validated: 1
EndChar

StartChar: hyphen
Encoding: 45 45 13
Width: 682
Flags: HW
LayerCount: 2
Fore
SplineSet
65 440 m 1
 65 621 l 1
 618 621 l 1
 618 440 l 1
 65 440 l 1
EndSplineSet
Validated: 1
EndChar

StartChar: period
Encoding: 46 46 14
Width: 569
Flags: HW
LayerCount: 2
Fore
SplineSet
186 0 m 1
 186 205 l 1
 391 205 l 1
 391 0 l 1
 186 0 l 1
EndSplineSet
Validated: 1
EndChar

StartChar: slash
Encoding: 47 47 15
Width: 569
Flags: HW
LayerCount: 2
Fore
SplineSet
0 -25 m 1
 425 1491 l 1
 569 1491 l 1
 145 -25 l 1
 0 -25 l 1
EndSplineSet
Validated: 1
EndChar

StartChar: zero
Encoding: 48 48 16
Width: 1139
Flags: HW
LayerCount: 2
Fore
SplineSet
85 723 m 0
 85 896.333333333 102.833333333 1035.83333333 138.5 1141.5 c 128
 174.166666667 1247.16666667 227.166666667 1328.66666667 297.5 1386 c 128
 367.833333333 1443.33333333 456.333333333 1472 563 1472 c 0
 641.666666667 1472 710.666666667 1456.16666667 770 1424.5 c 128
 829.333333333 1392.83333333 878.333333333 1347.16666667 917 1287.5 c 128
 955.666666667 1227.83333333 986 1155.16666667 1008 1069.5 c 128
 1030 983.833333333 1041 868.333333333 1041 723 c 0
 1041 551 1023.33333333 412.166666667 988 306.5 c 128
 952.666666667 200.833333333 899.833333333 119.166666667 829.5 61.5 c 128
 759.166666667 3.83333333333 670.333333333 -25 563 -25 c 0
 421.666666667 -25 310.666666667 25.6666666667 230 127 c 0
 133.333333333 249 85 447.666666667 85 723 c 0
270 723 m 256
 270 482.333333333 298.166666667 322.166666667 354.5 242.5 c 128
 410.833333333 162.833333333 480.333333333 123 563 123 c 256
 645.666666667 123 715.166666667 163 771.5 243 c 128
 827.833333333 323 856 483 856 723 c 0
 856 964.333333333 827.833333333 1124.66666667 771.5 1204 c 128
 715.166666667 1283.33333333 645 1323 561 1323 c 0
 478.333333333 1323 412.333333333 1288 363 1218 c 0
 301 1128.66666667 270 963.666666667 270 723 c 256
EndSplineSet
Validated: 1
EndChar

StartChar: one
Encoding: 49 49 17
Width: 1139
Flags: HW
LayerCount: 2
Fore
SplineSet
763 0 m 1
 583 0 l 1
 583 1147 l 1
 539.666666667 1105.66666667 482.833333333 1064.33333333 412.5 1023 c 128
 342.166666667 981.666666667 279 950.666666667 223 930 c 1
 223 1104 l 1
 323.666666667 1151.33333333 411.666666667 1208.66666667 487 1276 c 128
 562.333333333 1343.33333333 615.666666667 1408.66666667 647 1472 c 1
 763 1472 l 1
 763 0 l 1
EndSplineSet
Validated: 1
EndChar

StartChar: two
Encoding: 50 50 18
Width: 1139
Flags: HW
LayerCount: 2
Fore
SplineSet
1031 173 m 1
 1031 0 l 1
 62 0 l 1
 61.8933333333 3.46666666667 61.84 6.92266666667 61.84 10.368 c 0
 61.84 49.9893333333 68.8933333333 88.2 83 125 c 0
 107.666666667 191 147.166666667 256 201.5 320 c 128
 255.833333333 384 334.333333333 458 437 542 c 0
 596.333333333 672.666666667 704 776.166666667 760 852.5 c 128
 816 928.833333333 844 1001 844 1069 c 0
 844 1140.33333333 818.5 1200.5 767.5 1249.5 c 128
 716.5 1298.5 650 1323 568 1323 c 0
 481.333333333 1323 412 1297 360 1245 c 128
 308 1193 281.666666667 1121 281 1029 c 1
 96 1048 l 1
 108.666666667 1186 156.333333333 1291.16666667 239 1363.5 c 128
 321.666666667 1435.83333333 432.666666667 1472 572 1472 c 0
 712.666666667 1472 824 1433 906 1355 c 128
 988 1277 1029 1180.33333333 1029 1065 c 0
 1029 1006.33333333 1017 948.666666667 993 892 c 128
 969 835.333333333 929.166666667 775.666666667 873.5 713 c 128
 817.833333333 650.333333333 725.333333333 564.333333333 596 455 c 0
 488 364.333333333 418.666666667 302.833333333 388 270.5 c 128
 357.333333333 238.166666667 332 205.666666667 312 173 c 1
 1031 173 l 1
EndSplineSet
Validated: 1
EndChar

StartChar: three
Encoding: 51 51 19
Width: 1139
Flags: HW
LayerCount: 2
Fore
SplineSet
86 387 m 1
 266 411 l 1
 286.666666667 309 321.833333333 235.5 371.5 190.5 c 128
 421.166666667 145.5 481.666666667 123 553 123 c 0
 637.666666667 123 709.166666667 152.333333333 767.5 211 c 128
 825.833333333 269.666666667 855 342.333333333 855 429 c 0
 855 511.666666667 828 579.833333333 774 633.5 c 128
 720 687.166666667 651.333333333 714 568 714 c 0
 534 714 491.666666667 707.333333333 441 694 c 1
 461 852 l 1
 473 850.666666667 482.666666667 850 490 850 c 0
 566.666666667 850 635.666666667 870 697 910 c 128
 758.333333333 950 789 1011.66666667 789 1095 c 0
 789 1161 766.666666667 1215.66666667 722 1259 c 128
 677.333333333 1302.33333333 619.666666667 1324 549 1324 c 0
 479 1324 420.666666667 1302 374 1258 c 128
 327.333333333 1214 297.333333333 1148 284 1060 c 1
 104 1092 l 1
 126 1212.66666667 176 1306.16666667 254 1372.5 c 128
 332 1438.83333333 429 1472 545 1472 c 0
 625 1472 698.666666667 1454.83333333 766 1420.5 c 128
 833.333333333 1386.16666667 884.833333333 1339.33333333 920.5 1280 c 128
 956.166666667 1220.66666667 974 1157.66666667 974 1091 c 0
 974 1027.66666667 957 970 923 918 c 128
 889 866 838.666666667 824.666666667 772 794 c 1
 858.666666667 774 926 732.5 974 669.5 c 128
 1022 606.5 1046 527.666666667 1046 433 c 0
 1046 305 999.333333333 196.5 906 107.5 c 128
 812.666666667 18.5 694.666666667 -26 552 -26 c 0
 423.333333333 -26 316.5 12.3333333333 231.5 89 c 128
 146.5 165.666666667 98 265 86 387 c 1
EndSplineSet
Validated: 1
EndChar

StartChar: four
Encoding: 52 52 20
Width: 1139
Flags: HW
LayerCount: 2
Fore
SplineSet
662 0 m 1
 662 351 l 1
 26 351 l 1
 26 516 l 1
 695 1466 l 1
 842 1466 l 1
 842 516 l 1
 1040 516 l 1
 1040 351 l 1
 842 351 l 1
 842 0 l 1
 662 0 l 1
662 516 m 1
 662 1177 l 1
 203 516 l 1
 662 516 l 1
EndSplineSet
Validated: 1
EndChar

StartChar: five
Encoding: 53 53 21
Width: 1139
Flags: HW
LayerCount: 2
Fore
SplineSet
85 384 m 1
 274 400 l 1
 288 308 320.5 238.833333333 371.5 192.5 c 128
 422.5 146.166666667 484 123 556 123 c 0
 642.666666667 123 716 155.666666667 776 221 c 128
 836 286.333333333 866 373 866 481 c 0
 866 583.666666667 837.166666667 664.666666667 779.5 724 c 128
 721.833333333 783.333333333 646.333333333 813 553 813 c 0
 495 813 442.666666667 799.833333333 396 773.5 c 128
 349.333333333 747.166666667 312.666666667 713 286 671 c 1
 117 693 l 1
 259 1446 l 1
 988 1446 l 1
 988 1274 l 1
 403 1274 l 1
 324 880 l 1
 412 941.333333333 504.333333333 972 601 972 c 0
 729 972 837 927.666666667 925 839 c 128
 1013 750.333333333 1057 636.333333333 1057 497 c 0
 1057 364.333333333 1018.33333333 249.666666667 941 153 c 0
 847 34.3333333333 718.666666667 -25 556 -25 c 0
 422.666666667 -25 313.833333333 12.3333333333 229.5 87 c 128
 145.166666667 161.666666667 97 260.666666667 85 384 c 1
EndSplineSet
Validated: 1
EndChar

StartChar: six
Encoding: 54 54 22
Width: 1139
Flags: HW
LayerCount: 2
Fore
SplineSet
1019 1107 m 1
 840 1093 l 1
 824 1163.66666667 801.333333333 1215 772 1247 c 0
 723.333333333 1298.33333333 663.333333333 1324 592 1324 c 0
 534.666666667 1324 484.333333333 1308 441 1276 c 0
 384.333333333 1234.66666667 339.666666667 1174.33333333 307 1095 c 128
 274.333333333 1015.66666667 257.333333333 902.666666667 256 756 c 1
 299.333333333 822 352.333333333 871 415 903 c 128
 477.666666667 935 543.333333333 951 612 951 c 0
 732 951 834.166666667 906.833333333 918.5 818.5 c 128
 1002.83333333 730.166666667 1045 616 1045 476 c 0
 1045 384 1025.16666667 298.5 985.5 219.5 c 128
 945.833333333 140.5 891.333333333 80 822 38 c 128
 752.666666667 -4 674 -25 586 -25 c 0
 436 -25 313.666666667 30.1666666667 219 140.5 c 128
 124.333333333 250.833333333 77 432.666666667 77 686 c 0
 77 969.333333333 129.333333333 1175.33333333 234 1304 c 0
 325.333333333 1416 448.333333333 1472 603 1472 c 0
 718.333333333 1472 812.833333333 1439.66666667 886.5 1375 c 128
 960.166666667 1310.33333333 1004.33333333 1221 1019 1107 c 1
284 475 m 0
 284 413 297.166666667 353.666666667 323.5 297 c 128
 349.833333333 240.333333333 386.666666667 197.166666667 434 167.5 c 128
 481.333333333 137.833333333 531 123 583 123 c 0
 659 123 724.333333333 153.666666667 779 215 c 128
 833.666666667 276.333333333 861 359.666666667 861 465 c 0
 861 566.333333333 834 646.166666667 780 704.5 c 128
 726 762.833333333 658 792 576 792 c 0
 494.666666667 792 425.666666667 762.833333333 369 704.5 c 128
 312.333333333 646.166666667 284 569.666666667 284 475 c 0
EndSplineSet
Validated: 1
EndChar

StartChar: seven
Encoding: 55 55 23
Width: 1139
Flags: HW
LayerCount: 2
Fore
SplineSet
97 1274 m 1
 97 1447 l 1
 1046 1447 l 1
 1046 1307 l 1
 952.666666667 1207.66666667 860.166666667 1075.66666667 768.5 911 c 128
 676.833333333 746.333333333 606 577 556 403 c 0
 520 280.333333333 497 146 487 0 c 1
 302 0 l 1
 304 115.333333333 326.666666667 254.666666667 370 418 c 128
 413.333333333 581.333333333 475.5 738.833333333 556.5 890.5 c 128
 637.5 1042.16666667 723.666666667 1170 815 1274 c 1
 97 1274 l 1
EndSplineSet
Validated: 1
EndChar

StartChar: eight
Encoding: 56 56 24
Width: 1139
Flags: HW
LayerCount: 2
Fore
SplineSet
362 795 m 1
 287.333333333 822.333333333 232 861.333333333 196 912 c 128
 160 962.666666667 142 1023.33333333 142 1094 c 0
 142 1200.66666667 180.333333333 1290.33333333 257 1363 c 128
 333.666666667 1435.66666667 435.666666667 1472 563 1472 c 0
 691 1472 794 1434.83333333 872 1360.5 c 128
 950 1286.16666667 989 1195.66666667 989 1089 c 0
 989 1021 971.166666667 961.833333333 935.5 911.5 c 128
 899.833333333 861.166666667 845.666666667 822.333333333 773 795 c 1
 863 765.666666667 931.5 718.333333333 978.5 653 c 128
 1025.5 587.666666667 1049 509.666666667 1049 419 c 0
 1049 293.666666667 1004.66666667 188.333333333 916 103 c 128
 827.333333333 17.6666666667 710.666666667 -25 566 -25 c 256
 421.333333333 -25 304.666666667 17.8333333333 216 103.5 c 128
 127.333333333 189.166666667 83 296 83 424 c 0
 83 519.333333333 107.166666667 599.166666667 155.5 663.5 c 128
 203.833333333 727.833333333 272.666666667 771.666666667 362 795 c 1
326 1100 m 0
 326 1030.66666667 348.333333333 974 393 930 c 128
 437.666666667 886 495.666666667 864 567 864 c 0
 636.333333333 864 693.166666667 885.833333333 737.5 929.5 c 128
 781.833333333 973.166666667 804 1026.66666667 804 1090 c 0
 804 1156 781.166666667 1211.5 735.5 1256.5 c 128
 689.833333333 1301.5 633 1324 565 1324 c 0
 496.333333333 1324 439.333333333 1302 394 1258 c 128
 348.666666667 1214 326 1161.33333333 326 1100 c 0
268 423 m 0
 268 371.666666667 280.166666667 322 304.5 274 c 128
 328.833333333 226 365 188.833333333 413 162.5 c 128
 461 136.166666667 512.666666667 123 568 123 c 0
 654 123 725 150.666666667 781 206 c 128
 837 261.333333333 865 331.666666667 865 417 c 0
 865 503.666666667 836.166666667 575.333333333 778.5 632 c 128
 720.833333333 688.666666667 648.666666667 717 562 717 c 0
 477.333333333 717 407.166666667 689 351.5 633 c 128
 295.833333333 577 268 507 268 423 c 0
EndSplineSet
Validated: 1
EndChar

StartChar: nine
Encoding: 57 57 25
Width: 1139
Flags: HW
LayerCount: 2
Fore
SplineSet
112 339 m 1
 285 355 l 1
 299.666666667 273.666666667 327.666666667 214.666666667 369 178 c 128
 410.333333333 141.333333333 463.333333333 123 528 123 c 0
 583.333333333 123 631.833333333 135.666666667 673.5 161 c 128
 715.166666667 186.333333333 749.333333333 220.166666667 776 262.5 c 128
 802.666666667 304.833333333 825 362 843 434 c 128
 861 506 870 579.333333333 870 654 c 0
 870 662 869.666666667 674 869 690 c 1
 833 632.666666667 783.833333333 586.166666667 721.5 550.5 c 128
 659.166666667 514.833333333 591.666666667 497 519 497 c 0
 397.666666667 497 295 541 211 629 c 128
 127 717 85 833 85 977 c 0
 85 1125.66666667 128.833333333 1245.33333333 216.5 1336 c 128
 304.166666667 1426.66666667 414 1472 546 1472 c 0
 641.333333333 1472 728.5 1446.33333333 807.5 1395 c 128
 886.5 1343.66666667 946.5 1270.5 987.5 1175.5 c 128
 1028.5 1080.5 1049 943 1049 763 c 0
 1049 575.666666667 1028.66666667 426.5 988 315.5 c 128
 947.333333333 204.5 886.833333333 120 806.5 62 c 128
 726.166666667 4 632 -25 524 -25 c 0
 409.333333333 -25 315.666666667 6.83333333333 243 70.5 c 128
 170.333333333 134.166666667 126.666666667 223.666666667 112 339 c 1
849 986 m 256
 849 1089.33333333 821.5 1171.33333333 766.5 1232 c 128
 711.5 1292.66666667 645.333333333 1323 568 1323 c 0
 488 1323 418.333333333 1290.33333333 359 1225 c 128
 299.666666667 1159.66666667 270 1075 270 971 c 0
 270 877.666666667 298.166666667 801.833333333 354.5 743.5 c 128
 410.833333333 685.166666667 480.333333333 656 563 656 c 0
 646.333333333 656 714.833333333 685.166666667 768.5 743.5 c 128
 822.166666667 801.833333333 849 882.666666667 849 986 c 256
EndSplineSet
Validated: 1
EndChar

StartChar: colon
Encoding: 58 58 26
Width: 569
Flags: HW
LayerCount: 2
Fore
SplineSet
185 857 m 1
 185 1062 l 1
 390 1062 l 1
 390 857 l 1
 185 857 l 1
185 0 m 1
 185 205 l 1
 390 205 l 1
 390 0 l 1
 185 0 l 1
EndSplineSet
Validated: 1
EndChar

StartChar: semicolon
Encoding: 59 59 27
Width: 569
Flags: HW
LayerCount: 2
Fore
SplineSet
182 857 m 1
 182 1062 l 1
 387 1062 l 1
 387 857 l 1
 182 857 l 1
182 0 m 1
 182 205 l 1
 387 205 l 1
 387 0 l 2
 387 -75.3333333333 373.666666667 -136.166666667 347 -182.5 c 128
 320.333333333 -228.833333333 278 -264.666666667 220 -290 c 1
 170 -213 l 1
 208 -196.333333333 236 -171.833333333 254 -139.5 c 128
 272 -107.166666667 282 -60.6666666667 284 0 c 1
 182 0 l 1
EndSplineSet
Validated: 1
EndChar

StartChar: less
Encoding: 60 60 28
Width: 1196
Flags: HW
LayerCount: 2
Fore
SplineSet
112 641 m 1
 112 809 l 1
 1083 1219 l 1
 1083 1040 l 1
 313 724 l 1
 1083 405 l 1
 1083 226 l 1
 112 641 l 1
EndSplineSet
Validated: 1
EndChar

StartChar: equal
Encoding: 61 61 29
Width: 1196
Flags: HW
LayerCount: 2
Fore
SplineSet
1082 862 m 1
 114 862 l 1
 114 1030 l 1
 1082 1030 l 1
 1082 862 l 1
1082 417 m 1
 114 417 l 1
 114 585 l 1
 1082 585 l 1
 1082 417 l 1
EndSplineSet
Validated: 1
EndChar

StartChar: greater
Encoding: 62 62 30
Width: 1196
Flags: HW
LayerCount: 2
Fore
SplineSet
1083 641 m 1
 112 226 l 1
 112 405 l 1
 881 724 l 1
 112 1040 l 1
 112 1219 l 1
 1083 809 l 1
 1083 641 l 1
EndSplineSet
Validated: 1
EndChar

StartChar: question
Encoding: 63 63 31
Width: 1139
Flags: HW
LayerCount: 2
Fore
SplineSet
472 361 m 1
 471.333333333 385 471 403 471 415 c 0
 471 485.666666667 481 546.666666667 501 598 c 0
 515.666666667 636.666666667 539.333333333 675.666666667 572 715 c 0
 596 743.666666667 639.166666667 785.5 701.5 840.5 c 128
 763.833333333 895.5 804.333333333 939.333333333 823 972 c 128
 841.666666667 1004.66666667 851 1040.33333333 851 1079 c 0
 851 1149 823.666666667 1210.5 769 1263.5 c 128
 714.333333333 1316.5 647.333333333 1343 568 1343 c 0
 491.333333333 1343 427.333333333 1319 376 1271 c 128
 324.666666667 1223 291 1148 275 1046 c 1
 90 1068 l 1
 106.666666667 1204.66666667 156.166666667 1309.33333333 238.5 1382 c 128
 320.833333333 1454.66666667 429.666666667 1491 565 1491 c 0
 708.333333333 1491 822.666666667 1452 908 1374 c 128
 993.333333333 1296 1036 1201.66666667 1036 1091 c 0
 1036 1027 1021 968 991 914 c 128
 961 860 902.333333333 794.333333333 815 717 c 0
 756.333333333 665 718 626.666666667 700 602 c 128
 682 577.333333333 668.666666667 549 660 517 c 128
 651.333333333 485 646.333333333 433 645 361 c 1
 472 361 l 1
461 0 m 1
 461 205 l 1
 666 205 l 1
 666 0 l 1
 461 0 l 1
EndSplineSet
Validated: 1
EndChar

StartChar: at
Encoding: 64 64 32
Width: 1500
Flags: HW
LayerCount: 2
Fore
SplineSet
233.671875 1361.75 m 1
 231.921875 763 l 1
 1430.671875 763 l 1
 1430.671875 598.75 l 1
 233.671875 598.75 l 1
 235.421875 164.25 l 1
 313.526367188 197.916992188 396.942382812 221.583007812 485.671875 235.25 c 0
 592.276367188 250.916992188 708.359375 258.916992188 833.921875 259.25 c 0
 960.359375 258.916992188 1076.44238281 250.916992188 1182.171875 235.25 c 0
 1271.18164062 222.060546875 1354.52636719 197.916992188 1432.421875 164.25 c 1
 1432.421875 0 l 1
 1354.52636719 33.6669921875 1271.18164062 57.810546875 1182.171875 71 c 0
 1076.44238281 86.6669921875 960.359375 94.6669921875 833.921875 95 c 0
 708.359375 94.6669921875 592.276367188 86.6669921875 485.671875 71 c 0
 396.942382812 57.3330078125 313.526367188 33.6669921875 235.421875 0 c 1
 69.328125 -0.25 l 1
 67.578125 1361.5 l 1
 233.671875 1361.75 l 1
EndSplineSet
EndChar

StartChar: A
Encoding: 65 65 33
Width: 1500
Flags: HW
LayerCount: 2
Fore
SplineSet
823.462890625 0 m 17
 675.637695312 0 l 1
 635.212565104 34 592.3125 57.6666666667 546.9375 71 c 0
 492.3125 87 432.612630208 95 367.837890625 95 c 0
 303.279296875 95 243.579101563 87 188.737304688 71 c 0
 142.912434896 57.6666666667 100.012369792 34 60.037109375 0 c 1
 60.037109375 164.25 l 1
 100.012369792 198.083333333 142.912434896 221.75 188.737304688 235.25 c 0
 243.579101563 251.083333333 303.279296875 259.083333333 367.837890625 259.25 c 0
 432.612630208 259.083333333 492.3125 251.083333333 546.9375 235.25 c 0
 592.3125 221.75 635.212565104 198.083333333 675.637695312 164.25 c 0
 676.537109375 1361.75 l 1
 824.362304688 1361.75 l 1
 864.787434896 1327.91666667 907.6875 1304.25 953.0625 1290.75 c 0
 1007.6875 1274.91666667 1067.38736979 1266.91666667 1132.16210938 1266.75 c 0
 1196.72070313 1266.91666667 1256.42089844 1274.91666667 1311.26269531 1290.75 c 0
 1357.0875651 1304.25 1399.98763021 1327.91666667 1439.96289062 1361.75 c 1
 1439.96289062 1197.5 l 1
 1399.98763021 1163.83333333 1357.0875651 1140.16666667 1311.26269531 1126.5 c 0
 1256.42089844 1110.83333333 1196.72070313 1102.83333333 1132.16210938 1102.5 c 0
 1064.72070313 1102.83333333 1005.02083333 1110.83333333 953.0625 1126.5 c 0
 907.6875 1140.16666667 864.787434896 1163.83333333 824.362304688 1197.5 c 0
 823.462890625 763 l 1
 1439.0625 763 l 1
 1439.0625 598.75 l 1
 822.5625 598.75 l 9
 823.462890625 0 l 17
EndSplineSet
Validated: 1
EndChar

StartChar: B
Encoding: 66 66 34
Width: 1500
Flags: HW
LayerCount: 2
Fore
SplineSet
823.462890625 0 m 1
 675.637695312 0 l 1
 635.212565104 34 592.3125 57.6666666667 546.9375 71 c 0
 492.3125 87 432.612630208 95 367.837890625 95 c 0
 303.279296875 95 243.579101563 87 188.737304688 71 c 0
 142.912434896 57.6666666667 100.012369792 34 60.037109375 0 c 1
 60.037109375 164.25 l 1
 100.012369792 198.083333333 142.912434896 221.75 188.737304688 235.25 c 0
 243.579101563 251.083333333 303.279296875 259.083333333 367.837890625 259.25 c 0
 432.612630208 259.083333333 492.3125 251.083333333 546.9375 235.25 c 0
 592.3125 221.75 635.212565104 198.083333333 675.637695312 164.25 c 0
 676.537109375 1361.75 l 1
 824.362304688 1361.75 l 1
 864.787434896 1327.91666667 907.6875 1304.25 953.0625 1290.75 c 0
 1007.6875 1274.91666667 1067.38736979 1266.91666667 1132.16210938 1266.75 c 0
 1196.72070313 1266.91666667 1256.42089844 1274.91666667 1311.26269531 1290.75 c 0
 1357.0875651 1304.25 1399.98763021 1327.91666667 1439.96289062 1361.75 c 1
 1439.96289062 1197.5 l 1
 1399.98763021 1163.83333333 1357.0875651 1140.16666667 1311.26269531 1126.5 c 0
 1256.42089844 1110.83333333 1196.72070313 1102.83333333 1132.16210938 1102.5 c 0
 1064.72070313 1102.83333333 1005.02083333 1110.83333333 953.0625 1126.5 c 0
 907.6875 1140.16666667 864.787434896 1163.83333333 824.362304688 1197.5 c 0
 823.462890625 0 l 1
EndSplineSet
Validated: 1
EndChar

StartChar: C
Encoding: 67 67 35
Width: 1500
Flags: HW
LayerCount: 2
Fore
SplineSet
1266.328125 1361.75 m 1
 1432.421875 1361.5 l 1
 1430.671875 -0.25 l 1
 1264.578125 0 l 1
 1186.47363281 33.6669921875 1103.05761719 57.3330078125 1014.328125 71 c 0
 907.723632812 86.6669921875 791.640625 94.6669921875 666.078125 95 c 0
 539.640625 94.6669921875 423.557617188 86.6669921875 317.828125 71 c 0
 228.818359375 57.810546875 145.473632812 33.6669921875 67.578125 0 c 1
 67.578125 164.25 l 1
 145.473632812 197.916992188 228.818359375 222.060546875 317.828125 235.25 c 0
 423.557617188 250.916992188 539.640625 258.916992188 666.078125 259.25 c 0
 791.640625 258.916992188 907.723632812 250.916992188 1014.328125 235.25 c 0
 1103.05761719 221.583007812 1186.47363281 197.916992188 1264.578125 164.25 c 1
 1266.328125 598.75 l 1
 69.328125 598.75 l 1
 69.328125 763 l 1
 1268.078125 763 l 1
 1266.328125 1361.75 l 1
EndSplineSet
EndChar

StartChar: D
Encoding: 68 68 36
Width: 1500
Flags: HW
LayerCount: 2
Fore
SplineSet
824.362304688 1361.75 m 1
 823.462890625 164.25 l 0
 863.820963542 198.083333333 906.720703125 221.75 952.162109375 235.25 c 0
 1006.72070312 251.083333333 1066.42089844 259.083333333 1131.26269531 259.25 c 0
 1195.75423177 259.083333333 1255.45410156 251.083333333 1310.36230469 235.25 c 0
 1356.12076823 221.75 1399.02083333 198.083333333 1439.0625 164.25 c 1
 1439.0625 0 l 1
 1399.02083333 34 1356.12076823 57.6666666667 1310.36230469 71 c 0
 1255.45410156 87 1195.75423177 95 1131.26269531 95 c 0
 1066.42089844 95 1006.72070312 87 952.162109375 71 c 0
 906.720703125 57.6666666667 863.820963542 34 823.462890625 0 c 1
 675.637695312 0 l 1
 635.212565104 34 592.3125 57.6666666667 546.9375 71 c 0
 492.3125 87 432.612630208 95 367.837890625 95 c 0
 303.279296875 95 243.579101563 87 188.737304688 71 c 0
 142.912434896 57.6666666667 100.012369792 34 60.037109375 0 c 1
 60.037109375 164.25 l 1
 100.012369792 198.083333333 142.912434896 221.75 188.737304688 235.25 c 0
 243.579101563 251.083333333 303.279296875 259.083333333 367.837890625 259.25 c 0
 432.612630208 259.083333333 492.3125 251.083333333 546.9375 235.25 c 0
 592.3125 221.75 635.212565104 198.083333333 675.637695312 164.25 c 0
 676.537109375 598.75 l 1
 60.9375 598.75 l 1
 60.9375 763 l 1
 677.4375 763 l 9
 676.537109375 1361.75 l 1
 824.362304688 1361.75 l 1
EndSplineSet
Validated: 1
EndChar

StartChar: E
Encoding: 69 69 37
Width: 1500
Flags: HW
LayerCount: 2
Fore
SplineSet
824.362304688 1361.75 m 9
 823.462890625 763 l 17
 1439.0625 763 l 1
 1439.0625 598.75 l 1
 822.5625 598.75 l 1
 823.462890625 164.25 l 0
 863.662760416 198.083333333 906.5625 221.75 952.162109375 235.25 c 0
 1006.76236979 251.083333333 1066.4625651 259.083333333 1131.26269531 259.25 c 0
 1196.06282552 259.083333333 1255.76269531 251.083333333 1310.36230469 235.25 c 0
 1355.9625651 221.75 1398.86263021 198.083333333 1439.0625 164.25 c 1
 1439.0625 0 l 1
 1398.86263021 33.8333333333 1355.9625651 57.5 1310.36230469 71 c 0
 1255.76269531 86.8333333333 1196.06282552 94.8333333333 1131.26269531 95 c 0
 1066.4625651 95 1006.76236979 87 952.162109375 71 c 0
 906.5625 57.6666666667 863.662760416 34 823.462890625 0 c 1
 675.637695312 0 l 1
 635.437825521 33.8333333333 592.537760417 57.5 546.9375 71 c 0
 492.337239583 86.8333333333 432.637369792 94.8333333333 367.837890625 95 c 0
 303.037760416 94.8333333333 243.337565104 86.8333333333 188.737304688 71 c 0
 143.137695313 57.5 100.237630208 33.8333333333 60.037109375 0 c 1
 60.037109375 164.25 l 1
 100.237630208 198.083333333 143.137695313 221.75 188.737304688 235.25 c 0
 243.337565104 251.083333333 303.037760416 259.083333333 367.837890625 259.25 c 0
 432.637369792 259.083333333 492.337239583 251.083333333 546.9375 235.25 c 0
 592.537760417 221.75 635.437825521 198.083333333 675.637695312 164.25 c 0
 676.537109375 598.75 l 1
 60.9375 598.75 l 1
 60.9375 763 l 1
 677.4375 763 l 9
 676.537109375 1361.75 l 17
 824.362304688 1361.75 l 9
EndSplineSet
Validated: 1
EndChar

StartChar: F
Encoding: 70 70 38
Width: 1500
Flags: HW
LayerCount: 2
Fore
SplineSet
676.537109375 1361.75 m 17
 824.362304688 1361.75 l 1
 864.562174479 1327.91666667 907.462239583 1304.25 953.0625 1290.75 c 0
 1007.66276041 1274.91666667 1067.36263021 1266.91666667 1132.16210938 1266.75 c 0
 1196.96223959 1266.91666667 1256.6624349 1274.91666667 1311.26269531 1290.75 c 0
 1356.86230469 1304.25 1399.76236979 1327.91666667 1439.96289062 1361.75 c 1
 1439.96289062 1197.5 l 1
 1399.76236979 1163.66666667 1356.86230469 1140 1311.26269531 1126.5 c 0
 1256.6624349 1110.66666667 1196.96223959 1102.66666667 1132.16210938 1102.5 c 0
 1067.36263021 1102.66666667 1007.66276041 1110.66666667 953.0625 1126.5 c 0
 907.462239583 1140 864.562174479 1163.66666667 824.362304688 1197.5 c 0
 823.462890625 763 l 1
 1439.0625 763 l 1
 1439.0625 598.75 l 1
 822.5625 598.75 l 1
 823.462890625 164.25 l 0
 863.662760416 198.083333333 906.5625 221.75 952.162109375 235.25 c 0
 1006.76236979 251.083333333 1066.4625651 259.083333333 1131.26269531 259.25 c 0
 1196.06282552 259.083333333 1255.76269531 251.083333333 1310.36230469 235.25 c 0
 1355.9625651 221.75 1398.86263021 198.083333333 1439.0625 164.25 c 1
 1439.0625 0 l 1
 1398.86263021 33.8333333333 1355.9625651 57.5 1310.36230469 71 c 0
 1255.76269531 86.8333333333 1196.06282552 94.8333333333 1131.26269531 95 c 0
 1066.4625651 95 1006.76236979 87 952.162109375 71 c 0
 906.5625 57.6666666667 863.662760416 34 823.462890625 0 c 1
 675.637695312 0 l 1
 635.437825521 33.8333333333 592.537760417 57.5 546.9375 71 c 0
 492.337239583 86.8333333333 432.637369792 94.8333333333 367.837890625 95 c 0
 303.037760416 94.8333333333 243.337565104 86.8333333333 188.737304688 71 c 0
 143.137695313 57.5 100.237630208 33.8333333333 60.037109375 0 c 1
 60.037109375 164.25 l 1
 100.237630208 198.083333333 143.137695313 221.75 188.737304688 235.25 c 0
 243.337565104 251.083333333 303.037760416 259.083333333 367.837890625 259.25 c 0
 432.637369792 259.083333333 492.337239583 251.083333333 546.9375 235.25 c 0
 592.537760417 221.75 635.437825521 198.083333333 675.637695312 164.25 c 0
 676.537109375 598.75 l 1
 60.9375 598.75 l 1
 60.9375 763 l 1
 677.4375 763 l 9
 676.537109375 1361.75 l 17
EndSplineSet
Validated: 1
EndChar

StartChar: G
Encoding: 71 71 39
Width: 1500
Flags: HW
LayerCount: 2
Fore
SplineSet
823.462890625 0 m 17
 675.637695312 0 l 1
 635.437825521 33.8333333333 592.537760417 57.5 546.9375 71 c 0
 492.337239583 86.8333333333 432.637369792 94.8333333333 367.837890625 95 c 0
 303.037760416 94.8333333333 243.337565104 86.8333333333 188.737304688 71 c 0
 143.137695313 57.5 100.237630208 33.8333333333 60.037109375 0 c 1
 60.037109375 164.25 l 1
 100.237630208 198.083333333 143.137695313 221.75 188.737304688 235.25 c 0
 243.337565104 251.083333333 303.037760416 259.083333333 367.837890625 259.25 c 0
 432.637369792 259.083333333 492.337239583 251.083333333 546.9375 235.25 c 0
 592.537760417 221.75 635.437825521 198.083333333 675.637695312 164.25 c 0
 676.537109375 598.75 l 1
 60.9375 598.75 l 1
 60.9375 763 l 1
 677.4375 763 l 9
 676.537109375 1361.75 l 17
 824.362304688 1361.75 l 1
 864.562174479 1327.91666667 907.462239583 1304.25 953.0625 1290.75 c 0
 1007.66276041 1274.91666667 1067.36263021 1266.91666667 1132.16210938 1266.75 c 0
 1196.96223959 1266.91666667 1256.6624349 1274.91666667 1311.26269531 1290.75 c 0
 1356.86230469 1304.25 1399.76236979 1327.91666667 1439.96289062 1361.75 c 1
 1439.96289062 1197.5 l 1
 1399.76236979 1163.66666667 1356.86230469 1140 1311.26269531 1126.5 c 0
 1256.6624349 1110.66666667 1196.96223959 1102.66666667 1132.16210938 1102.5 c 0
 1067.36263021 1102.66666667 1007.66276041 1110.66666667 953.0625 1126.5 c 0
 907.462239583 1140 864.562174479 1163.66666667 824.362304688 1197.5 c 0
 823.462890625 763 l 1
 1439.0625 763 l 1
 1439.0625 598.75 l 1
 822.5625 598.75 l 9
 823.462890625 0 l 17
EndSplineSet
Validated: 1
EndChar

StartChar: H
Encoding: 72 72 40
Width: 1500
Flags: HW
LayerCount: 2
Fore
SplineSet
823.462890625 0 m 1
 675.637695312 0 l 1
 635.212565104 34 592.3125 57.6666666667 546.9375 71 c 0
 492.3125 87 432.612630208 95 367.837890625 95 c 0
 303.279296875 95 243.579101563 87 188.737304688 71 c 0
 142.912434896 57.6666666667 100.012369792 34 60.037109375 0 c 1
 60.037109375 164.25 l 1
 100.012369792 198.083333333 142.912434896 221.75 188.737304688 235.25 c 0
 243.579101563 251.083333333 303.279296875 259.083333333 367.837890625 259.25 c 0
 432.612630208 259.083333333 492.3125 251.083333333 546.9375 235.25 c 0
 592.3125 221.75 635.212565104 198.083333333 675.637695312 164.25 c 0
 676.537109375 598.75 l 1
 60.9375 598.75 l 1
 60.9375 763 l 1
 677.4375 763 l 9
 676.537109375 1361.75 l 17
 824.362304688 1361.75 l 1
 864.787434896 1327.91666667 907.6875 1304.25 953.0625 1290.75 c 0
 1007.6875 1274.91666667 1067.38736979 1266.91666667 1132.16210938 1266.75 c 0
 1196.72070313 1266.91666667 1256.42089844 1274.91666667 1311.26269531 1290.75 c 0
 1357.0875651 1304.25 1399.98763021 1327.91666667 1439.96289062 1361.75 c 1
 1439.96289062 1197.5 l 1
 1399.98763021 1163.83333333 1357.0875651 1140.16666667 1311.26269531 1126.5 c 0
 1256.42089844 1110.83333333 1196.72070313 1102.83333333 1132.16210938 1102.5 c 0
 1064.72070313 1102.83333333 1005.02083333 1110.83333333 953.0625 1126.5 c 0
 907.6875 1140.16666667 864.787434896 1163.83333333 824.362304688 1197.5 c 0
 823.462890625 0 l 1
EndSplineSet
Validated: 1
EndChar

StartChar: I
Encoding: 73 73 41
Width: 1500
Flags: HW
LayerCount: 2
Fore
SplineSet
1266.328125 1197.5 m 1
 1188.22363281 1163.83300781 1104.80761719 1140.16699219 1016.078125 1126.5 c 0
 909.473632812 1110.83300781 793.390625 1102.83300781 667.828125 1102.5 c 0
 541.390625 1102.83300781 425.307617188 1110.83300781 319.578125 1126.5 c 0
 230.568359375 1139.68945312 147.223632812 1163.83300781 69.328125 1197.5 c 1
 69.328125 1361.75 l 1
 147.223632812 1328.08300781 230.568359375 1303.93945312 319.578125 1290.75 c 0
 425.307617188 1275.08300781 541.390625 1267.08300781 667.828125 1266.75 c 0
 793.390625 1267.08300781 909.473632812 1275.08300781 1016.078125 1290.75 c 0
 1104.80761719 1304.41699219 1188.22363281 1328.08300781 1266.328125 1361.75 c 1
 1432.421875 1361.5 l 1
 1430.671875 -0.25 l 1
 1264.578125 0 l 1
 1186.47363281 33.6669921875 1103.05761719 57.3330078125 1014.328125 71 c 0
 907.723632812 86.6669921875 791.640625 94.6669921875 666.078125 95 c 0
 539.640625 94.6669921875 423.557617188 86.6669921875 317.828125 71 c 0
 228.818359375 57.810546875 145.473632812 33.6669921875 67.578125 0 c 1
 67.578125 164.25 l 1
 145.473632812 197.916992188 228.818359375 222.060546875 317.828125 235.25 c 0
 423.557617188 250.916992188 539.640625 258.916992188 666.078125 259.25 c 0
 791.640625 258.916992188 907.723632812 250.916992188 1014.328125 235.25 c 0
 1103.05761719 221.583007812 1186.47363281 197.916992188 1264.578125 164.25 c 1
 1266.328125 598.75 l 1
 69.328125 598.75 l 1
 69.328125 763 l 1
 1268.078125 763 l 1
 1266.328125 1197.5 l 1
EndSplineSet
EndChar

StartChar: J
Encoding: 74 74 42
Width: 1500
Flags: HW
LayerCount: 2
Fore
SplineSet
823.462890625 1361.75 m 1
 824.362304688 164.25 l 0
 864.787434896 198.083333333 907.6875 221.75 953.0625 235.25 c 0
 1007.6875 251.083333333 1067.38736979 259.083333333 1132.16210938 259.25 c 0
 1196.72070313 259.083333333 1256.42089844 251.083333333 1311.26269531 235.25 c 0
 1357.0875651 221.75 1399.98763021 198.083333333 1439.96289062 164.25 c 1
 1439.96289062 0 l 1
 1399.98763021 34 1357.0875651 57.6666666667 1311.26269531 71 c 0
 1256.42089844 87 1196.72070313 95 1132.16210938 95 c 0
 1067.38736979 95 1007.6875 87 953.0625 71 c 0
 907.6875 57.6666666667 864.787434896 34 824.362304688 0 c 1
 676.537109375 0 l 1
 636.179036458 34 593.279296875 57.6666666667 547.837890625 71 c 0
 493.279296875 87 433.579101563 95 368.737304688 95 c 0
 304.245768229 95 244.545898437 87 189.637695312 71 c 0
 143.879231771 57.6666666667 100.979166667 34 60.9375 0 c 1
 60.9375 164.25 l 1
 100.979166667 198.083333333 143.879231771 221.75 189.637695312 235.25 c 0
 244.545898437 251.083333333 304.245768229 259.083333333 368.737304688 259.25 c 0
 433.579101563 259.083333333 493.279296875 251.083333333 547.837890625 235.25 c 0
 593.279296875 221.75 636.179036458 198.083333333 676.537109375 164.25 c 0
 677.4375 598.75 l 1
 60.9375 598.75 l 1
 60.9375 763 l 1
 676.537109375 763 l 1
 675.637695312 1197.5 l 0
 635.212565104 1163.83333333 592.3125 1140.16666667 546.9375 1126.5 c 0
 494.979166667 1110.83333333 435.279296875 1102.83333333 367.837890625 1102.5 c 0
 303.279296875 1102.83333333 243.579101563 1110.83333333 188.737304688 1126.5 c 0
 142.912434896 1140.16666667 100.012369792 1163.83333333 60.037109375 1197.5 c 1
 60.037109375 1361.75 l 1
 100.012369792 1327.91666667 142.912434896 1304.25 188.737304688 1290.75 c 0
 243.579101563 1274.91666667 303.279296875 1266.91666667 367.837890625 1266.75 c 0
 432.612630208 1266.91666667 492.3125 1274.91666667 546.9375 1290.75 c 0
 592.3125 1304.25 635.212565104 1327.91666667 675.637695312 1361.75 c 1
 823.462890625 1361.75 l 1
EndSplineSet
Validated: 1
EndChar

StartChar: K
Encoding: 75 75 43
Width: 1500
Flags: HW
LayerCount: 2
Fore
SplineSet
823.462890625 1361.75 m 9
 822.5625 763 l 17
 1439.0625 763 l 1
 1439.0625 598.75 l 1
 823.462890625 598.75 l 1
 824.362304688 164.25 l 0
 864.562174479 198.083333333 907.462239583 221.75 953.0625 235.25 c 0
 1007.66276041 251.083333333 1067.36263021 259.083333333 1132.16210938 259.25 c 0
 1196.96223959 259.083333333 1256.6624349 251.083333333 1311.26269531 235.25 c 0
 1356.86230469 221.75 1399.76236979 198.083333333 1439.96289062 164.25 c 1
 1439.96289062 0 l 1
 1399.76236979 33.8333333333 1356.86230469 57.5 1311.26269531 71 c 0
 1256.6624349 86.8333333333 1196.96223959 94.8333333333 1132.16210938 95 c 0
 1067.36263021 94.8333333333 1007.66276041 86.8333333333 953.0625 71 c 0
 907.462239583 57.5 864.562174479 33.8333333333 824.362304688 0 c 1
 676.537109375 0 l 1
 636.337239584 34 593.4375 57.6666666667 547.837890625 71 c 0
 493.237630208 87 433.537434896 95 368.737304688 95 c 0
 303.937174479 94.8333333333 244.237304687 86.8333333333 189.637695312 71 c 0
 144.037434896 57.5 101.137369792 33.8333333333 60.9375 0 c 1
 60.9375 164.25 l 1
 101.137369792 198.083333333 144.037434896 221.75 189.637695312 235.25 c 0
 244.237304687 251.083333333 303.937174479 259.083333333 368.737304688 259.25 c 0
 433.537434896 259.083333333 493.237630208 251.083333333 547.837890625 235.25 c 0
 593.4375 221.75 636.337239584 198.083333333 676.537109375 164.25 c 0
 677.4375 598.75 l 1
 60.9375 598.75 l 1
 60.9375 763 l 1
 676.537109375 763 l 1
 675.637695312 1197.5 l 0
 635.437825521 1163.66666667 592.537760417 1140 546.9375 1126.5 c 0
 492.337239583 1110.66666667 432.637369792 1102.66666667 367.837890625 1102.5 c 0
 303.037760416 1102.66666667 243.337565104 1110.66666667 188.737304688 1126.5 c 0
 143.137695313 1140 100.237630208 1163.66666667 60.037109375 1197.5 c 1
 60.037109375 1361.75 l 1
 100.237630208 1327.91666667 143.137695313 1304.25 188.737304688 1290.75 c 0
 243.337565104 1274.91666667 303.037760416 1266.91666667 367.837890625 1266.75 c 0
 432.637369792 1266.91666667 492.337239583 1274.91666667 546.9375 1290.75 c 0
 592.537760417 1304.25 635.437825521 1327.91666667 675.637695312 1361.75 c 1
 823.462890625 1361.75 l 9
EndSplineSet
Validated: 1
EndChar

StartChar: L
Encoding: 76 76 44
Width: 1500
Flags: HW
LayerCount: 2
Fore
SplineSet
1439.0625 763 m 1
 1439.0625 598.75 l 1
 822.5625 598.75 l 1
 823.462890625 164.25 l 0
 863.662760416 198.083333333 906.5625 221.75 952.162109375 235.25 c 0
 1006.76236979 251.083333333 1066.4625651 259.083333333 1131.26269531 259.25 c 0
 1196.06282552 259.083333333 1255.76269531 251.083333333 1310.36230469 235.25 c 0
 1355.9625651 221.75 1398.86263021 198.083333333 1439.0625 164.25 c 1
 1439.0625 0 l 1
 1398.86263021 33.8333333333 1355.9625651 57.5 1310.36230469 71 c 0
 1255.76269531 86.8333333333 1196.06282552 94.8333333333 1131.26269531 95 c 0
 1066.4625651 95 1006.76236979 87 952.162109375 71 c 0
 906.5625 57.6666666667 863.662760416 34 823.462890625 0 c 1
 675.637695312 0 l 1
 635.437825521 33.8333333333 592.537760417 57.5 546.9375 71 c 0
 492.337239583 86.8333333333 432.637369792 94.8333333333 367.837890625 95 c 0
 303.037760416 94.8333333333 243.337565104 86.8333333333 188.737304688 71 c 0
 143.137695313 57.5 100.237630208 33.8333333333 60.037109375 0 c 1
 60.037109375 164.25 l 1
 100.237630208 198.083333333 143.137695313 221.75 188.737304688 235.25 c 0
 243.337565104 251.083333333 303.037760416 259.083333333 367.837890625 259.25 c 0
 432.637369792 259.083333333 492.337239583 251.083333333 546.9375 235.25 c 0
 592.537760417 221.75 635.437825521 198.083333333 675.637695312 164.25 c 0
 676.537109375 598.75 l 1
 60.9375 598.75 l 1
 60.9375 763 l 1
 677.4375 763 l 1
 676.537109375 1197.5 l 0
 636.337239584 1163.66666667 593.4375 1140 547.837890625 1126.5 c 0
 493.237630208 1110.66666667 433.537434896 1102.66666667 368.737304688 1102.5 c 0
 303.937174479 1102.66666667 244.237304687 1110.66666667 189.637695312 1126.5 c 0
 144.037434896 1140 101.137369792 1163.66666667 60.9375 1197.5 c 1
 60.9375 1361.75 l 1
 101.137369792 1327.91666667 144.037434896 1304.25 189.637695312 1290.75 c 0
 244.237304687 1274.91666667 303.937174479 1266.91666667 368.737304688 1266.75 c 0
 433.537434896 1266.75 493.237630208 1274.75 547.837890625 1290.75 c 0
 593.4375 1304.08333333 636.337239584 1327.75 676.537109375 1361.75 c 1
 824.362304688 1361.75 l 1
 864.562174479 1327.91666667 907.462239583 1304.25 953.0625 1290.75 c 0
 1007.66276041 1274.91666667 1067.36263021 1266.91666667 1132.16210938 1266.75 c 0
 1196.96223959 1266.91666667 1256.6624349 1274.91666667 1311.26269531 1290.75 c 0
 1356.86230469 1304.25 1399.76236979 1327.91666667 1439.96289062 1361.75 c 1
 1439.96289062 1197.5 l 1
 1399.76236979 1163.66666667 1356.86230469 1140 1311.26269531 1126.5 c 0
 1256.6624349 1110.66666667 1196.96223959 1102.66666667 1132.16210938 1102.5 c 0
 1067.36263021 1102.66666667 1007.66276041 1110.66666667 953.0625 1126.5 c 0
 907.462239583 1140 864.562174479 1163.66666667 824.362304688 1197.5 c 0
 823.462890625 763 l 1
 1439.0625 763 l 1
EndSplineSet
EndChar

StartChar: M
Encoding: 77 77 45
Width: 1500
Flags: HW
LayerCount: 2
Fore
SplineSet
823.462890625 0 m 17
 675.637695312 0 l 1
 635.437825521 33.8333333333 592.537760417 57.5 546.9375 71 c 0
 492.337239583 86.8333333333 432.637369792 94.8333333333 367.837890625 95 c 0
 303.037760416 94.8333333333 243.337565104 86.8333333333 188.737304688 71 c 0
 143.137695313 57.5 100.237630208 33.8333333333 60.037109375 0 c 1
 60.037109375 164.25 l 1
 100.237630208 198.083333333 143.137695313 221.75 188.737304688 235.25 c 0
 243.337565104 251.083333333 303.037760416 259.083333333 367.837890625 259.25 c 0
 432.637369792 259.083333333 492.337239583 251.083333333 546.9375 235.25 c 0
 592.537760417 221.75 635.437825521 198.083333333 675.637695312 164.25 c 0
 676.537109375 598.75 l 1
 60.9375 598.75 l 1
 60.9375 763 l 1
 677.4375 763 l 1
 676.537109375 1197.5 l 0
 636.337239584 1163.66666667 593.4375 1140 547.837890625 1126.5 c 0
 493.237630208 1110.66666667 433.537434896 1102.66666667 368.737304688 1102.5 c 0
 303.937174479 1102.66666667 244.237304687 1110.66666667 189.637695312 1126.5 c 0
 144.037434896 1140 101.137369792 1163.66666667 60.9375 1197.5 c 1
 60.9375 1361.75 l 1
 101.137369792 1327.91666667 144.037434896 1304.25 189.637695312 1290.75 c 0
 244.237304687 1274.91666667 303.937174479 1266.91666667 368.737304688 1266.75 c 0
 433.537434896 1266.75 493.237630208 1274.75 547.837890625 1290.75 c 0
 593.4375 1304.08333333 636.337239584 1327.75 676.537109375 1361.75 c 1
 824.362304688 1361.75 l 1
 864.562174479 1327.91666667 907.462239583 1304.25 953.0625 1290.75 c 0
 1007.66276041 1274.91666667 1067.36263021 1266.91666667 1132.16210938 1266.75 c 0
 1196.96223959 1266.91666667 1256.6624349 1274.91666667 1311.26269531 1290.75 c 0
 1356.86230469 1304.25 1399.76236979 1327.91666667 1439.96289062 1361.75 c 1
 1439.96289062 1197.5 l 1
 1399.76236979 1163.66666667 1356.86230469 1140 1311.26269531 1126.5 c 0
 1256.6624349 1110.66666667 1196.96223959 1102.66666667 1132.16210938 1102.5 c 0
 1067.36263021 1102.66666667 1007.66276041 1110.66666667 953.0625 1126.5 c 0
 907.462239583 1140 864.562174479 1163.66666667 824.362304688 1197.5 c 0
 823.462890625 763 l 1
 1439.0625 763 l 1
 1439.0625 598.75 l 1
 822.5625 598.75 l 9
 823.462890625 0 l 17
EndSplineSet
Validated: 1
EndChar

StartChar: N
Encoding: 78 78 46
Width: 1500
Flags: HW
LayerCount: 2
Fore
SplineSet
823.462890625 0 m 1
 675.637695312 0 l 1
 635.212565104 33.8333333333 592.3125 57.5 546.9375 71 c 0
 492.3125 86.8333333333 432.612630208 94.8333333333 367.837890625 95 c 0
 303.279296875 94.8333333333 243.579101563 86.8333333333 188.737304688 71 c 0
 142.912434896 57.5 100.012369792 33.8333333333 60.037109375 0 c 1
 60.037109375 164.25 l 1
 100.012369792 197.916666667 142.912434896 221.583333333 188.737304688 235.25 c 0
 243.579101563 250.916666667 303.279296875 258.916666667 367.837890625 259.25 c 0
 435.279296875 258.916666667 494.979166667 250.916666667 546.9375 235.25 c 0
 592.3125 221.583333333 635.212565104 197.916666667 675.637695312 164.25 c 0
 676.537109375 598.75 l 1
 60.9375 598.75 l 1
 60.9375 763 l 1
 677.4375 763 l 1
 676.537109375 1197.5 l 0
 636.179036458 1163.66666667 593.279296875 1140 547.837890625 1126.5 c 0
 493.279296875 1110.66666667 433.579101563 1102.66666667 368.737304688 1102.5 c 0
 304.245768229 1102.66666667 244.545898437 1110.66666667 189.637695312 1126.5 c 0
 143.879231771 1140 100.979166667 1163.66666667 60.9375 1197.5 c 1
 60.9375 1361.75 l 1
 100.979166667 1327.75 143.879231771 1304.08333333 189.637695312 1290.75 c 0
 244.545898437 1274.75 304.245768229 1266.75 368.737304688 1266.75 c 0
 433.579101563 1266.75 493.279296875 1274.75 547.837890625 1290.75 c 0
 593.279296875 1304.08333333 636.179036458 1327.75 676.537109375 1361.75 c 1
 824.362304688 1361.75 l 1
 864.787434896 1327.75 907.6875 1304.08333333 953.0625 1290.75 c 0
 1007.6875 1274.75 1067.38736979 1266.75 1132.16210938 1266.75 c 0
 1196.72070313 1266.75 1256.42089844 1274.75 1311.26269531 1290.75 c 0
 1357.0875651 1304.08333333 1399.98763021 1327.75 1439.96289062 1361.75 c 1
 1439.96289062 1197.5 l 1
 1399.98763021 1163.66666667 1357.0875651 1140 1311.26269531 1126.5 c 0
 1256.42089844 1110.66666667 1196.72070313 1102.66666667 1132.16210938 1102.5 c 0
 1067.38736979 1102.66666667 1007.6875 1110.66666667 953.0625 1126.5 c 0
 907.6875 1140 864.787434896 1163.66666667 824.362304688 1197.5 c 0
 823.462890625 0 l 1
EndSplineSet
Validated: 1
EndChar

StartChar: O
Encoding: 79 79 47
Width: 1500
Flags: HW
LayerCount: 2
Fore
SplineSet
1266.328125 -0.25 m 1
 1268.078125 598.5 l 1
 69.328125 598.5 l 1
 69.328125 762.75 l 1
 1266.328125 762.75 l 1
 1264.578125 1197.25 l 1
 1186.47363281 1163.58300781 1103.05761719 1139.91699219 1014.328125 1126.25 c 0
 907.723632812 1110.58300781 791.640625 1102.58300781 666.078125 1102.25 c 0
 539.640625 1102.58300781 423.557617188 1110.58300781 317.828125 1126.25 c 0
 228.818359375 1139.43945312 145.473632812 1163.58300781 67.578125 1197.25 c 1
 67.578125 1361.5 l 1
 145.473632812 1327.83300781 228.818359375 1303.68945312 317.828125 1290.5 c 0
 423.557617188 1274.83300781 539.640625 1266.83300781 666.078125 1266.5 c 0
 791.640625 1266.83300781 907.723632812 1274.83300781 1014.328125 1290.5 c 0
 1103.05761719 1304.16699219 1186.47363281 1327.83300781 1264.578125 1361.5 c 1
 1430.671875 1361.75 l 1
 1432.421875 0 l 1
 1266.328125 -0.25 l 1
EndSplineSet
EndChar

StartChar: P
Encoding: 80 80 48
Width: 1500
Flags: HW
LayerCount: 2
Fore
SplineSet
823.462890625 1361.75 m 1
 824.362304688 164.25 l 0
 864.787434896 198.083333333 907.6875 221.75 953.0625 235.25 c 0
 1007.6875 251.083333333 1067.38736979 259.083333333 1132.16210938 259.25 c 0
 1196.72070313 259.083333333 1256.42089844 251.083333333 1311.26269531 235.25 c 0
 1357.0875651 221.75 1399.98763021 198.083333333 1439.96289062 164.25 c 1
 1439.96289062 0 l 1
 1399.98763021 34 1357.0875651 57.6666666667 1311.26269531 71 c 0
 1256.42089844 87 1196.72070313 95 1132.16210938 95 c 0
 1067.38736979 95 1007.6875 87 953.0625 71 c 0
 907.6875 57.6666666667 864.787434896 34 824.362304688 0 c 1
 676.537109375 0 l 9
 677.4375 598.75 l 17
 60.9375 598.75 l 1
 60.9375 763 l 1
 676.537109375 763 l 1
 675.637695312 1197.5 l 0
 635.212565104 1163.83333333 592.3125 1140.16666667 546.9375 1126.5 c 0
 491.445 1110.49333333 432.999395052 1102.49 371.600685156 1102.49 c 0
 370.34765026 1102.49 369.093385417 1102.49333333 367.837890625 1102.5 c 0
 303.279296875 1102.83333333 243.579101563 1110.83333333 188.737304688 1126.5 c 0
 142.912434896 1140.16666667 100.012369792 1163.83333333 60.037109375 1197.5 c 1
 60.037109375 1361.75 l 1
 100.012369792 1327.91666667 142.912434896 1304.25 188.737304688 1290.75 c 0
 243.579101563 1274.91666667 303.279296875 1266.91666667 367.837890625 1266.75 c 0
 432.612630208 1266.91666667 492.3125 1274.91666667 546.9375 1290.75 c 0
 592.3125 1304.25 635.212565104 1327.91666667 675.637695312 1361.75 c 1
 823.462890625 1361.75 l 1
EndSplineSet
Validated: 1
EndChar

StartChar: Q
Encoding: 81 81 49
Width: 1500
Flags: HW
LayerCount: 2
Fore
SplineSet
823.462890625 1361.75 m 9
 822.5625 763 l 17
 1439.0625 763 l 1
 1439.0625 598.75 l 1
 823.462890625 598.75 l 1
 824.362304688 164.25 l 0
 864.562174479 198.083333333 907.462239583 221.75 953.0625 235.25 c 0
 1007.66276041 251.083333333 1067.36263021 259.083333333 1132.16210938 259.25 c 0
 1196.96223959 259.083333333 1256.6624349 251.083333333 1311.26269531 235.25 c 0
 1356.86230469 221.75 1399.76236979 198.083333333 1439.96289062 164.25 c 1
 1439.96289062 0 l 1
 1399.76236979 33.8333333333 1356.86230469 57.5 1311.26269531 71 c 0
 1256.6624349 86.8333333333 1196.96223959 94.8333333333 1132.16210938 95 c 0
 1067.36263021 94.8333333333 1007.66276041 86.8333333333 953.0625 71 c 0
 907.462239583 57.5 864.562174479 33.8333333333 824.362304688 0 c 1
 676.537109375 0 l 9
 677.4375 598.75 l 17
 60.9375 598.75 l 1
 60.9375 763 l 1
 676.537109375 763 l 1
 675.637695312 1197.5 l 0
 635.437825521 1163.66666667 592.537760417 1140 546.9375 1126.5 c 0
 492.337239583 1110.66666667 432.637369792 1102.66666667 367.837890625 1102.5 c 0
 303.037760416 1102.66666667 243.337565104 1110.66666667 188.737304688 1126.5 c 0
 143.137695313 1140 100.237630208 1163.66666667 60.037109375 1197.5 c 1
 60.037109375 1361.75 l 1
 100.237630208 1327.91666667 143.137695313 1304.25 188.737304688 1290.75 c 0
 243.337565104 1274.91666667 303.037760416 1266.91666667 367.837890625 1266.75 c 0
 432.637369792 1266.91666667 492.337239583 1274.91666667 546.9375 1290.75 c 0
 592.537760417 1304.25 635.437825521 1327.91666667 675.637695312 1361.75 c 1
 823.462890625 1361.75 l 9
EndSplineSet
Validated: 1
EndChar

StartChar: R
Encoding: 82 82 50
Width: 1500
Flags: HW
LayerCount: 2
Fore
SplineSet
676.537109375 0 m 9
 677.4375 598.75 l 17
 60.9375 598.75 l 1
 60.9375 763 l 1
 676.537109375 763 l 1
 675.637695312 1197.5 l 0
 635.437825521 1163.66666667 592.537760417 1140 546.9375 1126.5 c 0
 492.337239583 1110.66666667 432.637369792 1102.66666667 367.837890625 1102.5 c 0
 303.037760416 1102.66666667 243.337565104 1110.66666667 188.737304688 1126.5 c 0
 143.137695313 1140 100.237630208 1163.66666667 60.037109375 1197.5 c 1
 60.037109375 1361.75 l 1
 100.237630208 1327.91666667 143.137695313 1304.25 188.737304688 1290.75 c 0
 243.337565104 1274.91666667 303.037760416 1266.91666667 367.837890625 1266.75 c 0
 432.637369792 1266.91666667 492.337239583 1274.91666667 546.9375 1290.75 c 0
 592.537760417 1304.25 635.437825521 1327.91666667 675.637695312 1361.75 c 1
 823.462890625 1361.75 l 1
 863.662760416 1327.75 906.5625 1304.08333333 952.162109375 1290.75 c 0
 1006.76236979 1274.75 1066.4625651 1266.75 1131.26269531 1266.75 c 0
 1196.06282552 1266.91666667 1255.76269531 1274.91666667 1310.36230469 1290.75 c 0
 1355.9625651 1304.25 1398.86263021 1327.91666667 1439.0625 1361.75 c 1
 1439.0625 1197.5 l 1
 1398.86263021 1163.66666667 1355.9625651 1140 1310.36230469 1126.5 c 0
 1255.76269531 1110.66666667 1196.06282552 1102.66666667 1131.26269531 1102.5 c 0
 1066.4625651 1102.66666667 1006.76236979 1110.66666667 952.162109375 1126.5 c 0
 906.5625 1140 863.662760416 1163.66666667 823.462890625 1197.5 c 0
 822.5625 763 l 1
 1439.0625 763 l 1
 1439.0625 598.75 l 1
 823.462890625 598.75 l 1
 824.362304688 164.25 l 0
 864.562174479 198.083333333 907.462239583 221.75 953.0625 235.25 c 0
 1007.66276041 251.083333333 1067.36263021 259.083333333 1132.16210938 259.25 c 0
 1196.96223959 259.083333333 1256.6624349 251.083333333 1311.26269531 235.25 c 0
 1356.86230469 221.75 1399.76236979 198.083333333 1439.96289062 164.25 c 1
 1439.96289062 0 l 1
 1399.76236979 33.8333333333 1356.86230469 57.5 1311.26269531 71 c 0
 1256.6624349 86.8333333333 1196.96223959 94.8333333333 1132.16210938 95 c 0
 1067.36263021 94.8333333333 1007.66276041 86.8333333333 953.0625 71 c 0
 907.462239583 57.5 864.562174479 33.8333333333 824.362304688 0 c 1
 676.537109375 0 l 9
EndSplineSet
Validated: 1
EndChar

StartChar: S
Encoding: 83 83 51
Width: 1500
Flags: HW
LayerCount: 2
Fore
SplineSet
674.737304688 0 m 9
 675.63671875 598.75 l 17
 60.037109375 598.75 l 1
 60.037109375 763 l 1
 676.537109375 763 l 1
 675.63671875 1197.5 l 0
 635.436848958 1163.66666667 592.537109375 1140 546.9375 1126.5 c 0
 492.337239583 1110.66666667 432.637044271 1102.66666667 367.836914062 1102.5 c 0
 303.036783854 1102.66666667 243.336914063 1110.66666667 188.737304688 1126.5 c 0
 143.137044271 1140 100.236979166 1163.66666667 60.037109375 1197.5 c 1
 60.037109375 1361.75 l 1
 100.236979166 1327.91666667 143.137044271 1304.25 188.737304688 1290.75 c 0
 243.336914063 1274.91666667 303.036783854 1266.91666667 367.836914062 1266.75 c 0
 432.637044271 1266.75 492.337239583 1274.75 546.9375 1290.75 c 0
 592.537109375 1304.08333333 635.436848958 1327.75 675.63671875 1361.75 c 1
 823.461914062 1361.75 l 1
 863.661783854 1327.91666667 906.561848958 1304.25 952.162109375 1290.75 c 0
 1006.76236979 1274.91666667 1066.46223958 1266.91666667 1131.26171875 1266.75 c 0
 1196.06184896 1266.91666667 1255.76204427 1274.91666667 1310.36230469 1290.75 c 0
 1355.96191406 1304.25 1398.86197917 1327.91666667 1439.0625 1361.75 c 1
 1439.0625 1197.5 l 1
 1398.86197917 1163.66666667 1355.96191406 1140 1310.36230469 1126.5 c 0
 1255.76204427 1110.66666667 1196.06184896 1102.66666667 1131.26171875 1102.5 c 0
 1066.46223958 1102.66666667 1006.76236979 1110.66666667 952.162109375 1126.5 c 0
 906.561848958 1140 863.661783854 1163.66666667 823.461914062 1197.5 c 0
 822.5625 763 l 1
 1438.16210938 763 l 1
 1438.16210938 598.75 l 1
 821.662109375 598.75 l 9
 822.5625 0 l 17
 674.737304688 0 l 9
EndSplineSet
Validated: 1
EndChar

StartChar: T
Encoding: 84 84 52
Width: 1500
Flags: HW
LayerCount: 2
Fore
SplineSet
674.737304688 0 m 9
 675.63671875 598.75 l 17
 60.037109375 598.75 l 1
 60.037109375 763 l 1
 676.537109375 763 l 1
 675.63671875 1197.5 l 0
 635.278645833 1163.66666667 592.37890625 1140 546.9375 1126.5 c 0
 492.37890625 1110.66666667 432.678710937 1102.66666667 367.836914062 1102.5 c 0
 303.345377604 1102.66666667 243.645507813 1110.66666667 188.737304688 1126.5 c 0
 142.978841146 1140 100.078776042 1163.66666667 60.037109375 1197.5 c 1
 60.037109375 1361.75 l 1
 100.078776042 1327.75 142.978841146 1304.08333333 188.737304688 1290.75 c 0
 243.645507813 1274.75 303.345377604 1266.75 367.836914062 1266.75 c 0
 432.678710937 1266.75 492.37890625 1274.75 546.9375 1290.75 c 0
 592.37890625 1304.08333333 635.278645833 1327.75 675.63671875 1361.75 c 1
 823.461914062 1361.75 l 1
 863.887044271 1327.75 906.787109375 1304.08333333 952.162109375 1290.75 c 0
 1006.78710938 1274.75 1066.48697917 1266.75 1131.26171875 1266.75 c 0
 1195.8203125 1266.75 1255.52050782 1274.75 1310.36230469 1290.75 c 0
 1356.18717448 1304.08333333 1399.08723959 1327.75 1439.0625 1361.75 c 1
 1439.0625 1197.5 l 1
 1399.08723959 1163.66666667 1356.18717448 1140 1310.36230469 1126.5 c 0
 1255.52050782 1110.66666667 1195.8203125 1102.66666667 1131.26171875 1102.5 c 0
 1066.48697917 1102.66666667 1006.78710938 1110.66666667 952.162109375 1126.5 c 0
 906.787109375 1140 863.887044271 1163.66666667 823.461914062 1197.5 c 0
 822.5625 0 l 1
 674.737304688 0 l 9
EndSplineSet
Validated: 1
EndChar

StartChar: U
Encoding: 85 85 53
Width: 1500
Flags: HW
LayerCount: 2
Fore
SplineSet
1266.328125 -0.25 m 1
 1264.578125 1197.25 l 1
 1186.47363281 1163.58300781 1103.05761719 1139.91699219 1014.328125 1126.25 c 0
 907.723632812 1110.58300781 791.640625 1102.58300781 666.078125 1102.25 c 0
 539.640625 1102.58300781 423.557617188 1110.58300781 317.828125 1126.25 c 0
 228.818359375 1139.43945312 145.473632812 1163.58300781 67.578125 1197.25 c 1
 67.578125 1361.5 l 1
 145.473632812 1327.83300781 228.818359375 1303.68945312 317.828125 1290.5 c 0
 423.557617188 1274.83300781 539.640625 1266.83300781 666.078125 1266.5 c 0
 791.640625 1266.83300781 907.723632812 1274.83300781 1014.328125 1290.5 c 0
 1103.05761719 1304.16699219 1186.47363281 1327.83300781 1264.578125 1361.5 c 1
 1430.671875 1361.75 l 1
 1432.421875 0 l 1
 1266.328125 -0.25 l 1
EndSplineSet
EndChar

StartChar: V
Encoding: 86 86 54
Width: 1500
Flags: HW
LayerCount: 2
Fore
SplineSet
823.462890625 1361.75 m 1
 824.362304688 164.25 l 0
 864.787434896 198.083333333 907.6875 221.75 953.0625 235.25 c 0
 1008.02205882 251.264705882 1065.87827267 259.272058824 1126.63114154 259.272058824 c 0
 1128.47213756 259.272058824 1130.31579351 259.264705882 1132.16210938 259.25 c 0
 1196.72070313 259.083333333 1256.42089844 251.083333333 1311.26269531 235.25 c 0
 1357.0875651 221.75 1399.98763021 198.083333333 1439.96289062 164.25 c 1
 1439.96289062 0 l 1
 1399.98763021 34 1357.0875651 57.6666666667 1311.26269531 71 c 0
 1256.42089844 87 1196.72070313 95 1132.16210938 95 c 0
 1067.38736979 95 1007.6875 87 953.0625 71 c 0
 907.6875 57.6666666667 864.787434896 34 824.362304688 0 c 1
 676.537109375 0 l 1
 675.637695312 1197.5 l 0
 635.212565104 1163.83333333 592.3125 1140.16666667 546.9375 1126.5 c 0
 491.445 1110.49333333 432.999395052 1102.49 371.600685156 1102.49 c 0
 370.34765026 1102.49 369.093385417 1102.49333333 367.837890625 1102.5 c 0
 303.279296875 1102.83333333 243.579101563 1110.83333333 188.737304688 1126.5 c 0
 142.912434896 1140.16666667 100.012369792 1163.83333333 60.037109375 1197.5 c 1
 60.037109375 1361.75 l 1
 100.012369792 1327.91666667 142.912434896 1304.25 188.737304688 1290.75 c 0
 243.579101563 1274.91666667 303.279296875 1266.91666667 367.837890625 1266.75 c 0
 432.612630208 1266.91666667 492.3125 1274.91666667 546.9375 1290.75 c 0
 592.3125 1304.25 635.212565104 1327.91666667 675.637695312 1361.75 c 1
 823.462890625 1361.75 l 1
EndSplineSet
Validated: 1
EndChar

StartChar: W
Encoding: 87 87 55
Width: 1500
Flags: HW
LayerCount: 2
Fore
SplineSet
676.537109375 0 m 1
 675.637695312 1197.5 l 0
 635.212565104 1163.66666667 592.3125 1140 546.9375 1126.5 c 0
 492.3125 1110.66666667 432.612630208 1102.66666667 367.837890625 1102.5 c 0
 303.279296875 1102.66666667 243.579101563 1110.66666667 188.737304688 1126.5 c 0
 142.912434896 1140 100.012369792 1163.66666667 60.037109375 1197.5 c 1
 60.037109375 1361.75 l 1
 100.012369792 1327.75 142.912434896 1304.08333333 188.737304688 1290.75 c 0
 243.579101563 1274.75 303.279296875 1266.75 367.837890625 1266.75 c 0
 432.612630208 1266.75 492.3125 1274.75 546.9375 1290.75 c 0
 592.3125 1304.08333333 635.212565104 1327.75 675.637695312 1361.75 c 1
 823.462890625 1361.75 l 9
 822.5625 763 l 17
 1439.0625 763 l 1
 1439.0625 598.75 l 1
 823.462890625 598.75 l 1
 824.362304688 164.25 l 0
 864.787434896 197.916666667 907.6875 221.583333333 953.0625 235.25 c 0
 1008.555 251.256666667 1067.00060495 259.26 1128.39931485 259.26 c 0
 1129.65234974 259.26 1130.90661459 259.256666667 1132.16210938 259.25 c 0
 1196.72070313 258.916666667 1256.42089844 250.916666667 1311.26269531 235.25 c 0
 1357.0875651 221.583333333 1399.98763021 197.916666667 1439.96289062 164.25 c 1
 1439.96289062 0 l 1
 1399.98763021 33.8333333333 1357.0875651 57.5 1311.26269531 71 c 0
 1256.42089844 86.8333333333 1196.72070313 94.8333333333 1132.16210938 95 c 0
 1067.38736979 94.8333333333 1007.6875 86.8333333333 953.0625 71 c 0
 907.6875 57.5 864.787434896 33.8333333333 824.362304688 0 c 1
 676.537109375 0 l 1
EndSplineSet
Validated: 1
EndChar

StartChar: X
Encoding: 88 88 56
Width: 1500
Flags: HW
LayerCount: 2
Fore
SplineSet
676.537109375 0 m 1
 675.637695312 1197.5 l 0
 635.212565104 1163.66666667 592.3125 1140 546.9375 1126.5 c 0
 492.3125 1110.66666667 432.612630208 1102.66666667 367.837890625 1102.5 c 0
 303.279296875 1102.66666667 243.579101563 1110.66666667 188.737304688 1126.5 c 0
 142.912434896 1140 100.012369792 1163.66666667 60.037109375 1197.5 c 1
 60.037109375 1361.75 l 1
 100.012369792 1327.75 142.912434896 1304.08333333 188.737304688 1290.75 c 0
 243.579101563 1274.75 303.279296875 1266.75 367.837890625 1266.75 c 0
 432.612630208 1266.75 492.3125 1274.75 546.9375 1290.75 c 0
 592.3125 1304.08333333 635.212565104 1327.75 675.637695312 1361.75 c 1
 823.462890625 1361.75 l 1
 863.820963542 1327.75 906.720703125 1304.08333333 952.162109375 1290.75 c 0
 1006.72070312 1274.75 1066.42089844 1266.75 1131.26269531 1266.75 c 0
 1195.75423177 1266.75 1255.45410156 1274.75 1310.36230469 1290.75 c 0
 1356.12076823 1304.08333333 1399.02083333 1327.75 1439.0625 1361.75 c 1
 1439.0625 1197.5 l 1
 1399.02083333 1163.66666667 1356.12076823 1140 1310.36230469 1126.5 c 0
 1255.45410156 1110.66666667 1195.75423177 1102.66666667 1131.26269531 1102.5 c 0
 1066.42089844 1102.66666667 1006.72070312 1110.66666667 952.162109375 1126.5 c 0
 906.720703125 1140 863.820963542 1163.66666667 823.462890625 1197.5 c 0
 822.5625 763 l 1
 1439.0625 763 l 1
 1439.0625 598.75 l 1
 823.462890625 598.75 l 1
 824.362304688 164.25 l 0
 864.787434896 197.916666667 907.6875 221.583333333 953.0625 235.25 c 0
 1005.02083333 250.916666667 1064.72070313 258.916666667 1132.16210938 259.25 c 0
 1196.72070313 258.916666667 1256.42089844 250.916666667 1311.26269531 235.25 c 0
 1357.0875651 221.583333333 1399.98763021 197.916666667 1439.96289062 164.25 c 1
 1439.96289062 0 l 1
 1399.98763021 33.8333333333 1357.0875651 57.5 1311.26269531 71 c 0
 1256.42089844 86.8333333333 1196.72070313 94.8333333333 1132.16210938 95 c 0
 1067.38736979 94.8333333333 1007.6875 86.8333333333 953.0625 71 c 0
 907.6875 57.5 864.787434896 33.8333333333 824.362304688 0 c 1
 676.537109375 0 l 1
EndSplineSet
Validated: 1
EndChar

StartChar: Y
Encoding: 89 89 57
Width: 1500
Flags: HW
LayerCount: 2
Fore
SplineSet
674.737304688 0 m 1
 675.63671875 1197.5 l 0
 635.278645833 1163.66666667 592.37890625 1140 546.9375 1126.5 c 0
 492.37890625 1110.66666667 432.678710937 1102.66666667 367.836914062 1102.5 c 0
 303.345377604 1102.66666667 243.645507813 1110.66666667 188.737304688 1126.5 c 0
 142.978841146 1140 100.078776042 1163.66666667 60.037109375 1197.5 c 1
 60.037109375 1361.75 l 1
 100.078776042 1327.75 142.978841146 1304.08333333 188.737304688 1290.75 c 0
 243.645507813 1274.75 303.345377604 1266.75 367.836914062 1266.75 c 0
 432.678710937 1266.75 492.37890625 1274.75 546.9375 1290.75 c 0
 592.37890625 1304.08333333 635.278645833 1327.75 675.63671875 1361.75 c 1
 823.461914062 1361.75 l 1
 863.887044271 1327.75 906.787109375 1304.08333333 952.162109375 1290.75 c 0
 1006.78710938 1274.75 1066.48697917 1266.75 1131.26171875 1266.75 c 0
 1195.8203125 1266.75 1255.52050782 1274.75 1310.36230469 1290.75 c 0
 1356.18717448 1304.08333333 1399.08723959 1327.75 1439.0625 1361.75 c 1
 1439.0625 1197.5 l 1
 1399.08723959 1163.66666667 1356.18717448 1140 1310.36230469 1126.5 c 0
 1255.52050782 1110.66666667 1195.8203125 1102.66666667 1131.26171875 1102.5 c 0
 1066.48697917 1102.66666667 1006.78710938 1110.66666667 952.162109375 1126.5 c 0
 906.787109375 1140 863.887044271 1163.66666667 823.461914062 1197.5 c 0
 822.5625 763 l 1
 1438.16210938 763 l 1
 1438.16210938 598.75 l 1
 821.662109375 598.75 l 9
 822.5625 0 l 1
 674.737304688 0 l 1
EndSplineSet
Validated: 1
EndChar

StartChar: Z
Encoding: 90 90 58
Width: 1500
Flags: HW
LayerCount: 2
Fore
SplineSet
674.737304688 0 m 1
 675.63671875 1197.5 l 0
 635.278645833 1163.66666667 592.37890625 1140 546.9375 1126.5 c 0
 492.37890625 1110.66666667 432.678710937 1102.66666667 367.836914062 1102.5 c 0
 303.345377604 1102.66666667 243.645507813 1110.66666667 188.737304688 1126.5 c 0
 142.978841146 1140 100.078776042 1163.66666667 60.037109375 1197.5 c 1
 60.037109375 1361.75 l 1
 100.078776042 1327.75 142.978841146 1304.08333333 188.737304688 1290.75 c 0
 243.645507813 1274.75 303.345377604 1266.75 367.836914062 1266.75 c 0
 432.678710937 1266.75 492.37890625 1274.75 546.9375 1290.75 c 0
 592.37890625 1304.08333333 635.278645833 1327.75 675.63671875 1361.75 c 1
 823.461914062 1361.75 l 1
 863.887044271 1327.75 906.787109375 1304.08333333 952.162109375 1290.75 c 0
 1006.78710938 1274.75 1066.48697917 1266.75 1131.26171875 1266.75 c 0
 1195.8203125 1266.75 1255.52050782 1274.75 1310.36230469 1290.75 c 0
 1356.18717448 1304.08333333 1399.08723959 1327.75 1439.0625 1361.75 c 1
 1439.0625 1197.5 l 1
 1399.08723959 1163.66666667 1356.18717448 1140 1310.36230469 1126.5 c 0
 1255.52050782 1110.66666667 1195.8203125 1102.66666667 1131.26171875 1102.5 c 0
 1066.48697917 1102.66666667 1006.78710938 1110.66666667 952.162109375 1126.5 c 0
 906.787109375 1140 863.887044271 1163.66666667 823.461914062 1197.5 c 0
 822.5625 0 l 1
 674.737304688 0 l 1
EndSplineSet
Validated: 1
EndChar

StartChar: bracketleft
Encoding: 91 91 59
Width: 569
Flags: HW
LayerCount: 2
Fore
SplineSet
139 -407 m 1
 139 1466 l 1
 536 1466 l 1
 536 1317 l 1
 319 1317 l 1
 319 -258 l 1
 536 -258 l 1
 536 -407 l 1
 139 -407 l 1
EndSplineSet
Validated: 1
EndChar

StartChar: backslash
Encoding: 92 92 60
Width: 569
Flags: HW
LayerCount: 2
Fore
SplineSet
425 -25 m 1
 0 1491 l 1
 145 1491 l 1
 569 -25 l 1
 425 -25 l 1
EndSplineSet
Validated: 1
EndChar

StartChar: bracketright
Encoding: 93 93 61
Width: 569
Flags: HW
LayerCount: 2
Fore
SplineSet
436 -407 m 1
 39 -407 l 1
 39 -258 l 1
 256 -258 l 1
 256 1317 l 1
 39 1317 l 1
 39 1466 l 1
 436 1466 l 1
 436 -407 l 1
EndSplineSet
Validated: 1
EndChar

StartChar: asciicircum
Encoding: 94 94 62
Width: 1500
Flags: HW
LayerCount: 2
Fore
SplineSet
1266.328125 1361.75 m 1
 1432.421875 1361.5 l 1
 1430.671875 -0.25 l 1
 1264.578125 0 l 1
 1186.47363281 33.6669921875 1103.05761719 57.3330078125 1014.328125 71 c 0
 907.723632812 86.6669921875 791.640625 94.6669921875 666.078125 95 c 0
 539.640625 94.6669921875 423.557617188 86.6669921875 317.828125 71 c 0
 228.818359375 57.810546875 145.473632812 33.6669921875 67.578125 0 c 1
 67.578125 164.25 l 1
 145.473632812 197.916992188 228.818359375 222.060546875 317.828125 235.25 c 0
 423.557617188 250.916992188 539.640625 258.916992188 666.078125 259.25 c 0
 791.640625 258.916992188 907.723632812 250.916992188 1014.328125 235.25 c 0
 1103.05761719 221.583007812 1186.47363281 197.916992188 1264.578125 164.25 c 1
 1266.328125 1361.75 l 1
EndSplineSet
EndChar

StartChar: underscore
Encoding: 95 95 63
Width: 1192
Flags: HW
LayerCount: 2
Fore
SplineSet
116.5 1466 m 1
 1048.5 1466 l 1
 1048.5 1293 l 1
 311.5 1293 l 1
 311.5 842 l 1
 996.5 842 l 1
 996.5 670 l 1
 311.5 670 l 1
 311.5 173 l 1
 1075.5 173 l 1
 1075.5 0 l 1
 116.5 0 l 1
 116.5 1466 l 1
EndSplineSet
EndChar

StartChar: grave
Encoding: 96 96 64
Width: 682
Flags: HW
LayerCount: 2
Fore
SplineSet
465 1194 m 1
 320 1194 l 1
 89 1474 l 1
 330 1474 l 1
 465 1194 l 1
EndSplineSet
EndChar

StartChar: a
Encoding: 97 97 65
Width: 1139
Flags: HW
LayerCount: 2
Fore
SplineSet
828 131 m 1
 761.333333333 74.3333333333 697.166666667 34.3333333333 635.5 11 c 128
 573.833333333 -12.3333333333 507.666666667 -24 437 -24 c 0
 320.333333333 -24 230.666666667 4.5 168 61.5 c 128
 105.333333333 118.5 74 191.333333333 74 280 c 0
 74 332 85.8333333333 379.5 109.5 422.5 c 128
 133.166666667 465.5 164.166666667 500 202.5 526 c 128
 240.833333333 552 284 571.666666667 332 585 c 0
 367.333333333 594.333333333 420.666666667 603.333333333 492 612 c 0
 637.333333333 629.333333333 744.333333333 650 813 674 c 1
 813.666666667 698.666666667 814 714.333333333 814 721 c 0
 814 794.333333333 797 846 763 876 c 0
 717 916.666666667 648.666666667 937 558 937 c 0
 473.333333333 937 410.833333333 922.166666667 370.5 892.5 c 128
 330.166666667 862.833333333 300.333333333 810.333333333 281 735 c 1
 105 759 l 1
 121 834.333333333 147.333333333 895.166666667 184 941.5 c 128
 220.666666667 987.833333333 273.666666667 1023.5 343 1048.5 c 128
 412.333333333 1073.5 492.666666667 1086 584 1086 c 0
 674.666666667 1086 748.333333333 1075.33333333 805 1054 c 128
 861.666666667 1032.66666667 903.333333333 1005.83333333 930 973.5 c 128
 956.666666667 941.166666667 975.333333333 900.333333333 986 851 c 0
 992 820.333333333 995 765 995 685 c 2
 995 445 l 2
 995 277.666666667 998.833333333 171.833333333 1006.5 127.5 c 128
 1014.16666667 83.1666666667 1029.33333333 40.6666666667 1052 0 c 1
 864 0 l 1
 845.333333333 37.3333333333 833.333333333 81 828 131 c 1
813 533 m 1
 747.666666667 506.333333333 649.666666667 483.666666667 519 465 c 0
 445 454.333333333 392.666666667 442.333333333 362 429 c 128
 331.333333333 415.666666667 307.666666667 396.166666667 291 370.5 c 128
 274.333333333 344.833333333 266 316.333333333 266 285 c 0
 266 237 284.166666667 197 320.5 165 c 128
 356.833333333 133 410 117 480 117 c 0
 549.333333333 117 611 132.166666667 665 162.5 c 128
 719 192.833333333 758.666666667 234.333333333 784 287 c 0
 803.333333333 327.666666667 813 387.666666667 813 467 c 2
 813 533 l 1
EndSplineSet
Validated: 1
EndChar

StartChar: b
Encoding: 98 98 66
Width: 1139
Flags: HW
LayerCount: 2
Fore
SplineSet
301 0 m 1
 134 0 l 1
 134 1466 l 1
 314 1466 l 1
 314 943 l 1
 390 1038.33333333 487 1086 605 1086 c 0
 670.333333333 1086 732.166666667 1072.83333333 790.5 1046.5 c 128
 848.833333333 1020.16666667 896.833333333 983.166666667 934.5 935.5 c 128
 972.166666667 887.833333333 1001.66666667 830.333333333 1023 763 c 128
 1044.33333333 695.666666667 1055 623.666666667 1055 547 c 0
 1055 365 1010 224.333333333 920 125 c 128
 830 25.6666666667 722 -24 596 -24 c 0
 470.666666667 -24 372.333333333 28.3333333333 301 133 c 1
 301 0 l 1
299 539 m 0
 299 411.666666667 316.333333333 319.666666667 351 263 c 0
 407.666666667 170.333333333 484.333333333 124 581 124 c 0
 659.666666667 124 727.666666667 158.166666667 785 226.5 c 128
 842.333333333 294.833333333 871 396.666666667 871 532 c 0
 871 670.666666667 843.5 773 788.5 839 c 128
 733.5 905 667 938 589 938 c 0
 510.333333333 938 442.333333333 903.833333333 385 835.5 c 128
 327.666666667 767.166666667 299 668.333333333 299 539 c 0
EndSplineSet
Validated: 1
EndChar

StartChar: c
Encoding: 99 99 67
Width: 1024
Flags: HW
LayerCount: 2
Fore
SplineSet
828 389 m 1
 1005 366 l 1
 985.666666667 244 936.166666667 148.5 856.5 79.5 c 128
 776.833333333 10.5 679 -24 563 -24 c 0
 417.666666667 -24 300.833333333 23.5 212.5 118.5 c 128
 124.166666667 213.5 80 349.666666667 80 527 c 0
 80 641.666666667 99 742 137 828 c 128
 175 914 232.833333333 978.5 310.5 1021.5 c 128
 388.166666667 1064.5 472.666666667 1086 564 1086 c 0
 679.333333333 1086 773.666666667 1056.83333333 847 998.5 c 128
 920.333333333 940.166666667 967.333333333 857.333333333 988 750 c 1
 813 723 l 1
 796.333333333 794.333333333 766.833333333 848 724.5 884 c 128
 682.166666667 920 631 938 571 938 c 0
 480.333333333 938 406.666666667 905.5 350 840.5 c 128
 293.333333333 775.5 265 672.666666667 265 532 c 0
 265 389.333333333 292.333333333 285.666666667 347 221 c 128
 401.666666667 156.333333333 473 124 561 124 c 0
 631.666666667 124 690.666666667 145.666666667 738 189 c 128
 785.333333333 232.333333333 815.333333333 299 828 389 c 1
EndSplineSet
Validated: 1
EndChar

StartChar: d
Encoding: 100 100 68
Width: 1139
Flags: HW
LayerCount: 2
Fore
SplineSet
824 0 m 1
 824 134 l 1
 756.666666667 28.6666666667 657.666666667 -24 527 -24 c 0
 442.333333333 -24 364.5 -0.666666666667 293.5 46 c 128
 222.5 92.6666666667 167.5 157.833333333 128.5 241.5 c 128
 89.5 325.166666667 70 421.333333333 70 530 c 0
 70 636 87.6666666667 732.166666667 123 818.5 c 128
 158.333333333 904.833333333 211.333333333 971 282 1017 c 128
 352.666666667 1063 431.666666667 1086 519 1086 c 0
 583 1086 640 1072.5 690 1045.5 c 128
 740 1018.5 780.666666667 983.333333333 812 940 c 1
 812 1466 l 1
 991 1466 l 1
 991 0 l 1
 824 0 l 1
255 530 m 0
 255 394 283.666666667 292.333333333 341 225 c 128
 398.333333333 157.666666667 466 124 544 124 c 0
 622.666666667 124 689.5 156.166666667 744.5 220.5 c 128
 799.5 284.833333333 827 383 827 515 c 0
 827 660.333333333 799 767 743 835 c 128
 687 903 618 937 536 937 c 0
 456 937 389.166666667 904.333333333 335.5 839 c 128
 281.833333333 773.666666667 255 670.666666667 255 530 c 0
EndSplineSet
Validated: 1
EndChar

StartChar: e
Encoding: 101 101 69
Width: 1139
Flags: HW
LayerCount: 2
Fore
SplineSet
862 342 m 1
 1048 319 l 1
 1018.66666667 210.333333333 964.333333333 126 885 66 c 128
 805.666666667 6 704.333333333 -24 581 -24 c 0
 425.666666667 -24 302.5 23.8333333333 211.5 119.5 c 128
 120.5 215.166666667 75 349.333333333 75 522 c 0
 75 700.666666667 121 839.333333333 213 938 c 128
 305 1036.66666667 424.333333333 1086 571 1086 c 0
 713 1086 829 1037.66666667 919 941 c 128
 1009 844.333333333 1054 708.333333333 1054 533 c 0
 1054 522.333333333 1053.66666667 506.333333333 1053 485 c 1
 261 485 l 1
 267.666666667 368.333333333 300.666666667 279 360 217 c 128
 419.333333333 155 493.333333333 124 582 124 c 0
 648 124 704.333333333 141.333333333 751 176 c 128
 797.666666667 210.666666667 834.666666667 266 862 342 c 1
271 633 m 1
 864 633 l 1
 856 722.333333333 833.333333333 789.333333333 796 834 c 0
 738.666666667 903.333333333 664.333333333 938 573 938 c 0
 490.333333333 938 420.833333333 910.333333333 364.5 855 c 128
 308.166666667 799.666666667 277 725.666666667 271 633 c 1
EndSplineSet
Validated: 1
EndChar

StartChar: f
Encoding: 102 102 70
Width: 569
Flags: HW
LayerCount: 2
Fore
SplineSet
178 0 m 1
 178 922 l 1
 19 922 l 1
 19 1062 l 1
 178 1062 l 1
 178 1175 l 2
 178 1246.33333333 184.333333333 1299.33333333 197 1334 c 0
 214.333333333 1380.66666667 244.833333333 1418.5 288.5 1447.5 c 128
 332.166666667 1476.5 393.333333333 1491 472 1491 c 0
 522.666666667 1491 578.666666667 1485 640 1473 c 1
 613 1316 l 1
 575.666666667 1322.66666667 540.333333333 1326 507 1326 c 0
 452.333333333 1326 413.666666667 1314.33333333 391 1291 c 128
 368.333333333 1267.66666667 357 1224 357 1160 c 2
 357 1062 l 1
 564 1062 l 1
 564 922 l 1
 357 922 l 1
 357 0 l 1
 178 0 l 1
EndSplineSet
Validated: 1
EndChar

StartChar: g
Encoding: 103 103 71
Width: 1139
Flags: HW
LayerCount: 2
Fore
SplineSet
102 -88 m 1
 277 -114 l 1
 284.333333333 -168 304.666666667 -207.333333333 338 -232 c 0
 382.666666667 -265.333333333 443.666666667 -282 521 -282 c 0
 604.333333333 -282 668.666666667 -265.333333333 714 -232 c 128
 759.333333333 -198.666666667 790 -152 806 -92 c 0
 814.711111111 -57.7777777778 819.066666667 11.5792592593 819.066666667 116.071111111 c 0
 819.066666667 123.534814815 819.044444444 131.177777778 819 139 c 1
 740.333333333 46.3333333333 642.333333333 0 525 0 c 0
 379 0 266 52.6666666667 186 158 c 128
 106 263.333333333 66 389.666666667 66 537 c 0
 66 638.333333333 84.3333333333 731.833333333 121 817.5 c 128
 157.666666667 903.166666667 210.833333333 969.333333333 280.5 1016 c 128
 350.166666667 1062.66666667 432 1086 526 1086 c 0
 651.333333333 1086 754.666666667 1035.33333333 836 934 c 1
 836 1062 l 1
 1002 1062 l 1
 1002 144 l 2
 1002 -21.3333333333 985.166666667 -138.5 951.5 -207.5 c 128
 917.833333333 -276.5 864.5 -331 791.5 -371 c 128
 718.5 -411 628.666666667 -431 522 -431 c 0
 395.333333333 -431 293 -402.5 215 -345.5 c 128
 139.578512397 -290.384297521 101.867768595 -208.310088109 101.867768595 -99.2773717642 c 0
 101.867768595 -95.5497575302 101.91184573 -91.7906336088 102 -88 c 1
251 550 m 0
 251 410.666666667 278.666666667 309 334 245 c 128
 389.333333333 181 458.666666667 149 542 149 c 0
 624.666666667 149 694 180.833333333 750 244.5 c 128
 806 308.166666667 834 408 834 544 c 0
 834 674 805.166666667 772 747.5 838 c 128
 689.833333333 904 620.333333333 937 539 937 c 0
 459 937 391 904.5 335 839.5 c 128
 279 774.5 251 678 251 550 c 0
EndSplineSet
Validated: 1
EndChar

StartChar: h
Encoding: 104 104 72
Width: 1139
Flags: HW
LayerCount: 2
Fore
SplineSet
135 0 m 1
 135 1466 l 1
 315 1466 l 1
 315 940 l 1
 399 1037.33333333 505 1086 633 1086 c 0
 711.666666667 1086 780 1070.5 838 1039.5 c 128
 896 1008.5 937.5 965.666666667 962.5 911 c 128
 987.5 856.333333333 1000 777 1000 673 c 2
 1000 0 l 1
 820 0 l 1
 820 673 l 2
 820 763 800.5 828.5 761.5 869.5 c 128
 722.5 910.5 667.333333333 931 596 931 c 0
 542.666666667 931 492.5 917.166666667 445.5 889.5 c 128
 398.5 861.833333333 365 824.333333333 345 777 c 128
 325 729.666666667 315 664.333333333 315 581 c 2
 315 0 l 1
 135 0 l 1
EndSplineSet
Validated: 1
EndChar

StartChar: i
Encoding: 105 105 73
Width: 455
Flags: HW
LayerCount: 2
Fore
SplineSet
136 1259 m 1
 136 1466 l 1
 316 1466 l 1
 316 1259 l 1
 136 1259 l 1
136 0 m 1
 136 1062 l 1
 316 1062 l 1
 316 0 l 1
 136 0 l 1
EndSplineSet
Validated: 1
EndChar

StartChar: j
Encoding: 106 106 74
Width: 455
Flags: HW
LayerCount: 2
Fore
SplineSet
134 1257 m 1
 134 1466 l 1
 314 1466 l 1
 314 1257 l 1
 134 1257 l 1
-94 -412 m 1
 -60 -259 l 1
 -24 -268.333333333 4.33333333333 -273 25 -273 c 0
 61.6666666667 -273 89 -260.833333333 107 -236.5 c 128
 125 -212.166666667 134 -151.333333333 134 -54 c 2
 134 1062 l 1
 314 1062 l 1
 314 -58 l 2
 314 -188.666666667 297 -279.666666667 263 -331 c 0
 219.666666667 -397.666666667 147.666666667 -431 47 -431 c 0
 -1.66666666667 -431 -48.6666666667 -424.666666667 -94 -412 c 1
EndSplineSet
Validated: 1
EndChar

StartChar: k
Encoding: 107 107 75
Width: 1024
Flags: HW
LayerCount: 2
Fore
SplineSet
136 0 m 1
 136 1466 l 1
 316 1466 l 1
 316 630 l 1
 742 1062 l 1
 975 1062 l 1
 569 668 l 1
 1016 0 l 1
 794 0 l 1
 443 543 l 1
 316 421 l 1
 316 0 l 1
 136 0 l 1
EndSplineSet
Validated: 1
EndChar

StartChar: l
Encoding: 108 108 76
Width: 455
Flags: HW
LayerCount: 2
Fore
SplineSet
131 0 m 1
 131 1466 l 1
 311 1466 l 1
 311 0 l 1
 131 0 l 1
EndSplineSet
Validated: 1
EndChar

StartChar: m
Encoding: 109 109 77
Width: 1706
Flags: HW
LayerCount: 2
Fore
SplineSet
135 0 m 1
 135 1062 l 1
 296 1062 l 1
 296 913 l 1
 329.333333333 965 373.666666667 1006.83333333 429 1038.5 c 128
 484.333333333 1070.16666667 547.333333333 1086 618 1086 c 0
 696.666666667 1086 761.166666667 1069.66666667 811.5 1037 c 128
 861.833333333 1004.33333333 897.333333333 958.666666667 918 900 c 1
 1002 1024 1111.33333333 1086 1246 1086 c 0
 1351.33333333 1086 1432.33333333 1056.83333333 1489 998.5 c 128
 1545.66666667 940.166666667 1574 850.333333333 1574 729 c 2
 1574 0 l 1
 1395 0 l 1
 1395 669 l 2
 1395 741 1389.16666667 792.833333333 1377.5 824.5 c 128
 1365.83333333 856.166666667 1344.66666667 881.666666667 1314 901 c 128
 1283.33333333 920.333333333 1247.33333333 930 1206 930 c 0
 1131.33333333 930 1069.33333333 905.166666667 1020 855.5 c 128
 970.666666667 805.833333333 946 726.333333333 946 617 c 2
 946 0 l 1
 766 0 l 1
 766 690 l 2
 766 770 751.333333333 830 722 870 c 128
 692.666666667 910 644.666666667 930 578 930 c 0
 527.333333333 930 480.5 916.666666667 437.5 890 c 128
 394.5 863.333333333 363.333333333 824.333333333 344 773 c 128
 324.666666667 721.666666667 315 647.666666667 315 551 c 2
 315 0 l 1
 135 0 l 1
EndSplineSet
Validated: 1
EndChar

StartChar: n
Encoding: 110 110 78
Width: 1139
Flags: HW
LayerCount: 2
Fore
SplineSet
135 0 m 1
 135 1062 l 1
 297 1062 l 1
 297 911 l 1
 375 1027.66666667 487.666666667 1086 635 1086 c 0
 699 1086 757.833333333 1074.5 811.5 1051.5 c 128
 865.166666667 1028.5 905.333333333 998.333333333 932 961 c 128
 958.666666667 923.666666667 977.333333333 879.333333333 988 828 c 0
 994.666666667 794.666666667 998 736.333333333 998 653 c 2
 998 0 l 1
 818 0 l 1
 818 646 l 2
 818 719.333333333 811 774.166666667 797 810.5 c 128
 783 846.833333333 758.166666667 875.833333333 722.5 897.5 c 128
 686.833333333 919.166666667 645 930 597 930 c 0
 520.333333333 930 454.166666667 905.666666667 398.5 857 c 128
 342.833333333 808.333333333 315 716 315 580 c 2
 315 0 l 1
 135 0 l 1
EndSplineSet
Validated: 1
EndChar

StartChar: o
Encoding: 111 111 79
Width: 1139
Flags: W
HStem: -24 148<409.698 722.989> 937 149<409.542 720.414>
VStem: 68 185<294.15 766.941> 878 185<296.254 766.11>
LayerCount: 2
Fore
SplineSet
68 531 m 0
 68 727.666666667 122.666666667 873.333333333 232 968 c 0
 323.333333333 1046.66666667 434.666666667 1086 566 1086 c 0
 712 1086 831.333333333 1038.16666667 924 942.5 c 0
 1016.66666667 846.833333333 1063 714.666666667 1063 546 c 0
 1063 409.333333333 1042.5 301.833333333 1001.5 223.5 c 0
 960.5 145.166666667 900.833333333 84.3333333333 822.5 41 c 0
 744.166666667 -2.33333333333 658.666666667 -24 566 -24 c 0
 417.333333333 -24 297.166666667 23.6666666667 205.5 119 c 0
 113.833333333 214.333333333 68 351.666666667 68 531 c 0
253 531 m 256
 253 395 282.666666667 293.166666667 342 225.5 c 0
 401.333333333 157.833333333 476 124 566 124 c 0
 655.333333333 124 729.666666667 158 789 226 c 0
 848.333333333 294 878 397.666666667 878 537 c 0
 878 668.333333333 848.166666667 767.833333333 788.5 835.5 c 0
 728.833333333 903.166666667 654.666666667 937 566 937 c 0
 476 937 401.333333333 903.333333333 342 836 c 0
 282.666666667 768.666666667 253 667 253 531 c 256
EndSplineSet
Validated: 1
EndChar

StartChar: p
Encoding: 112 112 80
Width: 1139
Flags: HW
LayerCount: 2
Fore
SplineSet
135 -407 m 1
 135 1062 l 1
 299 1062 l 1
 299 924 l 1
 337.666666667 978 381.333333333 1018.5 430 1045.5 c 128
 478.666666667 1072.5 537.666666667 1086 607 1086 c 0
 697.666666667 1086 777.666666667 1062.66666667 847 1016 c 128
 916.333333333 969.333333333 968.666666667 903.5 1004 818.5 c 128
 1039.33333333 733.5 1057 640.333333333 1057 539 c 0
 1057 430.333333333 1037.5 332.5 998.5 245.5 c 128
 959.5 158.5 902.833333333 91.8333333333 828.5 45.5 c 128
 754.166666667 -0.833333333333 676 -24 594 -24 c 0
 534 -24 480.166666667 -11.3333333333 432.5 14 c 128
 384.833333333 39.3333333333 345.666666667 71.3333333333 315 110 c 1
 315 -407 l 1
 135 -407 l 1
298 525 m 256
 298 388.333333333 325.666666667 287.333333333 381 222 c 128
 436.333333333 156.666666667 503.333333333 124 582 124 c 0
 662 124 730.5 157.833333333 787.5 225.5 c 128
 844.5 293.166666667 873 398 873 540 c 0
 873 675.333333333 845.166666667 776.666666667 789.5 844 c 128
 733.833333333 911.333333333 667.333333333 945 590 945 c 0
 513.333333333 945 445.5 909.166666667 386.5 837.5 c 128
 327.5 765.833333333 298 661.666666667 298 525 c 256
EndSplineSet
Validated: 1
EndChar

StartChar: q
Encoding: 113 113 81
Width: 1139
Flags: HW
LayerCount: 2
Fore
SplineSet
812 -407 m 1
 812 113 l 1
 784 73.6666666667 744.833333333 41 694.5 15 c 128
 644.166666667 -11 590.666666667 -24 534 -24 c 0
 408 -24 299.5 26.3333333333 208.5 127 c 128
 117.5 227.666666667 72 365.666666667 72 541 c 0
 72 647.666666667 90.5 743.333333333 127.5 828 c 128
 164.5 912.666666667 218.166666667 976.833333333 288.5 1020.5 c 128
 358.833333333 1064.16666667 436 1086 520 1086 c 0
 651.333333333 1086 754.666666667 1030.66666667 830 920 c 1
 830 1062 l 1
 992 1062 l 1
 992 -407 l 1
 812 -407 l 1
257 534 m 0
 257 397.333333333 285.666666667 294.833333333 343 226.5 c 128
 400.333333333 158.166666667 469 124 549 124 c 0
 625.666666667 124 691.666666667 156.5 747 221.5 c 128
 802.333333333 286.5 830 385.333333333 830 518 c 0
 830 659.333333333 800.833333333 765.666666667 742.5 837 c 128
 684.166666667 908.333333333 615.666666667 944 537 944 c 0
 459 944 392.833333333 910.833333333 338.5 844.5 c 128
 284.166666667 778.166666667 257 674.666666667 257 534 c 0
EndSplineSet
Validated: 1
EndChar

StartChar: r
Encoding: 114 114 82
Width: 682
Flags: HW
LayerCount: 2
Fore
SplineSet
133 0 m 1
 133 1062 l 1
 295 1062 l 1
 295 901 l 1
 336.333333333 976.333333333 374.5 1026 409.5 1050 c 128
 444.5 1074 483 1086 525 1086 c 0
 585.666666667 1086 647.333333333 1066.66666667 710 1028 c 1
 648 861 l 1
 604 887 560 900 516 900 c 0
 476.666666667 900 441.333333333 888.166666667 410 864.5 c 128
 378.666666667 840.833333333 356.333333333 808 343 766 c 0
 323 702 313 632 313 556 c 2
 313 0 l 1
 133 0 l 1
EndSplineSet
Validated: 1
EndChar

StartChar: s
Encoding: 115 115 83
Width: 1024
Flags: HW
LayerCount: 2
Fore
SplineSet
63 317 m 1
 241 345 l 1
 251 273.666666667 278.833333333 219 324.5 181 c 128
 370.166666667 143 434 124 516 124 c 0
 598.666666667 124 660 140.833333333 700 174.5 c 128
 740 208.166666667 760 247.666666667 760 293 c 0
 760 333.666666667 742.333333333 365.666666667 707 389 c 0
 682.333333333 405 621 425.333333333 523 450 c 0
 391 483.333333333 299.5 512.166666667 248.5 536.5 c 128
 197.5 560.833333333 158.833333333 594.5 132.5 637.5 c 128
 106.166666667 680.5 93 728 93 780 c 0
 93 827.333333333 103.833333333 871.166666667 125.5 911.5 c 128
 147.166666667 951.833333333 176.666666667 985.333333333 214 1012 c 0
 242 1032.66666667 280.166666667 1050.16666667 328.5 1064.5 c 128
 376.833333333 1078.83333333 428.666666667 1086 484 1086 c 0
 567.333333333 1086 640.5 1074 703.5 1050 c 128
 766.5 1026 813 993.5 843 952.5 c 128
 873 911.5 893.666666667 856.666666667 905 788 c 1
 729 764 l 1
 721 818.666666667 697.833333333 861.333333333 659.5 892 c 128
 621.166666667 922.666666667 567 938 497 938 c 0
 414.333333333 938 355.333333333 924.333333333 320 897 c 128
 284.666666667 869.666666667 267 837.666666667 267 801 c 0
 267 777.666666667 274.333333333 756.666666667 289 738 c 0
 303.666666667 718.666666667 326.666666667 702.666666667 358 690 c 0
 376 683.333333333 429 668 517 644 c 0
 644.333333333 610 733.166666667 582.166666667 783.5 560.5 c 128
 833.833333333 538.833333333 873.333333333 507.333333333 902 466 c 128
 930.666666667 424.666666667 945 373.333333333 945 312 c 0
 945 252 927.5 195.5 892.5 142.5 c 128
 857.5 89.5 807 48.5 741 19.5 c 128
 675 -9.5 600.333333333 -24 517 -24 c 0
 379 -24 273.833333333 4.66666666667 201.5 62 c 128
 129.166666667 119.333333333 83 204.333333333 63 317 c 1
EndSplineSet
Validated: 1
EndChar

StartChar: t
Encoding: 116 116 84
Width: 569
Flags: HW
LayerCount: 2
Fore
SplineSet
528 161 m 1
 554 2 l 1
 503.333333333 -8.66666666667 458 -14 418 -14 c 0
 352.666666667 -14 302 -3.66666666667 266 17 c 128
 230 37.6666666667 204.666666667 64.8333333333 190 98.5 c 128
 175.333333333 132.166666667 168 203 168 311 c 2
 168 922 l 1
 36 922 l 1
 36 1062 l 1
 168 1062 l 1
 168 1325 l 1
 347 1433 l 1
 347 1062 l 1
 528 1062 l 1
 528 922 l 1
 347 922 l 1
 347 301 l 2
 347 249.666666667 350.166666667 216.666666667 356.5 202 c 128
 362.833333333 187.333333333 373.166666667 175.666666667 387.5 167 c 128
 401.833333333 158.333333333 422.333333333 154 449 154 c 0
 469 154 495.333333333 156.333333333 528 161 c 1
EndSplineSet
Validated: 1
EndChar

StartChar: u
Encoding: 117 117 85
Width: 1139
Flags: HW
LayerCount: 2
Fore
SplineSet
831 0 m 1
 831 156 l 1
 748.333333333 36 636 -24 494 -24 c 0
 431.333333333 -24 372.833333333 -12 318.5 12 c 128
 264.166666667 36 223.833333333 66.1666666667 197.5 102.5 c 128
 171.166666667 138.833333333 152.666666667 183.333333333 142 236 c 0
 134.666666667 271.333333333 131 327.333333333 131 404 c 2
 131 1062 l 1
 311 1062 l 1
 311 473 l 2
 311 379 314.666666667 315.666666667 322 283 c 0
 333.333333333 235.666666667 357.333333333 198.5 394 171.5 c 128
 430.666666667 144.5 476 131 530 131 c 256
 584 131 634.666666667 144.833333333 682 172.5 c 128
 729.333333333 200.166666667 762.833333333 237.833333333 782.5 285.5 c 128
 802.166666667 333.166666667 812 402.333333333 812 493 c 2
 812 1062 l 1
 992 1062 l 1
 992 0 l 1
 831 0 l 1
EndSplineSet
Validated: 1
EndChar

StartChar: v
Encoding: 118 118 86
Width: 1024
Flags: HW
LayerCount: 2
Fore
SplineSet
430 0 m 1
 26 1062 l 1
 216 1062 l 1
 444 426 l 2
 468.666666667 357.333333333 491.333333333 286 512 212 c 1
 528 268 550.333333333 335.333333333 579 414 c 2
 815 1062 l 1
 1000 1062 l 1
 598 0 l 1
 430 0 l 1
EndSplineSet
Validated: 1
EndChar

StartChar: w
Encoding: 119 119 87
Width: 1479
Flags: HW
LayerCount: 2
Fore
SplineSet
331 0 m 1
 6 1062 l 1
 192 1062 l 1
 361 449 l 1
 424 221 l 1
 426.666666667 232.333333333 445 305.333333333 479 440 c 2
 648 1062 l 1
 833 1062 l 1
 992 446 l 1
 1045 243 l 1
 1106 448 l 1
 1288 1062 l 1
 1463 1062 l 1
 1131 0 l 1
 944 0 l 1
 775 636 l 1
 734 817 l 1
 519 0 l 1
 331 0 l 1
EndSplineSet
Validated: 1
EndChar

StartChar: x
Encoding: 120 120 88
Width: 1024
Flags: W
HStem: 0 21G<15 246.317 774.788 1009> 1042 20G<44 282.092 751.737 981>
LayerCount: 2
Fore
SplineSet
15 0 m 1
 403 552 l 1
 44 1062 l 1
 269 1062 l 1
 432 813 l 2
 462.666666667 765.666666667 487.333333333 726 506 694 c 1
 535.333333333 738 562.333333333 777 587 811 c 2
 766 1062 l 1
 981 1062 l 1
 614 562 l 1
 1009 0 l 1
 788 0 l 1
 570 330 l 1
 512 419 l 1
 233 0 l 1
 15 0 l 1
EndSplineSet
Validated: 1
EndChar

StartChar: y
Encoding: 121 121 89
Width: 1024
Flags: HW
LayerCount: 2
Fore
SplineSet
127 -409 m 1
 107 -240 l 1
 146.333333333 -250.666666667 180.666666667 -256 210 -256 c 0
 250 -256 282 -249.333333333 306 -236 c 128
 330 -222.666666667 349.666666667 -204 365 -180 c 0
 376.333333333 -162 394.666666667 -117.333333333 420 -46 c 0
 423.333333333 -36 428.666666667 -21.3333333333 436 -2 c 1
 33 1062 l 1
 227 1062 l 1
 448 447 l 2
 476.666666667 369 502.333333333 287 525 201 c 1
 545.666666667 283.666666667 570.333333333 364.333333333 599 443 c 2
 826 1062 l 1
 1006 1062 l 1
 602 -18 l 2
 558.666666667 -134.666666667 525 -215 501 -259 c 0
 469 -318.333333333 432.333333333 -361.833333333 391 -389.5 c 128
 349.666666667 -417.166666667 300.333333333 -431 243 -431 c 0
 208.333333333 -431 169.666666667 -423.666666667 127 -409 c 1
EndSplineSet
Validated: 1
EndChar

StartChar: z
Encoding: 122 122 90
Width: 1024
Flags: HW
LayerCount: 2
Fore
SplineSet
40 0 m 1
 40 146 l 1
 716 922 l 1
 639.333333333 918 571.666666667 916 513 916 c 2
 80 916 l 1
 80 1062 l 1
 948 1062 l 1
 948 943 l 1
 373 269 l 1
 262 146 l 1
 342.666666667 152 418.333333333 155 489 155 c 2
 980 155 l 1
 980 0 l 1
 40 0 l 1
EndSplineSet
Validated: 1
EndChar

StartChar: braceleft
Encoding: 123 123 91
Width: 682
Flags: HW
LayerCount: 2
Fore
SplineSet
479 -431 m 1
 379.666666667 -305.666666667 295.666666667 -159 227 9 c 128
 158.333333333 177 124 351 124 531 c 0
 124 689.666666667 149.666666667 841.666666667 201 987 c 0
 261 1155.66666667 353.666666667 1323.66666667 479 1491 c 1
 608 1491 l 1
 527.333333333 1352.33333333 474 1253.33333333 448 1194 c 0
 407.333333333 1102 375.333333333 1006 352 906 c 0
 323.333333333 781.333333333 309 656 309 530 c 0
 309 209.333333333 408.666666667 -111 608 -431 c 1
 479 -431 l 1
EndSplineSet
Validated: 1
EndChar

StartChar: bar
Encoding: 124 124 92
Width: 532
Flags: HW
LayerCount: 2
Fore
SplineSet
188 -431 m 1
 188 1491 l 1
 345 1491 l 1
 345 -431 l 1
 188 -431 l 1
EndSplineSet
Validated: 1
EndChar

StartChar: braceright
Encoding: 125 125 93
Width: 682
Flags: HW
LayerCount: 2
Fore
SplineSet
253 -431 m 1
 124 -431 l 1
 323.333333333 -111 423 209.333333333 423 530 c 0
 423 655.333333333 408.666666667 779.666666667 380 903 c 0
 357.333333333 1003 325.666666667 1099 285 1191 c 0
 259 1251 205.333333333 1351 124 1491 c 1
 253 1491 l 1
 378.333333333 1323.66666667 471 1155.66666667 531 987 c 0
 582.333333333 841.666666667 608 689.666666667 608 531 c 0
 608 351 573.5 177 504.5 9 c 128
 435.5 -159 351.666666667 -305.666666667 253 -431 c 1
EndSplineSet
Validated: 1
EndChar

StartChar: asciitilde
Encoding: 126 126 94
Width: 1196
Flags: HW
LayerCount: 2
Fore
SplineSet
87 557 m 1
 87 762 l 1
 157.666666667 842 250.333333333 882 365 882 c 0
 405 882 447 876.166666667 491 864.5 c 128
 535 852.833333333 597.666666667 829.666666667 679 795 c 0
 725 775.666666667 759.5 763 782.5 757 c 128
 805.5 751 828.666666667 748 852 748 c 0
 895.333333333 748 940.166666667 761 986.5 787 c 128
 1032.83333333 813 1074 845.666666667 1110 885 c 1
 1110 673 l 1
 1067.33333333 633 1024.16666667 604 980.5 586 c 128
 936.833333333 568 887.666666667 559 833 559 c 0
 793 559 754.833333333 563.666666667 718.5 573 c 128
 682.166666667 582.333333333 624.5 604.666666667 545.5 640 c 128
 466.5 675.333333333 400.666666667 693 348 693 c 0
 305.333333333 693 265.166666667 683.833333333 227.5 665.5 c 128
 189.833333333 647.166666667 143 611 87 557 c 1
EndSplineSet
Validated: 1
EndChar

StartChar: exclamdown
Encoding: 161 161 96
Width: 682
Flags: HW
LayerCount: 2
Fore
SplineSet
447 1062 m 1
 447 857 l 1
 240 857 l 1
 240 1062 l 1
 447 1062 l 1
400 697 m 1
 455 -79 l 1
 455 -404 l 1
 232 -404 l 1
 232 -79 l 1
 284 697 l 1
 400 697 l 1
EndSplineSet
Validated: 1
EndChar

StartChar: cent
Encoding: 162 162 97
Width: 1139
Flags: HW
LayerCount: 2
Fore
SplineSet
744 894 m 1
 522 128 l 1
 544 122 564.333333333 119 583 119 c 0
 652.333333333 119 712.166666667 142.666666667 762.5 190 c 128
 812.833333333 237.333333333 843.666666667 303.666666667 855 389 c 1
 1034 369 l 1
 1012 245.666666667 959.833333333 148.666666667 877.5 78 c 128
 795.166666667 7.33333333333 698 -28 586 -28 c 0
 553.333333333 -28 519 -23.3333333333 483 -14 c 1
 365 -409 l 1
 253 -377 l 1
 368 21 l 1
 291.333333333 57.6666666667 228.666666667 118.833333333 180 204.5 c 128
 131.333333333 290.166666667 107 397.333333333 107 526 c 0
 107 644.666666667 126.5 746.5 165.5 831.5 c 128
 204.5 916.5 262.833333333 980.333333333 340.5 1023 c 128
 418.166666667 1065.66666667 497.333333333 1087 578 1087 c 0
 602 1087 635.333333333 1084.33333333 678 1079 c 1
 791 1466 l 1
 901 1434 l 1
 789 1047 l 1
 855 1018.33333333 905.666666667 979.833333333 941 931.5 c 128
 976.333333333 883.166666667 1001 822.666666667 1015 750 c 1
 840 723 l 1
 822.666666667 797.666666667 790.666666667 854.666666667 744 894 c 1
638 940 m 1
 616.666666667 942 600 943 588 943 c 0
 533.333333333 943 482.166666667 927.833333333 434.5 897.5 c 128
 386.833333333 867.166666667 351.166666667 820.166666667 327.5 756.5 c 128
 303.833333333 692.833333333 292 619 292 535 c 0
 292 447 302.666666667 372.666666667 324 312 c 128
 345.333333333 251.333333333 375.666666667 206.333333333 415 177 c 1
 638 940 l 1
EndSplineSet
Validated: 1
EndChar

StartChar: sterling
Encoding: 163 163 98
Width: 1139
Flags: HW
LayerCount: 2
Fore
SplineSet
396 809 m 1
 711 809 l 1
 711 661 l 1
 427 661 l 1
 439.666666667 631.666666667 446 602.333333333 446 573 c 0
 446 515 432.166666667 453.666666667 404.5 389 c 128
 376.833333333 324.333333333 331.333333333 258.333333333 268 191 c 1
 320.666666667 205.666666667 368.666666667 213 412 213 c 0
 467.333333333 213 529.666666667 204.666666667 599 188 c 0
 713.666666667 160.666666667 791.333333333 147 832 147 c 0
 881.333333333 147 945.333333333 165.666666667 1024 203 c 1
 1082 38 l 1
 1020.66666667 12 973.166666667 -5 939.5 -13 c 128
 905.833333333 -21 872.333333333 -25 839 -25 c 0
 811 -25 782.666666667 -22.3333333333 754 -17 c 0
 736 -13.6666666667 692.833333333 -1.5 624.5 19.5 c 128
 556.166666667 40.5 512 53 492 57 c 0
 460.666666667 62.3333333333 429.333333333 65 398 65 c 0
 350 65 298.833333333 56.6666666667 244.5 40 c 128
 190.166666667 23.3333333333 140.666666667 0.666666666667 96 -28 c 1
 27 145 l 1
 91 180.333333333 145.333333333 230.833333333 190 296.5 c 128
 234.666666667 362.166666667 257 442.333333333 257 537 c 0
 257 577.666666667 251.333333333 619 240 661 c 1
 44 661 l 1
 44 809 l 1
 198 809 l 1
 176 883.666666667 162 938.166666667 156 972.5 c 128
 150 1006.83333333 147 1040.33333333 147 1073 c 0
 147 1211.66666667 198.333333333 1320 301 1398 c 0
 383.666666667 1460 483.666666667 1491 601 1491 c 0
 721.666666667 1491 821.166666667 1457.83333333 899.5 1391.5 c 128
 977.833333333 1325.16666667 1026 1232 1044 1112 c 1
 865 1085 l 1
 855 1165 825.166666667 1228 775.5 1274 c 128
 725.833333333 1320 666.333333333 1343 597 1343 c 0
 523 1343 461.5 1319.16666667 412.5 1271.5 c 128
 363.5 1223.83333333 339 1166.33333333 339 1099 c 0
 339 1025 358 928.333333333 396 809 c 1
EndSplineSet
Validated: 1
EndChar

StartChar: currency
Encoding: 164 164 99
Width: 1139
Flags: HW
LayerCount: 2
Fore
SplineSet
213 961 m 1
 74 1097 l 1
 189 1216 l 1
 328 1077 l 1
 398.666666667 1125 477.666666667 1149 565 1149 c 0
 653 1149 732 1125 802 1077 c 1
 941 1216 l 1
 1057 1097 l 1
 918 961 l 1
 965.333333333 887.666666667 989 809.333333333 989 726 c 0
 989 642 965.333333333 563.333333333 918 490 c 1
 1057 354 l 1
 941 235 l 1
 802 375 l 1
 732 326.333333333 653 302 565 302 c 0
 477.666666667 302 398.666666667 326.333333333 328 375 c 1
 189 235 l 1
 74 354 l 1
 213 490 l 1
 165.666666667 563.333333333 142 642 142 726 c 0
 142 809.333333333 165.666666667 887.666666667 213 961 c 1
305 726 m 0
 305 654 330.333333333 592.666666667 381 542 c 128
 431.666666667 491.333333333 492.666666667 466 564 466 c 256
 635.333333333 466 696.333333333 491.333333333 747 542 c 128
 797.666666667 592.666666667 823 654 823 726 c 0
 823 797.333333333 797.833333333 858.333333333 747.5 909 c 128
 697.166666667 959.666666667 636 985 564 985 c 0
 492.666666667 985 431.666666667 959.666666667 381 909 c 128
 330.333333333 858.333333333 305 797.333333333 305 726 c 0
EndSplineSet
Validated: 1
EndChar

StartChar: yen
Encoding: 165 165 100
Width: 1139
Flags: HW
LayerCount: 2
Fore
SplineSet
477 0 m 1
 477 325 l 1
 62 325 l 1
 62 464 l 1
 477 464 l 1
 477 607 l 1
 62 607 l 1
 62 755 l 1
 403 755 l 1
 -3 1466 l 1
 197 1466 l 1
 487 950 l 2
 519.666666667 891.333333333 545 840 563 796 c 1
 578.333333333 831.333333333 605.666666667 885.666666667 645 959 c 2
 919 1466 l 1
 1133 1466 l 1
 728 755 l 1
 1069 755 l 1
 1069 607 l 1
 657 607 l 1
 657 464 l 1
 1069 464 l 1
 1069 325 l 1
 657 325 l 1
 657 0 l 1
 477 0 l 1
EndSplineSet
Validated: 1
EndChar

StartChar: brokenbar
Encoding: 166 166 101
Width: 532
Flags: HW
LayerCount: 2
Fore
SplineSet
345 1491 m 1
 345 701 l 1
 188 701 l 1
 188 1491 l 1
 345 1491 l 1
345 360 m 1
 345 -431 l 1
 188 -431 l 1
 188 360 l 1
 345 360 l 1
EndSplineSet
Validated: 1
EndChar

StartChar: section
Encoding: 167 167 102
Width: 1139
Flags: HW
LayerCount: 2
Fore
SplineSet
143 -70 m 1
 324 -44 l 1
 342.666666667 -130.666666667 372.333333333 -191.5 413 -226.5 c 128
 453.666666667 -261.5 509 -279 579 -279 c 0
 647 -279 700.166666667 -261.666666667 738.5 -227 c 128
 776.833333333 -192.333333333 796 -151.666666667 796 -105 c 0
 796 -71 784 -39.6666666667 760 -11 c 0
 718.666666667 39 605.333333333 120.666666667 420 234 c 0
 321.333333333 294.666666667 252.5 342.166666667 213.5 376.5 c 128
 174.5 410.833333333 142.666666667 451.333333333 118 498 c 128
 93.3333333333 544.666666667 81 593.333333333 81 644 c 0
 81 708 101 766 141 818 c 128
 181 870 236 906.333333333 306 927 c 1
 258.666666667 972.333333333 225.333333333 1014.16666667 206 1052.5 c 128
 186.666666667 1090.83333333 177 1131.66666667 177 1175 c 0
 177 1260.33333333 210.333333333 1334.33333333 277 1397 c 128
 343.666666667 1459.66666667 432 1491 542 1491 c 0
 666.666666667 1491 764 1461.33333333 834 1402 c 128
 904 1342.66666667 946 1256.66666667 960 1144 c 1
 773 1125 l 1
 759 1206.33333333 734.5 1263 699.5 1295 c 128
 664.5 1327 617.333333333 1343 558 1343 c 0
 496.666666667 1343 447.166666667 1326.5 409.5 1293.5 c 128
 371.833333333 1260.5 353 1224 353 1184 c 0
 353 1149.33333333 365 1117.33333333 389 1088 c 0
 426.333333333 1042.66666667 528.333333333 969.333333333 695 868 c 0
 799.666666667 804 870.333333333 757 907 727 c 0
 954.333333333 687 989.166666667 645.666666667 1011.5 603 c 128
 1033.83333333 560.333333333 1045 514 1045 464 c 0
 1045 388.666666667 1020.66666667 324.333333333 972 271 c 0
 944 240.333333333 892.666666667 209.333333333 818 178 c 1
 871.333333333 137.333333333 911.166666667 93.6666666667 937.5 47 c 128
 963.833333333 0.333333333333 977 -49.6666666667 977 -103 c 0
 977 -161.666666667 960.333333333 -217.166666667 927 -269.5 c 128
 893.666666667 -321.833333333 845.666666667 -361.833333333 783 -389.5 c 128
 720.333333333 -417.166666667 652.666666667 -431 580 -431 c 0
 452.666666667 -431 351.666666667 -399.166666667 277 -335.5 c 128
 202.333333333 -271.833333333 157.666666667 -183.333333333 143 -70 c 1
728 244 m 1
 777.333333333 269.333333333 814.166666667 298.833333333 838.5 332.5 c 128
 862.833333333 366.166666667 875 399 875 431 c 0
 875 469 857.666666667 509 823 551 c 0
 787.666666667 593 712.666666667 649.333333333 598 720 c 0
 506.666666667 776 438.666666667 822 394 858 c 1
 340 827.333333333 301.5 796.666666667 278.5 766 c 128
 255.5 735.333333333 244 701.333333333 244 664 c 0
 244 622 259.333333333 582 290 544 c 256
 320.666666667 506 389.666666667 455.333333333 497 392 c 0
 586.333333333 339.333333333 663.333333333 290 728 244 c 1
EndSplineSet
Validated: 1
EndChar

StartChar: dieresis
Encoding: 168 168 103
Width: 682
Flags: HW
LayerCount: 2
Fore
SplineSet
61 1270 m 1
 61 1475 l 1
 249 1475 l 1
 249 1270 l 1
 61 1270 l 1
434 1270 m 1
 434 1475 l 1
 622 1475 l 1
 622 1270 l 1
 434 1270 l 1
EndSplineSet
Validated: 1
EndChar

StartChar: copyright
Encoding: 169 169 104
Width: 1509
Flags: HW
LayerCount: 2
Fore
SplineSet
758 1491 m 256
 884.666666667 1491 1008.33333333 1458.5 1129 1393.5 c 128
 1249.66666667 1328.5 1343.66666667 1235.5 1411 1114.5 c 128
 1478.33333333 993.5 1512 867.333333333 1512 736 c 0
 1512 606 1478.83333333 481 1412.5 361 c 128
 1346.16666667 241 1253.16666667 147.833333333 1133.5 81.5 c 128
 1013.83333333 15.1666666667 888.666666667 -18 758 -18 c 256
 627.333333333 -18 502.166666667 15.1666666667 382.5 81.5 c 128
 262.833333333 147.833333333 169.666666667 241 103 361 c 128
 36.3333333333 481 3 606 3 736 c 0
 3 867.333333333 36.8333333333 993.5 104.5 1114.5 c 128
 172.166666667 1235.5 266.333333333 1328.5 387 1393.5 c 128
 507.666666667 1458.5 631.333333333 1491 758 1491 c 256
758 1366 m 0
 652 1366 548.833333333 1338.83333333 448.5 1284.5 c 128
 348.166666667 1230.16666667 269.666666667 1152.5 213 1051.5 c 128
 156.333333333 950.5 128 845.333333333 128 736 c 0
 128 627.333333333 155.833333333 523.166666667 211.5 423.5 c 128
 267.166666667 323.833333333 345 246.166666667 445 190.5 c 128
 545 134.833333333 649.333333333 107 758 107 c 256
 866.666666667 107 971 134.833333333 1071 190.5 c 128
 1171 246.166666667 1248.66666667 323.833333333 1304 423.5 c 128
 1359.33333333 523.166666667 1387 627.333333333 1387 736 c 0
 1387 845.333333333 1358.83333333 950.5 1302.5 1051.5 c 128
 1246.16666667 1152.5 1167.66666667 1230.16666667 1067 1284.5 c 128
 966.333333333 1338.83333333 863.333333333 1366 758 1366 c 0
1000 614 m 1
 1123 578 l 1
 1103 494.666666667 1060.5 428.166666667 995.5 378.5 c 128
 930.5 328.833333333 851.666666667 304 759 304 c 0
 641.666666667 304 546.333333333 342 473 418 c 128
 399.666666667 494 363 599.333333333 363 734 c 0
 363 822 379.666666667 898.5 413 963.5 c 128
 446.333333333 1028.5 493.833333333 1077.5 555.5 1110.5 c 128
 617.166666667 1143.5 687.666666667 1160 767 1160 c 0
 855.666666667 1160 929.333333333 1138.83333333 988 1096.5 c 128
 1046.66666667 1054.16666667 1086.66666667 996.666666667 1108 924 c 1
 989 895 l 1
 969 944.333333333 939.5 982.166666667 900.5 1008.5 c 128
 861.5 1034.83333333 815.666666667 1048 763 1048 c 0
 686.333333333 1048 623.166666667 1020.66666667 573.5 966 c 128
 523.833333333 911.333333333 499 833 499 731 c 256
 499 629 522.5 551.833333333 569.5 499.5 c 128
 616.5 447.166666667 677.333333333 421 752 421 c 0
 812 421 864.666666667 438.333333333 910 473 c 128
 955.333333333 507.666666667 985.333333333 554.666666667 1000 614 c 1
EndSplineSet
Validated: 1
EndChar

StartChar: ordfeminine
Encoding: 170 170 105
Width: 1366
Flags: HW
LayerCount: 2
Fore
SplineSet
973 173 m 1
 913.666666667 107 849 57.5 779 24.5 c 128
 709 -8.5 633.333333333 -25 552 -25 c 0
 402 -25 283 25.6666666667 195 127 c 0
 123.666666667 209.666666667 88 302 88 404 c 0
 88 494.666666667 117.166666667 576.5 175.5 649.5 c 128
 233.833333333 722.5 321 786.666666667 437 842 c 1
 371 918 327 979.666666667 305 1027 c 128
 283 1074.33333333 272 1120 272 1164 c 0
 272 1252 306.5 1328.5 375.5 1393.5 c 128
 444.5 1458.5 531.333333333 1491 636 1491 c 0
 736 1491 817.833333333 1460.33333333 881.5 1399 c 128
 945.166666667 1337.66666667 977 1264 977 1178 c 0
 977 1038.66666667 884.666666667 919.666666667 700 821 c 1
 963 486 l 1
 993 544.666666667 1016.33333333 612.666666667 1033 690 c 1
 1220 650 l 1
 1188 522 1144.66666667 416.666666667 1090 334 c 1
 1157.33333333 244.666666667 1233.66666667 169.666666667 1319 109 c 1
 1198 -34 l 1
 1125.33333333 12.6666666667 1050.33333333 81.6666666667 973 173 c 1
607 937 m 1
 685 983 735.5 1023.33333333 758.5 1058 c 128
 781.5 1092.66666667 793 1131 793 1173 c 0
 793 1223 777.166666667 1263.83333333 745.5 1295.5 c 128
 713.833333333 1327.16666667 674.333333333 1343 627 1343 c 0
 578.333333333 1343 537.833333333 1327.33333333 505.5 1296 c 128
 473.166666667 1264.66666667 457 1226.33333333 457 1181 c 0
 457 1158.33333333 462.833333333 1134.5 474.5 1109.5 c 128
 486.166666667 1084.5 503.666666667 1058 527 1030 c 2
 607 937 l 1
860 315 m 1
 530 724 l 1
 432.666666667 666 367 612.166666667 333 562.5 c 128
 299 512.833333333 282 463.666666667 282 415 c 0
 282 355.666666667 305.666666667 294 353 230 c 128
 400.333333333 166 467.333333333 134 554 134 c 0
 608 134 663.833333333 150.833333333 721.5 184.5 c 128
 779.166666667 218.166666667 825.333333333 261.666666667 860 315 c 1
EndSplineSet
Validated: 1
EndChar

StartChar: guillemotleft
Encoding: 171 171 106
Width: 684
Flags: HW
LayerCount: 2
Fore
SplineSet
57 612 m 1
 108.333333333 613.333333333 150.166666667 627.166666667 182.5 653.5 c 128
 214.833333333 679.833333333 236.333333333 716 247 762 c 128
 257.666666667 808 263.333333333 886.666666667 264 998 c 128
 264.666666667 1109.33333333 266.666666667 1182.66666667 270 1218 c 0
 276 1274 287.166666667 1319 303.5 1353 c 128
 319.833333333 1387 340 1414.16666667 364 1434.5 c 128
 388 1454.83333333 418.666666667 1470.33333333 456 1481 c 0
 481.333333333 1487.66666667 522.666666667 1491 580 1491 c 2
 636 1491 l 1
 636 1334 l 1
 605 1334 l 2
 535.666666667 1334 489.666666667 1321.5 467 1296.5 c 128
 444.333333333 1271.5 433 1215.66666667 433 1129 c 0
 433 954.333333333 429.333333333 844 422 798 c 0
 410 726.666666667 389.5 671.666666667 360.5 633 c 128
 331.5 594.333333333 286 560 224 530 c 1
 297.333333333 499.333333333 350.5 452.5 383.5 389.5 c 128
 416.5 326.5 433 223.333333333 433 80 c 0
 433 -50 434.333333333 -127.333333333 437 -152 c 0
 442.333333333 -197.333333333 455.833333333 -229 477.5 -247 c 128
 499.166666667 -265 541.666666667 -274 605 -274 c 2
 636 -274 l 1
 636 -431 l 1
 580 -431 l 2
 514.666666667 -431 467.333333333 -425.666666667 438 -415 c 0
 395.333333333 -399.666666667 360 -374.833333333 332 -340.5 c 128
 304 -306.166666667 285.833333333 -262.666666667 277.5 -210 c 128
 269.166666667 -157.333333333 264.666666667 -71 264 49 c 128
 263.333333333 169 257.666666667 252 247 298 c 128
 236.333333333 344 214.833333333 380.333333333 182.5 407 c 128
 150.166666667 433.666666667 108.333333333 447.666666667 57 449 c 1
 57 612 l 1
EndSplineSet
Validated: 1
EndChar

StartChar: logicalnot
Encoding: 172 172 107
Width: 1196
Flags: HW
LayerCount: 2
Fore
SplineSet
1082 424 m 1
 912 424 l 1
 912 862 l 1
 114 862 l 1
 114 1030 l 1
 1082 1030 l 1
 1082 424 l 1
EndSplineSet
Validated: 1
EndChar

StartChar: uni00AD
Encoding: 173 173 108
Width: 682
Flags: HW
LayerCount: 2
Fore
SplineSet
65 440 m 1
 65 621 l 1
 618 621 l 1
 618 440 l 1
 65 440 l 1
EndSplineSet
Validated: 1
EndChar

StartChar: registered
Encoding: 174 174 109
Width: 1509
Flags: HW
LayerCount: 2
Fore
SplineSet
758 1491 m 256
 884.666666667 1491 1008.33333333 1458.5 1129 1393.5 c 128
 1249.66666667 1328.5 1343.66666667 1235.5 1411 1114.5 c 128
 1478.33333333 993.5 1512 867.333333333 1512 736 c 0
 1512 606 1478.83333333 481 1412.5 361 c 128
 1346.16666667 241 1253.16666667 147.833333333 1133.5 81.5 c 128
 1013.83333333 15.1666666667 888.666666667 -18 758 -18 c 256
 627.333333333 -18 502.166666667 15.1666666667 382.5 81.5 c 128
 262.833333333 147.833333333 169.666666667 241 103 361 c 128
 36.3333333333 481 3 606 3 736 c 0
 3 867.333333333 36.8333333333 993.5 104.5 1114.5 c 128
 172.166666667 1235.5 266.333333333 1328.5 387 1393.5 c 128
 507.666666667 1458.5 631.333333333 1491 758 1491 c 256
758 1366 m 0
 652 1366 548.833333333 1338.83333333 448.5 1284.5 c 128
 348.166666667 1230.16666667 269.666666667 1152.5 213 1051.5 c 128
 156.333333333 950.5 128 845.333333333 128 736 c 0
 128 627.333333333 155.833333333 523.166666667 211.5 423.5 c 128
 267.166666667 323.833333333 345 246.166666667 445 190.5 c 128
 545 134.833333333 649.333333333 107 758 107 c 256
 866.666666667 107 971 134.833333333 1071 190.5 c 128
 1171 246.166666667 1248.66666667 323.833333333 1304 423.5 c 128
 1359.33333333 523.166666667 1387 627.333333333 1387 736 c 0
 1387 845.333333333 1358.83333333 950.5 1302.5 1051.5 c 128
 1246.16666667 1152.5 1167.66666667 1230.16666667 1067 1284.5 c 128
 966.333333333 1338.83333333 863.333333333 1366 758 1366 c 0
427 319 m 1
 427 1131 l 1
 706 1131 l 2
 801.333333333 1131 870.333333333 1123.5 913 1108.5 c 128
 955.666666667 1093.5 989.666666667 1067.33333333 1015 1030 c 128
 1040.33333333 992.666666667 1053 953 1053 911 c 0
 1053 851.666666667 1031.83333333 800 989.5 756 c 128
 947.166666667 712 891 687.333333333 821 682 c 1
 849.666666667 670 872.666666667 655.666666667 890 639 c 0
 922.666666667 607 962.666666667 553.333333333 1010 478 c 2
 1109 319 l 1
 949 319 l 1
 877 447 l 2
 820.333333333 547.666666667 774.666666667 610.666666667 740 636 c 0
 716 654.666666667 681 664 635 664 c 2
 558 664 l 1
 558 319 l 1
 427 319 l 1
558 776 m 1
 717 776 l 2
 793 776 844.833333333 787.333333333 872.5 810 c 128
 900.166666667 832.666666667 914 862.666666667 914 900 c 0
 914 924 907.333333333 945.5 894 964.5 c 128
 880.666666667 983.5 862.166666667 997.666666667 838.5 1007 c 128
 814.833333333 1016.33333333 771 1021 707 1021 c 2
 558 1021 l 1
 558 776 l 1
EndSplineSet
Validated: 1
EndChar

StartChar: macron
Encoding: 175 175 110
Width: 1131
Flags: HW
LayerCount: 2
Fore
SplineSet
-31 1566 m 1
 -31 1695 l 1
 1162 1695 l 1
 1162 1566 l 1
 -31 1566 l 1
EndSplineSet
Validated: 1
EndChar

StartChar: degree
Encoding: 176 176 111
Width: 819
Flags: HW
LayerCount: 2
Fore
SplineSet
128 1214 m 0
 128 1290.66666667 155.166666667 1356 209.5 1410 c 128
 263.833333333 1464 329 1491 405 1491 c 0
 482.333333333 1491 548 1464 602 1410 c 128
 656 1356 683 1290.66666667 683 1214 c 256
 683 1137.33333333 655.833333333 1071.83333333 601.5 1017.5 c 128
 547.166666667 963.166666667 481.666666667 936 405 936 c 0
 329 936 263.833333333 963 209.5 1017 c 128
 155.166666667 1071 128 1136.66666667 128 1214 c 0
237 1214 m 256
 237 1167.33333333 253.5 1127.5 286.5 1094.5 c 128
 319.5 1061.5 359.333333333 1045 406 1045 c 0
 452 1045 491.5 1061.5 524.5 1094.5 c 128
 557.5 1127.5 574 1167.33333333 574 1214 c 256
 574 1260.66666667 557.5 1300.5 524.5 1333.5 c 128
 491.5 1366.5 452 1383 406 1383 c 0
 359.333333333 1383 319.5 1366.5 286.5 1333.5 c 128
 253.5 1300.5 237 1260.66666667 237 1214 c 256
EndSplineSet
Validated: 1
EndChar

StartChar: plusminus
Encoding: 177 177 112
Width: 1124
Flags: HW
LayerCount: 2
Fore
SplineSet
477 260 m 1
 477 663 l 1
 78 663 l 1
 78 830 l 1
 477 830 l 1
 477 1229 l 1
 647 1229 l 1
 647 830 l 1
 1046 830 l 1
 1046 663 l 1
 647 663 l 1
 647 260 l 1
 477 260 l 1
1046 0 m 1
 78 0 l 1
 78 168 l 1
 1046 168 l 1
 1046 0 l 1
EndSplineSet
Validated: 1
EndChar

StartChar: uni00B2
Encoding: 178 178 113
Width: 2079
Flags: HW
LayerCount: 2
Fore
SplineSet
1161 163 m 1
 1117.66666667 113 1069.16666667 72.8333333333 1015.5 42.5 c 128
 961.833333333 12.1666666667 908 -3 854 -3 c 0
 794.666666667 -3 737 14.3333333333 681 49 c 128
 625 83.6666666667 579.5 137 544.5 209 c 128
 509.5 281 492 360 492 446 c 0
 492 552 519.166666667 658.166666667 573.5 764.5 c 128
 627.833333333 870.833333333 695.333333333 950.666666667 776 1004 c 128
 856.666666667 1057.33333333 935 1084 1011 1084 c 0
 1069 1084 1124.33333333 1068.83333333 1177 1038.5 c 128
 1229.66666667 1008.16666667 1275 962 1313 900 c 1
 1347 1055 l 1
 1526 1055 l 1
 1382 384 l 2
 1362 290.666666667 1352 239 1352 229 c 0
 1352 211 1358.83333333 195.5 1372.5 182.5 c 128
 1386.16666667 169.5 1402.66666667 163 1422 163 c 0
 1457.33333333 163 1503.66666667 183.333333333 1561 224 c 0
 1637 277.333333333 1697.16666667 348.833333333 1741.5 438.5 c 128
 1785.83333333 528.166666667 1808 620.666666667 1808 716 c 0
 1808 827.333333333 1779.5 931.333333333 1722.5 1028 c 128
 1665.5 1124.66666667 1580.5 1202 1467.5 1260 c 128
 1354.5 1318 1229.66666667 1347 1093 1347 c 0
 937 1347 794.5 1310.5 665.5 1237.5 c 128
 536.5 1164.5 436.5 1059.83333333 365.5 923.5 c 128
 294.5 787.166666667 259 641 259 485 c 0
 259 321.666666667 294.5 181 365.5 63 c 128
 436.5 -55 539.166666667 -142.166666667 673.5 -198.5 c 128
 807.833333333 -254.833333333 956.666666667 -283 1120 -283 c 0
 1294.66666667 -283 1441 -253.666666667 1559 -195 c 128
 1677 -136.333333333 1765.33333333 -65 1824 19 c 1
 2005 19 l 1
 1971 -51 1912.66666667 -122.333333333 1830 -195 c 128
 1747.33333333 -267.666666667 1649 -325.166666667 1535 -367.5 c 128
 1421 -409.833333333 1283.66666667 -431 1123 -431 c 0
 975 -431 838.5 -412 713.5 -374 c 128
 588.5 -336 482 -278.833333333 394 -202.5 c 128
 306 -126.166666667 239.666666667 -38.3333333333 195 61 c 0
 139 187 111 323 111 469 c 0
 111 631.666666667 144.333333333 786.666666667 211 934 c 0
 292.333333333 1114.66666667 407.833333333 1253 557.5 1349 c 128
 707.166666667 1445 888.666666667 1493 1102 1493 c 0
 1267.33333333 1493 1415.83333333 1459.16666667 1547.5 1391.5 c 128
 1679.16666667 1323.83333333 1783 1223 1859 1089 c 0
 1923.66666667 973.666666667 1956 848.333333333 1956 713 c 0
 1956 519.666666667 1888 348 1752 198 c 0
 1630.66666667 63.3333333333 1498 -4 1354 -4 c 0
 1308 -4 1270.83333333 3 1242.5 17 c 128
 1214.16666667 31 1193.33333333 51 1180 77 c 0
 1171.33333333 93.6666666667 1165 122.333333333 1161 163 c 1
677 434 m 0
 677 342.666666667 698.666666667 271.666666667 742 221 c 128
 785.333333333 170.333333333 835 145 891 145 c 0
 928.333333333 145 967.666666667 156.166666667 1009 178.5 c 128
 1050.33333333 200.833333333 1089.83333333 234 1127.5 278 c 128
 1165.16666667 322 1196 377.833333333 1220 445.5 c 128
 1244 513.166666667 1256 581 1256 649 c 0
 1256 739.666666667 1233.5 810 1188.5 860 c 128
 1143.5 910 1088.66666667 935 1024 935 c 0
 981.333333333 935 941.166666667 924.166666667 903.5 902.5 c 128
 865.833333333 880.833333333 829.333333333 846 794 798 c 128
 758.666666667 750 730.333333333 691.666666667 709 623 c 128
 687.666666667 554.333333333 677 491.333333333 677 434 c 0
EndSplineSet
Validated: 1
EndChar

StartChar: uni00B3
Encoding: 179 179 114
Width: 1139
Flags: HW
LayerCount: 2
Fore
SplineSet
103 -25 m 1
 190 401 l 1
 21 401 l 1
 21 550 l 1
 220 550 l 1
 294 913 l 1
 21 913 l 1
 21 1062 l 1
 324 1062 l 1
 411 1491 l 1
 561 1491 l 1
 474 1062 l 1
 789 1062 l 1
 876 1491 l 1
 1027 1491 l 1
 940 1062 l 1
 1113 1062 l 1
 1113 913 l 1
 910 913 l 1
 835 550 l 1
 1113 550 l 1
 1113 401 l 1
 805 401 l 1
 718 -25 l 1
 568 -25 l 1
 654 401 l 1
 340 401 l 1
 253 -25 l 1
 103 -25 l 1
370 550 m 1
 684 550 l 1
 759 913 l 1
 444 913 l 1
 370 550 l 1
EndSplineSet
Validated: 1
EndChar

StartChar: acute
Encoding: 180 180 115
Width: 682
Flags: HW
LayerCount: 2
Fore
SplineSet
222 1194 m 1
 355 1474 l 1
 591 1474 l 1
 371 1194 l 1
 222 1194 l 1
EndSplineSet
EndChar

StartChar: mu
Encoding: 181 181 116
Width: 1180
Flags: HW
LayerCount: 2
Fore
SplineSet
1018 1062 m 1
 1018 0 l 1
 857 0 l 1
 857 126 l 1
 822.333333333 72.6666666667 788 36 754 16 c 0
 707.333333333 -11.3333333333 653 -25 591 -25 c 0
 535.666666667 -25 486.666666667 -14 444 8 c 0
 412 24.6666666667 376.666666667 57.6666666667 338 107 c 1
 338 -407 l 1
 160 -407 l 1
 160 1062 l 1
 338 1062 l 1
 338 612 l 2
 338 448.666666667 346.666666667 342.833333333 364 294.5 c 128
 381.333333333 246.166666667 409.5 208 448.5 180 c 128
 487.5 152 532.333333333 138 583 138 c 0
 636.333333333 138 684 152.666666667 726 182 c 128
 768 211.333333333 797.666666667 249.166666667 815 295.5 c 128
 832.333333333 341.833333333 841 446.333333333 841 609 c 2
 841 1062 l 1
 1018 1062 l 1
EndSplineSet
Validated: 1
EndChar

StartChar: paragraph
Encoding: 182 182 117
Width: 1100
Flags: HW
LayerCount: 2
Fore
SplineSet
405 -407 m 1
 405 638 l 1
 280.333333333 644.666666667 181.833333333 685.166666667 109.5 759.5 c 128
 37.1666666667 833.833333333 1 928.666666667 1 1044 c 0
 1 1172.66666667 41.1666666667 1275.16666667 121.5 1351.5 c 128
 201.833333333 1427.83333333 319.333333333 1466 474 1466 c 2
 1107 1466 l 1
 1107 1293 l 1
 963 1293 l 1
 963 -407 l 1
 793 -407 l 1
 793 1293 l 1
 570 1293 l 1
 570 -407 l 1
 405 -407 l 1
EndSplineSet
Validated: 1
EndChar

StartChar: periodcentered
Encoding: 183 183 118
Width: 682
Flags: HW
LayerCount: 2
Fore
SplineSet
238 637 m 1
 238 842 l 1
 443 842 l 1
 443 637 l 1
 238 637 l 1
EndSplineSet
Validated: 1
EndChar

StartChar: cedilla
Encoding: 184 184 119
Width: 610
VWidth: 1598
Flags: HW
LayerCount: 2
Fore
SplineSet
237.5 -163 m 1
 279.099609375 -21.400390625 l 1
 386.299804688 -21.400390625 l 1
 359.900390625 -107 l 1
 405.233398438 -112.333007812 439.366210938 -126.333007812 462.299804688 -149 c 128
 485.233398438 -171.666992188 496.700195312 -196.866210938 496.700195312 -224.599609375 c 0
 496.700195312 -264.599609375 477.5 -299.93359375 439.099609375 -330.599609375 c 128
 400.700195312 -361.266601562 342.833007812 -376.599609375 265.5 -376.599609375 c 0
 221.766601562 -376.599609375 183.366210938 -373.400390625 150.299804688 -367 c 1
 159.099609375 -273.400390625 l 1
 193.233398438 -275.533203125 218.299804688 -276.599609375 234.299804688 -276.599609375 c 0
 284.43359375 -276.599609375 319.633789062 -269.666992188 339.900390625 -255.799804688 c 0
 355.366210938 -245.133789062 363.099609375 -232.06640625 363.099609375 -216.599609375 c 0
 363.099609375 -207 360.033203125 -198.466796875 353.900390625 -191 c 128
 347.766601562 -183.533203125 336.43359375 -177.133789062 319.900390625 -171.799804688 c 128
 303.366210938 -166.466796875 275.900390625 -163.533203125 237.5 -163 c 1
EndSplineSet
Validated: 1
EndChar

StartChar: uni00B9
Encoding: 185 185 120
Width: 569
Flags: HW
LayerCount: 2
Fore
SplineSet
231 364 m 1
 176 1141 l 1
 176 1466 l 1
 399 1466 l 1
 399 1141 l 1
 347 364 l 1
 231 364 l 1
184 0 m 1
 184 205 l 1
 391 205 l 1
 391 0 l 1
 184 0 l 1
EndSplineSet
Validated: 1
EndChar

StartChar: ordmasculine
Encoding: 186 186 121
Width: 748
Flags: HW
LayerCount: 2
Fore
SplineSet
373 1491 m 256
 469.666666667 1491 548.5 1457.66666667 609.5 1391 c 128
 670.5 1324.33333333 701 1232.33333333 701 1115 c 0
 701 998.333333333 670.333333333 906.666666667 609 840 c 128
 547.666666667 773.333333333 469.333333333 740 374 740 c 0
 277.333333333 740 198.333333333 772.666666667 137 838 c 128
 75.6666666667 903.333333333 45 994.333333333 45 1111 c 0
 45 1231 75.5 1324.33333333 136.5 1391 c 128
 197.5 1457.66666667 276.333333333 1491 373 1491 c 256
373 1358 m 0
 319 1358 275.5 1339 242.5 1301 c 128
 209.5 1263 193 1201 193 1115 c 0
 193 1031 209.833333333 969.5 243.5 930.5 c 128
 277.166666667 891.5 320.333333333 872 373 872 c 0
 426.333333333 872 469.666666667 891.5 503 930.5 c 128
 536.333333333 969.5 553 1032.66666667 553 1120 c 0
 553 1201.33333333 536.166666667 1261.33333333 502.5 1300 c 128
 468.833333333 1338.66666667 425.666666667 1358 373 1358 c 0
EndSplineSet
Validated: 1
EndChar

StartChar: guillemotright
Encoding: 187 187 122
Width: 684
Flags: HW
LayerCount: 2
Fore
SplineSet
626 612 m 1
 626 449 l 1
 574.666666667 447.666666667 532.833333333 433.666666667 500.5 407 c 128
 468.166666667 380.333333333 446.666666667 344.166666667 436 298.5 c 128
 425.333333333 252.833333333 419.666666667 174.333333333 419 63 c 128
 418.333333333 -48.3333333333 416.333333333 -121.666666667 413 -157 c 0
 407 -213.666666667 395.833333333 -258.833333333 379.5 -292.5 c 128
 363.166666667 -326.166666667 343 -353.166666667 319 -373.5 c 128
 295 -393.833333333 264.333333333 -409.333333333 227 -420 c 0
 201.666666667 -427.333333333 160.333333333 -431 103 -431 c 2
 47 -431 l 1
 47 -274 l 1
 78 -274 l 2
 147.333333333 -274 193.333333333 -261.5 216 -236.5 c 128
 238.666666667 -211.5 250 -155.333333333 250 -68 c 0
 250 98.6666666667 253 204.333333333 259 249 c 0
 269.666666667 323 291 382.166666667 323 426.5 c 128
 355 470.833333333 400.333333333 505.333333333 459 530 c 1
 382.333333333 566.666666667 328.333333333 615.166666667 297 675.5 c 128
 265.666666667 735.833333333 250 837.666666667 250 981 c 0
 250 1111 248.333333333 1188.66666667 245 1214 c 0
 240.333333333 1258.66666667 227.166666667 1289.83333333 205.5 1307.5 c 128
 183.833333333 1325.16666667 141.333333333 1334 78 1334 c 2
 47 1334 l 1
 47 1491 l 1
 103 1491 l 2
 168.333333333 1491 215.666666667 1485.66666667 245 1475 c 0
 287.666666667 1460.33333333 323 1435.66666667 351 1401 c 128
 379 1366.33333333 397.166666667 1322.66666667 405.5 1270 c 128
 413.833333333 1217.33333333 418.333333333 1131 419 1011 c 128
 419.666666667 891 425.333333333 808.166666667 436 762.5 c 128
 446.666666667 716.833333333 468.166666667 680.666666667 500.5 654 c 128
 532.833333333 627.333333333 574.666666667 613.333333333 626 612 c 1
EndSplineSet
Validated: 1
EndChar

StartChar: onequarter
Encoding: 188 188 123
Width: 1139
Flags: HW
LayerCount: 2
Fore
SplineSet
510 -211 m 1
 510 -31 l 1
 420 -19.6666666667 346.833333333 0.5 290.5 29.5 c 128
 234.166666667 58.5 185.5 105.333333333 144.5 170 c 128
 103.5 234.666666667 79.6666666667 313.666666667 73 407 c 1
 254 441 l 1
 268 344.333333333 292.666666667 273.333333333 328 228 c 0
 378.666666667 164 439.333333333 128.333333333 510 121 c 1
 510 694 l 1
 436 708 360.333333333 736.666666667 283 780 c 0
 225.666666667 812 181.5 856.333333333 150.5 913 c 128
 119.5 969.666666667 104 1034 104 1106 c 0
 104 1234 149.333333333 1337.66666667 240 1417 c 0
 300.666666667 1470.33333333 390.666666667 1503 510 1515 c 1
 510 1601 l 1
 616 1601 l 1
 616 1515 l 1
 720.666666667 1505 803.666666667 1474.33333333 865 1423 c 0
 943.666666667 1357.66666667 991 1268 1007 1154 c 1
 821 1126 l 1
 810.333333333 1196.66666667 788.166666667 1250.83333333 754.5 1288.5 c 128
 720.833333333 1326.16666667 674.666666667 1351 616 1363 c 1
 616 844 l 1
 706.666666667 821.333333333 766.666666667 803.666666667 796 791 c 0
 852 766.333333333 897.666666667 736.333333333 933 701 c 128
 968.333333333 665.666666667 995.5 623.666666667 1014.5 575 c 128
 1033.5 526.333333333 1043 473.666666667 1043 417 c 0
 1043 292.333333333 1003.33333333 188.333333333 924 105 c 128
 844.666666667 21.6666666667 742 -23 616 -29 c 1
 616 -211 l 1
 510 -211 l 1
510 1365 m 1
 440 1354.33333333 384.833333333 1326.33333333 344.5 1281 c 128
 304.166666667 1235.66666667 284 1182 284 1120 c 0
 284 1058.66666667 301.166666667 1007.33333333 335.5 966 c 128
 369.833333333 924.666666667 428 891.666666667 510 867 c 1
 510 1365 l 1
616 121 m 1
 686 129.666666667 743.833333333 160 789.5 212 c 128
 835.166666667 264 858 328.333333333 858 405 c 0
 858 470.333333333 841.833333333 522.833333333 809.5 562.5 c 128
 777.166666667 602.166666667 712.666666667 637.666666667 616 669 c 1
 616 121 l 1
EndSplineSet
Validated: 1
EndChar

StartChar: onehalf
Encoding: 189 189 124
Width: 1821
Flags: HW
LayerCount: 2
Fore
SplineSet
119 1114 m 0
 119 1218.66666667 145.333333333 1307.66666667 198 1381 c 128
 250.666666667 1454.33333333 327 1491 427 1491 c 0
 519 1491 595.166666667 1458.16666667 655.5 1392.5 c 128
 715.833333333 1326.83333333 746 1230.33333333 746 1103 c 0
 746 979 715.5 883.5 654.5 816.5 c 128
 593.5 749.5 518.333333333 716 429 716 c 0
 340.333333333 716 266.5 749 207.5 815 c 128
 148.5 881 119 980.666666667 119 1114 c 0
432 1367 m 256
 387.333333333 1367 350.166666667 1347.66666667 320.5 1309 c 128
 290.833333333 1270.33333333 276 1199.33333333 276 1096 c 0
 276 1002 291 935.833333333 321 897.5 c 128
 351 859.166666667 388 840 432 840 c 0
 477.333333333 840 514.833333333 859.333333333 544.5 898 c 128
 574.166666667 936.666666667 589 1007.33333333 589 1110 c 0
 589 1204.66666667 574 1271.16666667 544 1309.5 c 128
 514 1347.83333333 476.666666667 1367 432 1367 c 256
433 -54 m 1
 1235 1491 l 1
 1381 1491 l 1
 582 -54 l 1
 433 -54 l 1
1067 344 m 0
 1067 449.333333333 1093.33333333 538.5 1146 611.5 c 128
 1198.66666667 684.5 1275.33333333 721 1376 721 c 0
 1468 721 1544.16666667 688.166666667 1604.5 622.5 c 128
 1664.83333333 556.833333333 1695 460.333333333 1695 333 c 0
 1695 209 1664.5 113.5 1603.5 46.5 c 128
 1542.5 -20.5 1467 -54 1377 -54 c 0
 1288.33333333 -54 1214.5 -20.8333333333 1155.5 45.5 c 128
 1096.5 111.833333333 1067 211.333333333 1067 344 c 0
1381 597 m 0
 1335.66666667 597 1298.16666667 577.666666667 1268.5 539 c 128
 1238.83333333 500.333333333 1224 429.333333333 1224 326 c 0
 1224 232.666666667 1239 166.666666667 1269 128 c 128
 1299 89.3333333333 1336 70 1380 70 c 0
 1426 70 1463.83333333 89.3333333333 1493.5 128 c 128
 1523.16666667 166.666666667 1538 237.333333333 1538 340 c 0
 1538 434.666666667 1523 501.166666667 1493 539.5 c 128
 1463 577.833333333 1425.66666667 597 1381 597 c 0
EndSplineSet
Validated: 1
EndChar

StartChar: threequarters
Encoding: 190 190 125
Width: 961
Flags: HW
LayerCount: 2
Fore
SplineSet
239 690 m 1
 54 690 l 1
 407 1491 l 1
 552 1491 l 1
 907 690 l 1
 726 690 l 1
 479 1287 l 1
 239 690 l 1
EndSplineSet
Validated: 1
EndChar

StartChar: questiondown
Encoding: 191 191 126
Width: 1251
Flags: HW
LayerCount: 2
Fore
SplineSet
733 1062 m 1
 733 857 l 1
 528 857 l 1
 528 1062 l 1
 733 1062 l 1
721 701 m 1
 721.666666667 678.333333333 722 661.333333333 722 650 c 0
 722 576.666666667 712 514.333333333 692 463 c 0
 677.333333333 424.333333333 653.666666667 385.333333333 621 346 c 0
 597 317.333333333 553.833333333 275.666666667 491.5 221 c 128
 429.166666667 166.333333333 388.833333333 122.666666667 370.5 90 c 128
 352.166666667 57.3333333333 343 21.6666666667 343 -17 c 0
 343 -87.6666666667 370.333333333 -149.333333333 425 -202 c 128
 479.666666667 -254.666666667 546.666666667 -281 626 -281 c 0
 702 -281 765.833333333 -257 817.5 -209 c 128
 869.166666667 -161 903 -86.3333333333 919 15 c 1
 1103 -6 l 1
 1086.33333333 -141.333333333 1036.83333333 -245.666666667 954.5 -319 c 128
 872.166666667 -392.333333333 763.666666667 -429 629 -429 c 0
 485 -429 370.5 -390 285.5 -312 c 128
 200.5 -234 158 -139.666666667 158 -29 c 0
 158 35.6666666667 172.833333333 94.6666666667 202.5 148 c 128
 232.166666667 201.333333333 290.666666667 266.666666667 378 344 c 0
 437.333333333 396.666666667 476 435.333333333 494 460 c 128
 512 484.666666667 525.166666667 513 533.5 545 c 128
 541.833333333 577 546.666666667 629 548 701 c 1
 721 701 l 1
EndSplineSet
Validated: 1
EndChar

StartChar: Acircumflex
Encoding: 194 194 129
Width: 1500
Flags: HW
LayerCount: 2
Fore
SplineSet
664 1726 m 1
 551 1556 l 1
 345 1556 l 1
 561 1836 l 1
 753 1836 l 1
 978 1556 l 1
 774 1556 l 1
 664 1726 l 1
EndSplineSet
Refer: 33 65 N 1 0 0 1 0 0 3
Validated: 1
EndChar

StartChar: Atilde
Encoding: 195 195 130
Width: 1500
Flags: HW
LayerCount: 2
Fore
SplineSet
349 1556 m 1
 348.983050847 1557.76271186 348.983050847 1557.76271186 348.983050847 1559.51335823 c 0
 348.983050847 1661.05084746 348.983050847 1661.05084746 406 1722 c 0
 463 1784 463 1784 552 1784 c 0
 614 1784 614 1784 721 1730 c 0
 780 1700 780 1700 815 1700 c 0
 847 1700 847 1700 864 1717.5 c 128
 881 1735 881 1735 888 1787 c 1
 1018 1787 l 1
 1015 1673 1015 1673 960.5 1616 c 128
 906 1559 906 1559 822 1559 c 0
 759 1559 759 1559 656 1615 c 0
 589 1651 589 1651 558 1651 c 0
 524 1651 524 1651 503 1627 c 0
 481.956521739 1604.04347826 481.956521739 1604.04347826 481.956521739 1560.04347826 c 0
 481.956521739 1558.04347826 481.956521739 1558.04347826 482 1556 c 1
 349 1556 l 1
EndSplineSet
Refer: 33 65 N 1 0 0 1 0 0 3
Validated: 1
EndChar

StartChar: Aring
Encoding: 197 197 132
Width: 1500
Flags: HW
LayerCount: 2
Fore
SplineSet
481 1601 m 0
 481 1674 481 1674 534.5 1727 c 128
 588 1780 588 1780 661 1780 c 0
 735 1780 735 1780 788 1726.5 c 128
 841 1673 841 1673 841 1597 c 0
 841 1520 841 1520 788 1467 c 128
 735 1414 735 1414 662 1414 c 0
 587 1414 587 1414 534 1467.5 c 128
 481 1521 481 1521 481 1601 c 0
557 1600 m 0
 557 1553 557 1553 588.5 1521 c 128
 620 1489 620 1489 663 1489 c 256
 706 1489 706 1489 737.5 1521 c 128
 769 1553 769 1553 769 1598 c 256
 769 1643 769 1643 738 1675 c 128
 707 1707 707 1707 663 1707 c 0
 620 1707 620 1707 588.5 1675.5 c 128
 557 1644 557 1644 557 1600 c 0
EndSplineSet
Refer: 33 65 N 1 0 0 1 0 0 3
Validated: 1
EndChar

StartChar: AE
Encoding: 198 198 133
Width: 2048
Flags: HW
LayerCount: 2
Fore
SplineSet
1 0 m 1
 706 1466 l 1
 1909 1466 l 1
 1909 1293 l 1
 1172 1293 l 1
 1172 842 l 1
 1857 842 l 1
 1857 670 l 1
 1172 670 l 1
 1172 173 l 1
 1936 173 l 1
 1936 0 l 1
 977 0 l 1
 977 423 l 1
 411 423 l 1
 211 0 l 1
 1 0 l 1
493 595 m 1
 977 595 l 1
 977 1293 l 1
 832 1293 l 1
 493 595 l 1
EndSplineSet
Validated: 1
EndChar

StartChar: Ecircumflex
Encoding: 202 202 137
Width: 1500
Flags: HW
LayerCount: 2
Fore
SplineSet
707 1726 m 1
 594 1556 l 1
 388 1556 l 1
 604 1836 l 1
 796 1836 l 1
 1021 1556 l 1
 817 1556 l 1
 707 1726 l 1
EndSplineSet
Refer: 37 69 N 1 0 0 1 0 0 3
Validated: 1
EndChar

StartChar: Icircumflex
Encoding: 206 206 141
Width: 1500
Flags: HW
LayerCount: 2
Fore
SplineSet
287 1726 m 1
 174 1556 l 1
 -32 1556 l 1
 184 1836 l 1
 376 1836 l 1
 601 1556 l 1
 397 1556 l 1
 287 1726 l 1
EndSplineSet
Refer: 41 73 N 1 0 0 1 0 0 3
EndChar

StartChar: Eth
Encoding: 208 208 143
Width: 1479
Flags: HW
LayerCount: 2
Fore
SplineSet
158 0 m 1
 158 667 l 1
 -3 667 l 1
 -3 799 l 1
 158 799 l 1
 158 1466 l 1
 664 1466 l 2
 777.333333333 1466 864 1459 924 1445 c 0
 1008 1425.66666667 1079.66666667 1390.66666667 1139 1340 c 0
 1216.33333333 1274.66666667 1274.16666667 1191.16666667 1312.5 1089.5 c 128
 1350.83333333 987.833333333 1370 871.666666667 1370 741 c 0
 1370 591.666666667 1346.33333333 463.166666667 1299 355.5 c 128
 1251.66666667 247.833333333 1195 169.666666667 1129 121 c 128
 1063 72.3333333333 987 37.6666666667 901 17 c 0
 853.666666667 5.66666666667 782.333333333 0 687 0 c 2
 158 0 l 1
352 173 m 1
 665 173 l 2
 762.333333333 173 838.333333333 182 893 200 c 128
 947.666666667 218 991 243 1023 275 c 0
 1069 321 1105 382.666666667 1131 460 c 128
 1157 537.333333333 1170 631.666666667 1170 743 c 0
 1170 857.666666667 1157.16666667 949.333333333 1131.5 1018 c 128
 1105.83333333 1086.66666667 1072.33333333 1141.66666667 1031 1183 c 128
 989.666666667 1224.33333333 943.666666667 1253 893 1269 c 128
 842.333333333 1285 764.666666667 1293 660 1293 c 2
 352 1293 l 1
 352 799 l 1
 756 799 l 1
 756 667 l 1
 352 667 l 1
 352 173 l 1
EndSplineSet
Validated: 1
EndChar

StartChar: Ntilde
Encoding: 209 209 144
Width: 1500
Flags: HW
LayerCount: 2
Fore
SplineSet
430 1556 m 1
 429.983050847 1557.76271186 429.983050847 1557.76271186 429.983050847 1559.51335823 c 0
 429.983050847 1661.05084746 429.983050847 1661.05084746 487 1722 c 0
 544 1784 544 1784 633 1784 c 0
 695 1784 695 1784 802 1730 c 0
 861 1700 861 1700 896 1700 c 0
 928 1700 928 1700 945 1717.5 c 128
 962 1735 962 1735 969 1787 c 1
 1099 1787 l 1
 1096 1673 1096 1673 1041.5 1616 c 128
 987 1559 987 1559 903 1559 c 0
 840 1559 840 1559 737 1615 c 0
 670 1651 670 1651 639 1651 c 0
 605 1651 605 1651 584 1627 c 0
 562.956521739 1604.04347826 562.956521739 1604.04347826 562.956521739 1560.04347826 c 0
 562.956521739 1558.04347826 562.956521739 1558.04347826 563 1556 c 1
 430 1556 l 1
EndSplineSet
Refer: 46 78 N 1 0 0 1 0 0 3
Validated: 1
EndChar

StartChar: Ocircumflex
Encoding: 212 212 147
Width: 1500
Flags: HW
LayerCount: 2
Fore
SplineSet
798 1726 m 1
 685 1556 l 1
 479 1556 l 1
 695 1836 l 1
 887 1836 l 1
 1112 1556 l 1
 908 1556 l 1
 798 1726 l 1
EndSplineSet
Refer: 47 79 N 1 0 0 1 0 0 3
EndChar

StartChar: Otilde
Encoding: 213 213 148
Width: 1500
Flags: HW
LayerCount: 2
Fore
SplineSet
466 1556 m 1
 465.983050847 1557.76271186 465.983050847 1557.76271186 465.983050847 1559.51335823 c 0
 465.983050847 1661.05084746 465.983050847 1661.05084746 523 1722 c 0
 580 1784 580 1784 669 1784 c 0
 731 1784 731 1784 838 1730 c 0
 897 1700 897 1700 932 1700 c 0
 964 1700 964 1700 981 1717.5 c 128
 998 1735 998 1735 1005 1787 c 1
 1135 1787 l 1
 1132 1673 1132 1673 1077.5 1616 c 128
 1023 1559 1023 1559 939 1559 c 0
 876 1559 876 1559 773 1615 c 0
 706 1651 706 1651 675 1651 c 0
 641 1651 641 1651 620 1627 c 0
 598.956521739 1604.04347826 598.956521739 1604.04347826 598.956521739 1560.04347826 c 0
 598.956521739 1558.04347826 598.956521739 1558.04347826 599 1556 c 1
 466 1556 l 1
EndSplineSet
Refer: 47 79 N 1 0 0 1 0 0 3
EndChar

StartChar: multiply
Encoding: 215 215 150
Width: 797
Flags: HW
LayerCount: 2
Fore
SplineSet
64 1197 m 1
 110 1339 l 1
 216 1301.66666667 293 1269.33333333 341 1242 c 1
 328.333333333 1362.66666667 321.666666667 1445.66666667 321 1491 c 1
 466 1491 l 1
 464 1425 456.333333333 1342.33333333 443 1243 c 1
 511.666666667 1277.66666667 590.333333333 1309.66666667 679 1339 c 1
 725 1197 l 1
 640.333333333 1169 557.333333333 1150.33333333 476 1141 c 1
 516.666666667 1105.66666667 574 1042.66666667 648 952 c 1
 528 867 l 1
 489.333333333 919.666666667 443.666666667 991.333333333 391 1082 c 1
 341.666666667 988 298.333333333 916.333333333 261 867 c 1
 143 952 l 1
 220.333333333 1047.33333333 275.666666667 1110.33333333 309 1141 c 1
 223 1157.66666667 141.333333333 1176.33333333 64 1197 c 1
EndSplineSet
Validated: 1
EndChar

StartChar: Oslash
Encoding: 216 216 151
Width: 1593
Flags: HW
LayerCount: 2
Fore
SplineSet
1250 1332 m 1
 1418 1520 l 1
 1517 1436 l 1
 1341 1238 l 1
 1398.33333333 1152.66666667 1437 1078 1457 1014 c 0
 1483.66666667 930 1497 836 1497 732 c 0
 1497 582 1466.66666667 448.333333333 1406 331 c 128
 1345.33333333 213.666666667 1260.16666667 125 1150.5 65 c 128
 1040.83333333 5 924.333333333 -25 801 -25 c 0
 709 -25 625.666666667 -12 551 14 c 0
 493.666666667 34 426.666666667 72.3333333333 350 129 c 1
 182 -59 l 1
 83 25 l 1
 259 222 l 1
 193.666666667 321.333333333 150 406.166666667 128 476.5 c 128
 106 546.833333333 95 631.333333333 95 730 c 0
 95 880.666666667 125 1014.83333333 185 1132.5 c 128
 245 1250.16666667 329.166666667 1339.33333333 437.5 1400 c 128
 545.833333333 1460.66666667 666.333333333 1491 799 1491 c 0
 888.333333333 1491 966.5 1479.16666667 1033.5 1455.5 c 128
 1100.5 1431.83333333 1172.66666667 1390.66666667 1250 1332 c 1
1130 1197 m 1
 1067.33333333 1246.33333333 1012.5 1280 965.5 1298 c 128
 918.5 1316 863.333333333 1325 800 1325 c 0
 654 1325 533.333333333 1275.5 438 1176.5 c 128
 342.666666667 1077.5 295 929.666666667 295 733 c 0
 295 655.666666667 302.333333333 587 317 527 c 0
 327.666666667 482.333333333 350 427.333333333 384 362 c 1
 1130 1197 l 1
1212 1094 m 1
 469 262 l 1
 520.333333333 220 567.666666667 190.666666667 611 174 c 0
 667.666666667 152 729 141 795 141 c 0
 940.333333333 141 1060.33333333 192.333333333 1155 295 c 128
 1249.66666667 397.666666667 1297 541.666666667 1297 727 c 0
 1297 865.666666667 1268.66666667 988 1212 1094 c 1
EndSplineSet
Validated: 1
EndChar

StartChar: Ucircumflex
Encoding: 219 219 154
Width: 1500
Flags: HW
LayerCount: 2
Fore
SplineSet
736 1726 m 1
 623 1556 l 1
 417 1556 l 1
 633 1836 l 1
 825 1836 l 1
 1050 1556 l 1
 846 1556 l 1
 736 1726 l 1
EndSplineSet
Refer: 53 85 N 1 0 0 1 0 0 3
EndChar

StartChar: Thorn
Encoding: 222 222 157
Width: 1366
Flags: HW
LayerCount: 2
Fore
SplineSet
158 0 m 1
 158 1466 l 1
 352 1466 l 1
 352 1168 l 1
 711 1168 l 2
 808.333333333 1168 883 1163.33333333 935 1154 c 0
 1007 1141.33333333 1067.33333333 1118.16666667 1116 1084.5 c 128
 1164.66666667 1050.83333333 1203.66666667 1003.66666667 1233 943 c 128
 1262.33333333 882.333333333 1277 815.666666667 1277 743 c 0
 1277 619 1237.33333333 513.833333333 1158 427.5 c 128
 1078.66666667 341.166666667 935.333333333 298 728 298 c 2
 352 298 l 1
 352 0 l 1
 158 0 l 1
352 471 m 1
 731 471 l 2
 856.333333333 471 945.333333333 494.333333333 998 541 c 128
 1050.66666667 587.666666667 1077 653 1077 737 c 0
 1077 797.666666667 1061.66666667 850 1031 894 c 128
 1000.33333333 938 959.666666667 967 909 981 c 0
 876.333333333 990.333333333 815.666666667 995 727 995 c 2
 352 995 l 1
 352 471 l 1
EndSplineSet
Validated: 1
EndChar

StartChar: germandbls
Encoding: 223 223 158
Width: 1251
Flags: HW
LayerCount: 2
Fore
SplineSet
153 0 m 1
 153 999 l 2
 153 1121 167.833333333 1214.83333333 197.5 1280.5 c 128
 227.166666667 1346.16666667 276.666666667 1397.66666667 346 1435 c 128
 415.333333333 1472.33333333 493.333333333 1491 580 1491 c 0
 695.333333333 1491 786 1462.16666667 852 1404.5 c 128
 918 1346.83333333 951 1280 951 1204 c 0
 951 1170 945 1135 933 1099 c 128
 921 1063 899.666666667 1018.16666667 869 964.5 c 128
 838.333333333 910.833333333 819 873.5 811 852.5 c 128
 803 831.5 799 813 799 797 c 0
 799 775.666666667 806.333333333 754.666666667 821 734 c 0
 835 712.666666667 875.333333333 680.333333333 942 637 c 0
 1032.66666667 577.666666667 1093 530 1123 494 c 0
 1165.66666667 442.666666667 1187 382 1187 312 c 0
 1187 219.333333333 1152.83333333 140 1084.5 74 c 128
 1016.16666667 8 928.666666667 -25 822 -25 c 0
 738 -25 664.333333333 -2.5 601 42.5 c 128
 537.666666667 87.5 490.333333333 145.333333333 459 216 c 1
 614 288 l 1
 647.333333333 226 680.666666667 183 714 159 c 128
 747.333333333 135 782.333333333 123 819 123 c 0
 869.666666667 123 913 140.333333333 949 175 c 128
 985 209.666666667 1003 250.333333333 1003 297 c 0
 1003 334.333333333 992.333333333 366.333333333 971 393 c 0
 957 410.333333333 919.666666667 439.666666667 859 481 c 0
 748.333333333 557 680 614 654 652 c 0
 627.333333333 690 614 729 614 769 c 0
 614 795 618.5 821.333333333 627.5 848 c 128
 636.5 874.666666667 658.166666667 917.333333333 692.5 976 c 128
 726.833333333 1034.66666667 749.333333333 1078.66666667 760 1108 c 128
 770.666666667 1137.33333333 776 1163.33333333 776 1186 c 0
 776 1227.33333333 757.833333333 1263.83333333 721.5 1295.5 c 128
 685.166666667 1327.16666667 636.666666667 1343 576 1343 c 0
 504.666666667 1343 446.333333333 1321 401 1277 c 128
 355.666666667 1233 333 1137.66666667 333 991 c 2
 333 0 l 1
 153 0 l 1
EndSplineSet
Validated: 1
EndChar

StartChar: acircumflex
Encoding: 226 226 161
Width: 1139
Flags: HW
LayerCount: 2
Fore
SplineSet
566 1364 m 1
 453 1194 l 1
 247 1194 l 1
 463 1474 l 1
 655 1474 l 1
 880 1194 l 1
 676 1194 l 1
 566 1364 l 1
EndSplineSet
Refer: 65 97 N 1 0 0 1 0 0 3
Validated: 1
EndChar

StartChar: atilde
Encoding: 227 227 162
Width: 1139
Flags: HW
LayerCount: 2
Fore
SplineSet
229 1219 m 1
 228.983050847 1220.76271186 228.983050847 1220.76271186 228.983050847 1222.51335823 c 0
 228.983050847 1324.05084746 228.983050847 1324.05084746 286 1385 c 0
 343 1447 343 1447 432 1447 c 0
 494 1447 494 1447 601 1393 c 0
 660 1363 660 1363 695 1363 c 0
 727 1363 727 1363 744 1380.5 c 128
 761 1398 761 1398 768 1450 c 1
 898 1450 l 1
 895 1336 895 1336 840.5 1279 c 128
 786 1222 786 1222 702 1222 c 0
 639 1222 639 1222 536 1278 c 0
 469 1314 469 1314 438 1314 c 0
 404 1314 404 1314 383 1290 c 0
 361.956521739 1267.04347826 361.956521739 1267.04347826 361.956521739 1223.04347826 c 0
 361.956521739 1221.04347826 361.956521739 1221.04347826 362 1219 c 1
 229 1219 l 1
EndSplineSet
Refer: 65 97 N 1 0 0 1 0 0 3
Validated: 1
EndChar

StartChar: aring
Encoding: 229 229 164
Width: 1139
Flags: HW
LayerCount: 2
Fore
SplineSet
383 1338 m 0
 383 1411 383 1411 436.5 1464 c 128
 490 1517 490 1517 563 1517 c 0
 637 1517 637 1517 690 1463.5 c 128
 743 1410 743 1410 743 1334 c 0
 743 1257 743 1257 690 1204 c 128
 637 1151 637 1151 564 1151 c 0
 489 1151 489 1151 436 1204.5 c 128
 383 1258 383 1258 383 1338 c 0
459 1337 m 0
 459 1290 459 1290 490.5 1258 c 128
 522 1226 522 1226 565 1226 c 256
 608 1226 608 1226 639.5 1258 c 128
 671 1290 671 1290 671 1335 c 256
 671 1380 671 1380 640 1412 c 128
 609 1444 609 1444 565 1444 c 0
 522 1444 522 1444 490.5 1412.5 c 128
 459 1381 459 1381 459 1337 c 0
EndSplineSet
Refer: 65 97 N 1 0 0 1 0 0 3
Validated: 1
EndChar

StartChar: ae
Encoding: 230 230 165
Width: 1821
Flags: HW
LayerCount: 2
Fore
SplineSet
1734 325 m 1
 1700.66666667 213.666666667 1644 127.666666667 1564 67 c 128
 1484 6.33333333333 1384.66666667 -24 1266 -24 c 0
 1181.33333333 -24 1107.16666667 -8 1043.5 24 c 128
 979.833333333 56 922.333333333 106 871 174 c 1
 801.666666667 106 731.5 56 660.5 24 c 128
 589.5 -8 513 -24 431 -24 c 0
 316.333333333 -24 227.166666667 5.5 163.5 64.5 c 128
 99.8333333333 123.5 68 195.333333333 68 280 c 0
 68 337.333333333 84.5 391.166666667 117.5 441.5 c 128
 150.5 491.833333333 196.5 530 255.5 556 c 128
 314.5 582 408.666666667 603.333333333 538 620 c 0
 638 633.333333333 722 649.666666667 790 669 c 1
 790.666666667 685.666666667 791 699.333333333 791 710 c 0
 791 794 773.5 852.833333333 738.5 886.5 c 128
 703.5 920.166666667 642.333333333 937 555 937 c 0
 497 937 448 930 408 916 c 128
 368 902 338.5 882.166666667 319.5 856.5 c 128
 300.5 830.833333333 284.666666667 789.666666667 272 733 c 1
 97 754 l 1
 115.666666667 832 142.5 893.833333333 177.5 939.5 c 128
 212.5 985.166666667 262.666666667 1021 328 1047 c 128
 393.333333333 1073 469.666666667 1086 557 1086 c 0
 668.333333333 1086 758 1069.33333333 826 1036 c 0
 865.333333333 1016.66666667 898.333333333 985.666666667 925 943 c 1
 967.666666667 989.666666667 1016 1025.16666667 1070 1049.5 c 128
 1124 1073.83333333 1189.33333333 1086 1266 1086 c 0
 1374 1086 1463.33333333 1059.83333333 1534 1007.5 c 128
 1604.66666667 955.166666667 1656.33333333 886 1689 800 c 128
 1721.66666667 714 1738 629.333333333 1738 546 c 0
 1738 533.333333333 1737.33333333 513 1736 485 c 1
 969 485 l 1
 970.333333333 389 982.166666667 319.333333333 1004.5 276 c 128
 1026.83333333 232.666666667 1062.5 196.5 1111.5 167.5 c 128
 1160.5 138.5 1214.33333333 124 1273 124 c 0
 1341.66666667 124 1399.83333333 143.666666667 1447.5 183 c 128
 1495.16666667 222.333333333 1528 277.666666667 1546 349 c 1
 1734 325 l 1
969 633 m 1
 1553 633 l 1
 1543.66666667 738.333333333 1513.66666667 815.333333333 1463 864 c 128
 1412.33333333 912.666666667 1346.33333333 937 1265 937 c 0
 1181 937 1112.16666667 910.333333333 1058.5 857 c 128
 1004.83333333 803.666666667 975 729 969 633 c 1
793 533 m 1
 740.333333333 510.333333333 633 486 471 460 c 0
 398.333333333 448.666666667 347.333333333 431.666666667 318 409 c 0
 278.666666667 377.666666667 259 336.666666667 259 286 c 0
 259 238.666666667 276.666666667 198.833333333 312 166.5 c 128
 347.333333333 134.166666667 398.666666667 118 466 118 c 0
 542.666666667 118 609.5 137 666.5 175 c 128
 723.5 213 760.666666667 260.333333333 778 317 c 0
 788 351.666666667 793 423.666666667 793 533 c 1
EndSplineSet
Validated: 1
EndChar

StartChar: ecircumflex
Encoding: 234 234 169
Width: 1139
Flags: HW
LayerCount: 2
Fore
SplineSet
567 1364 m 1
 454 1194 l 1
 248 1194 l 1
 464 1474 l 1
 656 1474 l 1
 881 1194 l 1
 677 1194 l 1
 567 1364 l 1
EndSplineSet
Refer: 69 101 N 1 0 0 1 0 0 3
Validated: 1
EndChar

StartChar: igrave
Encoding: 236 236 171
Width: 569
Flags: HW
LayerCount: 2
Fore
SplineSet
198 0 m 1
 198 1062 l 1
 378 1062 l 1
 378 0 l 1
 198 0 l 1
EndSplineSet
Refer: 64 96 N 1 0 0 1 -54 0 2
EndChar

StartChar: iacute
Encoding: 237 237 172
Width: 569
Flags: HW
LayerCount: 2
Fore
SplineSet
198 0 m 1
 198 1062 l 1
 378 1062 l 1
 378 0 l 1
 198 0 l 1
EndSplineSet
Refer: 115 180 N 1 0 0 1 -33 0 2
EndChar

StartChar: icircumflex
Encoding: 238 238 173
Width: 569
Flags: HW
LayerCount: 2
Fore
SplineSet
302 1364 m 1
 189 1194 l 1
 -17 1194 l 1
 199 1474 l 1
 391 1474 l 1
 616 1194 l 1
 412 1194 l 1
 302 1364 l 1
198 0 m 1
 198 1062 l 1
 378 1062 l 1
 378 0 l 1
 198 0 l 1
EndSplineSet
Validated: 1
EndChar

StartChar: idieresis
Encoding: 239 239 174
Width: 569
Flags: HW
LayerCount: 2
Fore
SplineSet
198 0 m 1
 198 1062 l 1
 378 1062 l 1
 378 0 l 1
 198 0 l 1
EndSplineSet
Refer: 103 168 N 1 0 0 1 -52 0 2
Validated: 1
EndChar

StartChar: eth
Encoding: 240 240 175
Width: 1139
Flags: HW
LayerCount: 2
Fore
SplineSet
308 1466 m 1
 525 1466 l 1
 573 1430 614.666666667 1396 650 1364 c 1
 864 1466 l 1
 909 1364 l 1
 737 1281 l 1
 950.333333333 1035.66666667 1057 782.333333333 1057 521 c 0
 1057 352.333333333 1010.66666667 219.166666667 918 121.5 c 128
 825.333333333 23.8333333333 707.333333333 -25 564 -25 c 0
 394 -25 261.333333333 39.6666666667 166 169 c 0
 104 253.666666667 73 369.666666667 73 517 c 0
 73 691 116 825.333333333 202 920 c 128
 288 1014.66666667 395.666666667 1062 525 1062 c 0
 563.666666667 1062 597.666666667 1058 627 1050 c 128
 656.333333333 1042 693 1026.33333333 737 1003 c 1
 713 1051.66666667 692 1089.5 674 1116.5 c 128
 656 1143.5 629.666666667 1176.66666667 595 1216 c 1
 320 1089 l 1
 276 1192 l 1
 515 1301 l 1
 450.333333333 1361 381.333333333 1416 308 1466 c 1
870 529 m 0
 870 657 839.833333333 754.833333333 779.5 822.5 c 128
 719.166666667 890.166666667 645 924 557 924 c 0
 470.333333333 924 398.666666667 890.166666667 342 822.5 c 128
 285.333333333 754.833333333 257 651.333333333 257 512 c 0
 257 382.666666667 286.166666667 285.333333333 344.5 220 c 128
 402.833333333 154.666666667 475.666666667 122 563 122 c 0
 648.333333333 122 720.833333333 156.5 780.5 225.5 c 128
 840.166666667 294.5 870 395.666666667 870 529 c 0
EndSplineSet
Validated: 1
EndChar

StartChar: ntilde
Encoding: 241 241 176
Width: 1139
Flags: HW
LayerCount: 2
Fore
SplineSet
262 1219 m 1
 261.983050847 1220.76271186 261.983050847 1220.76271186 261.983050847 1222.51335823 c 0
 261.983050847 1324.05084746 261.983050847 1324.05084746 319 1385 c 0
 376 1447 376 1447 465 1447 c 0
 527 1447 527 1447 634 1393 c 0
 693 1363 693 1363 728 1363 c 0
 760 1363 760 1363 777 1380.5 c 128
 794 1398 794 1398 801 1450 c 1
 931 1450 l 1
 928 1336 928 1336 873.5 1279 c 128
 819 1222 819 1222 735 1222 c 0
 672 1222 672 1222 569 1278 c 0
 502 1314 502 1314 471 1314 c 0
 437 1314 437 1314 416 1290 c 0
 394.956521739 1267.04347826 394.956521739 1267.04347826 394.956521739 1223.04347826 c 0
 394.956521739 1221.04347826 394.956521739 1221.04347826 395 1219 c 1
 262 1219 l 1
EndSplineSet
Refer: 78 110 N 1 0 0 1 0 0 3
Validated: 1
EndChar

StartChar: ocircumflex
Encoding: 244 244 179
Width: 1139
Flags: HW
LayerCount: 2
Fore
SplineSet
568 1364 m 1
 455 1194 l 1
 249 1194 l 1
 465 1474 l 1
 657 1474 l 1
 882 1194 l 1
 678 1194 l 1
 568 1364 l 1
EndSplineSet
Refer: 79 111 N 1 0 0 1 0 0 3
Validated: 1
EndChar

StartChar: otilde
Encoding: 245 245 180
Width: 1139
Flags: HW
LayerCount: 2
Fore
SplineSet
231 1219 m 1
 230.983050847 1220.76271186 230.983050847 1220.76271186 230.983050847 1222.51335823 c 0
 230.983050847 1324.05084746 230.983050847 1324.05084746 288 1385 c 0
 345 1447 345 1447 434 1447 c 0
 496 1447 496 1447 603 1393 c 0
 662 1363 662 1363 697 1363 c 0
 729 1363 729 1363 746 1380.5 c 128
 763 1398 763 1398 770 1450 c 1
 900 1450 l 1
 897 1336 897 1336 842.5 1279 c 128
 788 1222 788 1222 704 1222 c 0
 641 1222 641 1222 538 1278 c 0
 471 1314 471 1314 440 1314 c 0
 406 1314 406 1314 385 1290 c 0
 363.956521739 1267.04347826 363.956521739 1267.04347826 363.956521739 1223.04347826 c 0
 363.956521739 1221.04347826 363.956521739 1221.04347826 364 1219 c 1
 231 1219 l 1
EndSplineSet
Refer: 79 111 N 1 0 0 1 0 0 3
Validated: 1
EndChar

StartChar: divide
Encoding: 247 247 182
Width: 1124
Flags: HW
LayerCount: 2
Fore
SplineSet
459 922 m 1
 459 1127 l 1
 664 1127 l 1
 664 922 l 1
 459 922 l 1
1046 639 m 1
 78 639 l 1
 78 807 l 1
 1046 807 l 1
 1046 639 l 1
459 319 m 1
 459 524 l 1
 664 524 l 1
 664 319 l 1
 459 319 l 1
EndSplineSet
Validated: 1
EndChar

StartChar: oslash
Encoding: 248 248 183
Width: 1251
Flags: HW
LayerCount: 2
Fore
SplineSet
919 999 m 1
 1018 1127 l 1
 1114 1057 l 1
 1007 919 l 1
 1049 861.666666667 1077.66666667 809.666666667 1093 763 c 0
 1113.66666667 696.333333333 1124 618.666666667 1124 530 c 0
 1124 330 1067.66666667 183 955 89 c 0
 863.666666667 13.6666666667 753.666666667 -24 625 -24 c 0
 519 -24 425.333333333 2.66666666667 344 56 c 1
 239 -79 l 1
 145 -8 l 1
 253 133 l 1
 213.666666667 178.333333333 185.666666667 223.666666667 169 269 c 0
 142.333333333 341.666666667 129 424 129 516 c 0
 129 716.666666667 178 861.833333333 276 951.5 c 128
 374 1041.16666667 489 1086 621 1086 c 0
 675.666666667 1086 726 1079 772 1065 c 128
 818 1051 867 1029 919 999 c 1
818 867 m 1
 757.333333333 913.666666667 693.666666667 937 627 937 c 0
 538.333333333 937 464 903 404 835 c 128
 344 767 314 665.666666667 314 531 c 0
 314 431 331.333333333 347.333333333 366 280 c 1
 818 867 l 1
893 770 m 1
 444 187 l 1
 496 145 554.666666667 124 620 124 c 0
 712.666666667 124 789.166666667 158 849.5 226 c 128
 909.833333333 294 940 396 940 532 c 0
 940 582.666666667 936 627 928 665 c 0
 922.666666667 693 911 728 893 770 c 1
EndSplineSet
Validated: 1
EndChar

StartChar: ucircumflex
Encoding: 251 251 186
Width: 1139
Flags: HW
LayerCount: 2
Fore
SplineSet
564 1364 m 1
 451 1194 l 1
 245 1194 l 1
 461 1474 l 1
 653 1474 l 1
 878 1194 l 1
 674 1194 l 1
 564 1364 l 1
EndSplineSet
Refer: 85 117 N 1 0 0 1 0 0 3
Validated: 1
EndChar

StartChar: thorn
Encoding: 254 254 189
Width: 1139
Flags: HW
LayerCount: 2
Fore
SplineSet
135 -407 m 1
 135 1466 l 1
 315 1466 l 1
 315 950 l 1
 363.666666667 1001.33333333 406.333333333 1035.33333333 443 1052 c 0
 491 1074.66666667 545.666666667 1086 607 1086 c 0
 697.666666667 1086 777.666666667 1062.66666667 847 1016 c 128
 916.333333333 969.333333333 968.666666667 903.5 1004 818.5 c 128
 1039.33333333 733.5 1057 640.333333333 1057 539 c 0
 1057 429.666666667 1037.5 331.666666667 998.5 245 c 128
 959.5 158.333333333 902.833333333 91.8333333333 828.5 45.5 c 128
 754.166666667 -0.833333333333 676.333333333 -24 595 -24 c 0
 539.666666667 -24 488.333333333 -13 441 9 c 0
 405 26.3333333333 363 60 315 110 c 1
 315 -407 l 1
 135 -407 l 1
298 525 m 256
 298 388.333333333 325.666666667 287.333333333 381 222 c 128
 436.333333333 156.666666667 503.333333333 124 582 124 c 0
 662 124 730.5 157.833333333 787.5 225.5 c 128
 844.5 293.166666667 873 398 873 540 c 0
 873 675.333333333 845.166666667 776.666666667 789.5 844 c 128
 733.833333333 911.333333333 667.333333333 945 590 945 c 0
 513.333333333 945 445.5 909.166666667 386.5 837.5 c 128
 327.5 765.833333333 298 661.666666667 298 525 c 256
EndSplineSet
Validated: 1
EndChar

